<svg width="24" height="24" viewBox="0 0 24 24" fill="none" xmlns="http://www.w3.org/2000/svg">
<path d="M17.8844 14.6187C18.0281 14.6187 18.1438 14.5812 18.2281 14.5062C18.3188 14.4281 18.3625 14.3281 18.3625 14.2031C18.3625 14.075 18.3188 13.9719 18.2281 13.8937C18.1438 13.8156 18.0281 13.775 17.8844 13.775H17.3906C17.3719 13.775 17.3625 13.7844 17.3625 13.8062V14.5906C17.3625 14.6094 17.3719 14.6187 17.3906 14.6187H17.8844Z" fill="#323544"/>
<path fill-rule="evenodd" clip-rule="evenodd" d="M17.0813 21.2906C18.2844 21.2906 19.2594 20.3156 19.2594 19.1125V18.3937H20.225C21.0281 18.3937 21.6781 17.7437 21.6781 16.9406V12.8219C21.6781 12.0219 21.0281 11.3719 20.225 11.3719H10.5469C9.74688 11.3719 9.09688 12.0219 9.09688 12.8219V16.9406C9.09688 17.7437 9.74688 18.3937 10.5469 18.3937H17.8063V19.1125C17.8063 19.5125 17.4813 19.8375 17.0813 19.8375H6.91876C6.51876 19.8375 6.19376 19.5125 6.19376 19.1125V9.43437H10.0656C11.2688 9.43437 12.2438 8.45937 12.2438 7.25625L12.2406 3.3875H17.0813C17.4813 3.3875 17.8063 3.7125 17.8063 4.1125V11.3594H19.2594V4.1125C19.2594 2.90937 18.2844 1.93437 17.0813 1.93437H12.1125C11.5375 1.93437 10.9813 2.16562 10.575 2.575L5.37813 7.77187C4.97188 8.18125 4.74063 8.73437 4.74063 9.30937V19.1125C4.74063 20.3156 5.71563 21.2906 6.91876 21.2906H17.0813ZM10.7906 4.4125L7.21876 7.98437H10.0656C10.4656 7.98437 10.7906 7.65937 10.7906 7.25625V4.4125ZM18.0656 12.8344C18.3406 12.8344 18.5844 12.8906 18.7969 13.0031C19.0063 13.1125 19.1688 13.2719 19.2813 13.4781C19.4 13.6812 19.4563 13.9156 19.4563 14.1812C19.4563 14.4406 19.3969 14.6719 19.275 14.8687C19.1563 15.0687 18.9844 15.2219 18.7656 15.3312C18.5469 15.4406 18.2969 15.4969 18.0125 15.4969H17.3906C17.3719 15.4969 17.3625 15.5062 17.3625 15.525V16.8437C17.3625 16.8687 17.3531 16.8906 17.3375 16.9062C17.3219 16.9219 17.3031 16.9312 17.275 16.9312H16.35C16.3219 16.9312 16.3 16.9219 16.2844 16.9062C16.2688 16.8906 16.2625 16.8687 16.2625 16.8437V12.9219C16.2625 12.8937 16.2688 12.8719 16.2844 12.8562C16.3 12.8406 16.3219 12.8344 16.35 12.8344H18.0656ZM14.75 16.9062C14.7656 16.9219 14.7844 16.9312 14.8125 16.9312H15.7375C15.7656 16.9312 15.7875 16.9219 15.8031 16.9062C15.8188 16.8906 15.825 16.8687 15.825 16.8437V12.9219C15.825 12.8937 15.8188 12.8719 15.8031 12.8562C15.7875 12.8406 15.7656 12.8344 15.7375 12.8344H14.8125C14.7844 12.8344 14.7656 12.8406 14.75 12.8562C14.7344 12.8719 14.725 12.8937 14.725 12.9219V16.8437C14.725 16.8687 14.7344 16.8906 14.75 16.9062ZM11.4406 16.9312C11.4125 16.9312 11.3906 16.9219 11.375 16.9062C11.3594 16.8906 11.3531 16.8687 11.3531 16.8437V15.9937C11.3531 15.9531 11.3656 15.9187 11.3938 15.8875L13.0969 13.8125C13.1031 13.8031 13.1063 13.7969 13.1 13.7875C13.0969 13.7812 13.0906 13.775 13.0781 13.775H11.4406C11.4125 13.775 11.3906 13.7687 11.375 13.7531C11.3594 13.7375 11.3531 13.7156 11.3531 13.6875V12.9219C11.3531 12.8937 11.3594 12.8719 11.375 12.8562C11.3906 12.8406 11.4125 12.8344 11.4406 12.8344H14.2531C14.2813 12.8344 14.3031 12.8406 14.3188 12.8562C14.3344 12.8719 14.3406 12.8937 14.3406 12.9219V13.7656C14.3406 13.8125 14.3281 13.8469 14.3 13.875L12.5875 15.9531C12.5781 15.9594 12.5781 15.9687 12.5813 15.975C12.5844 15.9844 12.5906 15.9875 12.6031 15.9875H14.2531C14.2813 15.9875 14.3031 15.9969 14.3188 16.0125C14.3344 16.0281 14.3406 16.0469 14.3406 16.075V16.8437C14.3406 16.8687 14.3344 16.8906 14.3188 16.9062C14.3031 16.9219 14.2813 16.9312 14.2531 16.9312H11.4406Z" fill="#323544"/>
<mask id="mask0_35_159" style="mask-type:luminance" maskUnits="userSpaceOnUse" x="10" y="11" width="12" height="7">
<path d="M10.2594 11.6125H21.0969V18H10.2594V11.6125Z" fill="white"/>
</mask>
<g mask="url(#mask0_35_159)">
<path d="M10.2594 11.6125H21.0875V18H10.2594V11.6125Z" fill="#323544"/>
</g>
<path d="M13.2363 15.8082L13.3238 15.7332C13.4394 15.6676 13.5238 15.6332 13.5738 15.6332C13.68 15.6332 13.7988 15.7301 13.9238 15.9207C13.9988 16.0457 14.0363 16.1457 14.0363 16.2207C14.0363 16.2895 14.0113 16.3457 13.9613 16.3957C13.9175 16.4457 13.8644 16.4926 13.7988 16.5332C13.7394 16.5676 13.68 16.602 13.6238 16.6332C13.5644 16.6676 13.4488 16.7145 13.2738 16.7707C13.0988 16.8207 12.9269 16.8457 12.7613 16.8457C12.6019 16.8457 12.4394 16.8238 12.2738 16.7832C12.105 16.7426 11.93 16.6707 11.7488 16.5707C11.5738 16.4645 11.4144 16.3395 11.2738 16.1957C11.13 16.0457 11.0144 15.8582 10.9238 15.6332C10.83 15.402 10.7863 15.152 10.7863 14.8832C10.7863 14.6176 10.83 14.377 10.9238 14.1582C11.0144 13.9426 11.1269 13.7645 11.2613 13.6207C11.4019 13.4707 11.5644 13.352 11.7488 13.2582C12.08 13.0676 12.4175 12.9707 12.7613 12.9707C12.9175 12.9707 13.08 12.9957 13.2488 13.0457C13.4238 13.0957 13.5519 13.152 13.6363 13.2082L13.7613 13.2707C13.8175 13.3145 13.8644 13.3457 13.8988 13.3707C13.9894 13.4395 14.0363 13.5176 14.0363 13.6082C14.0363 13.702 13.9988 13.7957 13.9238 13.8957C13.7894 14.0895 13.6738 14.1832 13.5738 14.1832C13.505 14.1832 13.4144 14.1457 13.2988 14.0707C13.155 13.9457 12.9644 13.8832 12.7238 13.8832C12.4988 13.8832 12.2769 13.9645 12.0613 14.1207C11.9613 14.1957 11.8738 14.3051 11.7988 14.4457C11.73 14.5801 11.6988 14.7332 11.6988 14.9082C11.6988 15.0832 11.73 15.2426 11.7988 15.3832C11.8738 15.5176 11.9644 15.6207 12.0738 15.6957C12.28 15.8551 12.4988 15.9332 12.7238 15.9332C12.83 15.9332 12.93 15.9207 13.0238 15.8957C13.1238 15.8645 13.1925 15.8332 13.2363 15.8082Z" fill="white"/>
<path d="M17.1658 13.7832C17.2565 13.9582 17.3033 14.1582 17.3033 14.3832C17.3033 14.6082 17.2565 14.8145 17.1658 14.9957C17.0721 15.1707 16.9565 15.3145 16.8158 15.4207C16.5315 15.6457 16.2346 15.7582 15.9283 15.7582H15.2908V16.3332C15.2908 16.4176 15.2846 16.4801 15.2783 16.5207C15.269 16.5551 15.2533 16.5957 15.2283 16.6457C15.1783 16.7457 15.044 16.7957 14.8283 16.7957C14.5846 16.7957 14.444 16.7301 14.4033 16.5957C14.3846 16.5395 14.3783 16.452 14.3783 16.3332V13.4707C14.3783 13.3895 14.3783 13.3301 14.3783 13.2957C14.3846 13.2551 14.4033 13.2051 14.4283 13.1457C14.4783 13.0551 14.6096 13.0082 14.8283 13.0082H15.9408C16.2408 13.0082 16.5315 13.1207 16.8158 13.3457C16.9565 13.4551 17.0721 13.602 17.1658 13.7832ZM15.9408 14.8332C16.0408 14.8332 16.1408 14.7957 16.2408 14.7207C16.3408 14.6457 16.3908 14.5332 16.3908 14.3832C16.3908 14.2332 16.3408 14.1207 16.2408 14.0457C16.1408 13.9645 16.0346 13.9207 15.9283 13.9207H15.2908V14.8332H15.9408Z" fill="white"/>
<path d="M20.4278 13.7832C20.5184 13.9582 20.5653 14.1582 20.5653 14.3832C20.5653 14.6082 20.5184 14.8145 20.4278 14.9957C20.334 15.1707 20.2184 15.3145 20.0778 15.4207C19.7934 15.6457 19.4965 15.7582 19.1903 15.7582H18.5528V16.3332C18.5528 16.4176 18.5465 16.4801 18.5403 16.5207C18.5309 16.5551 18.5153 16.5957 18.4903 16.6457C18.4403 16.7457 18.3059 16.7957 18.0903 16.7957C17.8465 16.7957 17.7059 16.7301 17.6653 16.5957C17.6465 16.5395 17.6403 16.452 17.6403 16.3332V13.4707C17.6403 13.3895 17.6403 13.3301 17.6403 13.2957C17.6465 13.2551 17.6653 13.2051 17.6903 13.1457C17.7403 13.0551 17.8715 13.0082 18.0903 13.0082H19.2028C19.5028 13.0082 19.7934 13.1207 20.0778 13.3457C20.2184 13.4551 20.334 13.602 20.4278 13.7832ZM19.2028 14.8332C19.3028 14.8332 19.4028 14.7957 19.5028 14.7207C19.6028 14.6457 19.6528 14.5332 19.6528 14.3832C19.6528 14.2332 19.6028 14.1207 19.5028 14.0457C19.4028 13.9645 19.2965 13.9207 19.1903 13.9207H18.5528V14.8332H19.2028Z" fill="white"/>
</svg>
