<svg xmlns="http://www.w3.org/2000/svg" xmlns:xlink="http://www.w3.org/1999/xlink" width="40" zoomAndPan="magnify" viewBox="0 0 30 30.000001" height="40" preserveAspectRatio="xMidYMid meet" version="1.0"><defs><g/><clipPath id="c1ad9494bb"><path d="M 0.484375 0 L 29.515625 0 L 29.515625 29.03125 L 0.484375 29.03125 Z M 0.484375 0 " clip-rule="nonzero"/></clipPath><clipPath id="9d9c26038d"><path d="M 12.824219 14.515625 L 26.371094 14.515625 L 26.371094 22.5 L 12.824219 22.5 Z M 12.824219 14.515625 " clip-rule="nonzero"/></clipPath></defs><g clip-path="url(#c1ad9494bb)"><path fill="#ffffff" d="M 0.484375 0 L 29.515625 0 L 29.515625 29.03125 L 0.484375 29.03125 Z M 0.484375 0 " fill-opacity="1" fill-rule="nonzero"/><path fill="#ffffff" d="M 0.484375 0 L 29.515625 0 L 29.515625 29.03125 L 0.484375 29.03125 Z M 0.484375 0 " fill-opacity="1" fill-rule="nonzero"/></g><path fill="#323544" d="M 22.355469 18.273438 C 22.535156 18.273438 22.679688 18.226562 22.785156 18.132812 C 22.898438 18.035156 22.953125 17.910156 22.953125 17.753906 C 22.953125 17.59375 22.898438 17.464844 22.785156 17.367188 C 22.679688 17.269531 22.535156 17.21875 22.355469 17.21875 L 21.738281 17.21875 C 21.714844 17.21875 21.703125 17.230469 21.703125 17.257812 L 21.703125 18.238281 C 21.703125 18.261719 21.714844 18.273438 21.738281 18.273438 Z M 22.355469 18.273438 " fill-opacity="1" fill-rule="nonzero"/><path fill="#323544" d="M 21.351562 26.613281 C 22.855469 26.613281 24.074219 25.394531 24.074219 23.890625 L 24.074219 22.992188 L 25.28125 22.992188 C 26.285156 22.992188 27.097656 22.179688 27.097656 21.175781 L 27.097656 16.027344 C 27.097656 15.027344 26.285156 14.214844 25.28125 14.214844 L 13.183594 14.214844 C 12.183594 14.214844 11.371094 15.027344 11.371094 16.027344 L 11.371094 21.175781 C 11.371094 22.179688 12.183594 22.992188 13.183594 22.992188 L 22.257812 22.992188 L 22.257812 23.890625 C 22.257812 24.390625 21.851562 24.796875 21.351562 24.796875 L 8.648438 24.796875 C 8.148438 24.796875 7.742188 24.390625 7.742188 23.890625 L 7.742188 11.792969 L 12.582031 11.792969 C 14.085938 11.792969 15.304688 10.574219 15.304688 9.070312 L 15.300781 4.234375 L 21.351562 4.234375 C 21.851562 4.234375 22.257812 4.640625 22.257812 5.140625 L 22.257812 14.199219 L 24.074219 14.199219 L 24.074219 5.140625 C 24.074219 3.636719 22.855469 2.417969 21.351562 2.417969 L 15.140625 2.417969 C 14.421875 2.417969 13.726562 2.707031 13.21875 3.21875 L 6.722656 9.714844 C 6.214844 10.226562 5.925781 10.917969 5.925781 11.636719 L 5.925781 23.890625 C 5.925781 25.394531 7.144531 26.613281 8.648438 26.613281 Z M 13.488281 5.515625 L 9.023438 9.980469 L 12.582031 9.980469 C 13.082031 9.980469 13.488281 9.574219 13.488281 9.070312 Z M 22.582031 16.042969 C 22.925781 16.042969 23.230469 16.113281 23.496094 16.253906 C 23.757812 16.390625 23.960938 16.589844 24.101562 16.847656 C 24.25 17.101562 24.320312 17.394531 24.320312 17.726562 C 24.320312 18.050781 24.246094 18.339844 24.09375 18.585938 C 23.945312 18.835938 23.730469 19.027344 23.457031 19.164062 C 23.183594 19.300781 22.871094 19.371094 22.515625 19.371094 L 21.738281 19.371094 C 21.714844 19.371094 21.703125 19.382812 21.703125 19.40625 L 21.703125 21.054688 C 21.703125 21.085938 21.691406 21.113281 21.671875 21.132812 C 21.652344 21.152344 21.628906 21.164062 21.59375 21.164062 L 20.4375 21.164062 C 20.402344 21.164062 20.375 21.152344 20.355469 21.132812 C 20.335938 21.113281 20.328125 21.085938 20.328125 21.054688 L 20.328125 16.152344 C 20.328125 16.117188 20.335938 16.089844 20.355469 16.070312 C 20.375 16.050781 20.402344 16.042969 20.4375 16.042969 Z M 18.4375 21.132812 C 18.457031 21.152344 18.480469 21.164062 18.515625 21.164062 L 19.671875 21.164062 C 19.707031 21.164062 19.734375 21.152344 19.753906 21.132812 C 19.773438 21.113281 19.78125 21.085938 19.78125 21.054688 L 19.78125 16.152344 C 19.78125 16.117188 19.773438 16.089844 19.753906 16.070312 C 19.734375 16.050781 19.707031 16.042969 19.671875 16.042969 L 18.515625 16.042969 C 18.480469 16.042969 18.457031 16.050781 18.4375 16.070312 C 18.417969 16.089844 18.40625 16.117188 18.40625 16.152344 L 18.40625 21.054688 C 18.40625 21.085938 18.417969 21.113281 18.4375 21.132812 Z M 14.300781 21.164062 C 14.265625 21.164062 14.238281 21.152344 14.21875 21.132812 C 14.199219 21.113281 14.191406 21.085938 14.191406 21.054688 L 14.191406 19.992188 C 14.191406 19.941406 14.207031 19.898438 14.242188 19.859375 L 16.371094 17.265625 C 16.378906 17.253906 16.382812 17.246094 16.375 17.234375 C 16.371094 17.226562 16.363281 17.21875 16.347656 17.21875 L 14.300781 17.21875 C 14.265625 17.21875 14.238281 17.210938 14.21875 17.191406 C 14.199219 17.171875 14.191406 17.144531 14.191406 17.109375 L 14.191406 16.152344 C 14.191406 16.117188 14.199219 16.089844 14.21875 16.070312 C 14.238281 16.050781 14.265625 16.042969 14.300781 16.042969 L 17.816406 16.042969 C 17.851562 16.042969 17.878906 16.050781 17.898438 16.070312 C 17.917969 16.089844 17.925781 16.117188 17.925781 16.152344 L 17.925781 17.207031 C 17.925781 17.265625 17.910156 17.308594 17.875 17.34375 L 15.734375 19.941406 C 15.722656 19.949219 15.722656 19.960938 15.726562 19.96875 C 15.730469 19.980469 15.738281 19.984375 15.753906 19.984375 L 17.816406 19.984375 C 17.851562 19.984375 17.878906 19.996094 17.898438 20.015625 C 17.917969 20.035156 17.925781 20.058594 17.925781 20.09375 L 17.925781 21.054688 C 17.925781 21.085938 17.917969 21.113281 17.898438 21.132812 C 17.878906 21.152344 17.851562 21.164062 17.816406 21.164062 Z M 14.300781 21.164062 " fill-opacity="1" fill-rule="evenodd"/><g clip-path="url(#9d9c26038d)"><path fill="#323544" d="M 12.824219 14.515625 L 26.359375 14.515625 L 26.359375 22.5 L 12.824219 22.5 Z M 12.824219 14.515625 " fill-opacity="1" fill-rule="nonzero"/></g><g fill="#ffffff" fill-opacity="1"><g transform="translate(12.422818, 20.164391)"><g><path d="M 2.4375 -3.5 C 2.46875 -3.550781 2.515625 -3.585938 2.578125 -3.609375 C 2.640625 -3.628906 2.71875 -3.640625 2.8125 -3.640625 C 2.914062 -3.640625 2.992188 -3.628906 3.046875 -3.609375 C 3.109375 -3.597656 3.148438 -3.578125 3.171875 -3.546875 C 3.203125 -3.523438 3.226562 -3.492188 3.25 -3.453125 C 3.269531 -3.398438 3.28125 -3.316406 3.28125 -3.203125 L 3.28125 -0.4375 C 3.28125 -0.363281 3.273438 -0.304688 3.265625 -0.265625 C 3.265625 -0.234375 3.25 -0.191406 3.21875 -0.140625 C 3.175781 -0.046875 3.046875 0 2.828125 0 C 2.597656 0 2.460938 -0.0625 2.421875 -0.1875 C 2.398438 -0.238281 2.390625 -0.328125 2.390625 -0.453125 L 2.390625 -1.453125 L 1.078125 -1.453125 L 1.078125 -0.4375 C 1.078125 -0.363281 1.070312 -0.304688 1.0625 -0.265625 C 1.0625 -0.234375 1.050781 -0.191406 1.03125 -0.140625 C 0.976562 -0.046875 0.847656 0 0.640625 0 C 0.398438 0 0.265625 -0.0625 0.234375 -0.1875 C 0.210938 -0.238281 0.203125 -0.328125 0.203125 -0.453125 L 0.203125 -3.203125 C 0.203125 -3.273438 0.203125 -3.332031 0.203125 -3.375 C 0.210938 -3.414062 0.226562 -3.460938 0.25 -3.515625 C 0.300781 -3.597656 0.429688 -3.640625 0.640625 -3.640625 C 0.867188 -3.640625 1.003906 -3.578125 1.046875 -3.453125 C 1.066406 -3.398438 1.078125 -3.316406 1.078125 -3.203125 L 1.078125 -2.1875 L 2.390625 -2.1875 L 2.390625 -3.203125 C 2.390625 -3.273438 2.390625 -3.332031 2.390625 -3.375 C 2.398438 -3.414062 2.414062 -3.457031 2.4375 -3.5 Z M 2.4375 -3.5 "/></g></g></g><g fill="#ffffff" fill-opacity="1"><g transform="translate(15.896155, 20.164391)"><g><path d="M 0.4375 -3.640625 L 3.203125 -3.640625 C 3.304688 -3.640625 3.382812 -3.628906 3.4375 -3.609375 C 3.488281 -3.585938 3.519531 -3.546875 3.53125 -3.484375 C 3.550781 -3.429688 3.5625 -3.363281 3.5625 -3.28125 C 3.5625 -3.195312 3.550781 -3.128906 3.53125 -3.078125 C 3.519531 -3.023438 3.492188 -2.988281 3.453125 -2.96875 C 3.390625 -2.9375 3.300781 -2.921875 3.1875 -2.921875 L 2.25 -2.921875 L 2.25 -0.421875 C 2.25 -0.347656 2.242188 -0.289062 2.234375 -0.25 C 2.234375 -0.21875 2.21875 -0.175781 2.1875 -0.125 C 2.164062 -0.0820312 2.125 -0.0507812 2.0625 -0.03125 C 2 -0.0078125 1.914062 0 1.8125 0 C 1.707031 0 1.625 -0.0078125 1.5625 -0.03125 C 1.5 -0.0507812 1.457031 -0.0820312 1.4375 -0.125 C 1.414062 -0.175781 1.398438 -0.21875 1.390625 -0.25 C 1.390625 -0.289062 1.390625 -0.351562 1.390625 -0.4375 L 1.390625 -2.921875 L 0.4375 -2.921875 C 0.320312 -2.921875 0.238281 -2.929688 0.1875 -2.953125 C 0.144531 -2.984375 0.113281 -3.023438 0.09375 -3.078125 C 0.0820312 -3.128906 0.078125 -3.195312 0.078125 -3.28125 C 0.078125 -3.375 0.0820312 -3.445312 0.09375 -3.5 C 0.113281 -3.550781 0.144531 -3.585938 0.1875 -3.609375 C 0.238281 -3.628906 0.320312 -3.640625 0.4375 -3.640625 Z M 0.4375 -3.640625 "/></g></g></g><g fill="#ffffff" fill-opacity="1"><g transform="translate(19.528501, 20.164391)"><g><path d="M 4.0625 -3.5 C 4.09375 -3.445312 4.109375 -3.398438 4.109375 -3.359375 C 4.117188 -3.328125 4.125 -3.269531 4.125 -3.1875 L 4.125 -0.4375 C 4.125 -0.207031 4.0625 -0.0703125 3.9375 -0.03125 C 3.875 -0.0078125 3.789062 0 3.6875 0 C 3.59375 0 3.519531 -0.00390625 3.46875 -0.015625 C 3.414062 -0.0351562 3.375 -0.0546875 3.34375 -0.078125 C 3.3125 -0.109375 3.285156 -0.144531 3.265625 -0.1875 C 3.253906 -0.238281 3.25 -0.328125 3.25 -0.453125 L 3.25 -2.109375 C 3.164062 -2.003906 3.039062 -1.835938 2.875 -1.609375 C 2.71875 -1.390625 2.617188 -1.253906 2.578125 -1.203125 C 2.535156 -1.148438 2.503906 -1.109375 2.484375 -1.078125 C 2.472656 -1.054688 2.429688 -1.023438 2.359375 -0.984375 C 2.296875 -0.953125 2.226562 -0.9375 2.15625 -0.9375 C 2.082031 -0.9375 2.015625 -0.953125 1.953125 -0.984375 C 1.890625 -1.023438 1.847656 -1.0625 1.828125 -1.09375 L 1.78125 -1.140625 C 1.71875 -1.222656 1.585938 -1.398438 1.390625 -1.671875 C 1.191406 -1.941406 1.085938 -2.085938 1.078125 -2.109375 L 1.078125 -0.4375 C 1.078125 -0.363281 1.070312 -0.304688 1.0625 -0.265625 C 1.0625 -0.222656 1.046875 -0.179688 1.015625 -0.140625 C 0.960938 -0.046875 0.832031 0 0.625 0 C 0.425781 0 0.300781 -0.046875 0.25 -0.140625 C 0.226562 -0.179688 0.210938 -0.222656 0.203125 -0.265625 C 0.203125 -0.304688 0.203125 -0.367188 0.203125 -0.453125 L 0.203125 -3.203125 C 0.203125 -3.273438 0.203125 -3.332031 0.203125 -3.375 C 0.210938 -3.414062 0.226562 -3.460938 0.25 -3.515625 C 0.300781 -3.597656 0.429688 -3.640625 0.640625 -3.640625 C 0.734375 -3.640625 0.8125 -3.628906 0.875 -3.609375 C 0.9375 -3.585938 0.976562 -3.5625 1 -3.53125 L 1.03125 -3.515625 L 2.15625 -2.03125 C 2.71875 -2.769531 3.09375 -3.257812 3.28125 -3.5 C 3.34375 -3.59375 3.476562 -3.640625 3.6875 -3.640625 C 3.894531 -3.640625 4.019531 -3.59375 4.0625 -3.5 Z M 4.0625 -3.5 "/></g></g></g><g fill="#ffffff" fill-opacity="1"><g transform="translate(23.851541, 20.164391)"><g><path d="M 1.078125 -0.734375 L 2.421875 -0.734375 C 2.535156 -0.734375 2.617188 -0.71875 2.671875 -0.6875 C 2.722656 -0.664062 2.753906 -0.628906 2.765625 -0.578125 C 2.785156 -0.523438 2.796875 -0.453125 2.796875 -0.359375 C 2.796875 -0.273438 2.785156 -0.207031 2.765625 -0.15625 C 2.753906 -0.101562 2.726562 -0.0664062 2.6875 -0.046875 C 2.625 -0.015625 2.535156 0 2.421875 0 L 0.640625 0 C 0.398438 0 0.265625 -0.0625 0.234375 -0.1875 C 0.210938 -0.238281 0.203125 -0.320312 0.203125 -0.4375 L 0.203125 -3.203125 C 0.203125 -3.273438 0.203125 -3.332031 0.203125 -3.375 C 0.210938 -3.414062 0.226562 -3.460938 0.25 -3.515625 C 0.300781 -3.597656 0.429688 -3.640625 0.640625 -3.640625 C 0.867188 -3.640625 1.003906 -3.578125 1.046875 -3.453125 C 1.066406 -3.398438 1.078125 -3.316406 1.078125 -3.203125 Z M 1.078125 -0.734375 "/></g></g></g></svg>