<?xml version="1.0" encoding="UTF-8"?>
<svg xmlns="http://www.w3.org/2000/svg" xmlns:xlink="http://www.w3.org/1999/xlink" width="24px" height="24px" viewBox="0 0 24 24" version="1.1">
<defs>
<clipPath id="clip1">
  <path d="M 10.257812 11.613281 L 21.097656 11.613281 L 21.097656 18 L 10.257812 18 Z M 10.257812 11.613281 "/>
</clipPath>
</defs>
<g id="surface1">
<path style=" stroke:none;fill-rule:nonzero;fill:rgb(19.607843%,20.784314%,26.666668%);fill-opacity:1;" d="M 17.882812 14.617188 C 18.027344 14.617188 18.144531 14.582031 18.226562 14.507812 C 18.320312 14.429688 18.363281 14.328125 18.363281 14.203125 C 18.363281 14.074219 18.320312 13.972656 18.226562 13.894531 C 18.144531 13.816406 18.027344 13.773438 17.882812 13.773438 L 17.390625 13.773438 C 17.371094 13.773438 17.363281 13.785156 17.363281 13.804688 L 17.363281 14.589844 C 17.363281 14.609375 17.371094 14.617188 17.390625 14.617188 Z M 17.882812 14.617188 "/>
<path style=" stroke:none;fill-rule:evenodd;fill:rgb(19.607843%,20.784314%,26.666668%);fill-opacity:1;" d="M 17.082031 21.289062 C 18.285156 21.289062 19.257812 20.316406 19.257812 19.113281 L 19.257812 18.394531 L 20.226562 18.394531 C 21.027344 18.394531 21.679688 17.742188 21.679688 16.941406 L 21.679688 12.820312 C 21.679688 12.023438 21.027344 11.371094 20.226562 11.371094 L 10.546875 11.371094 C 9.746094 11.371094 9.097656 12.023438 9.097656 12.820312 L 9.097656 16.941406 C 9.097656 17.742188 9.746094 18.394531 10.546875 18.394531 L 17.804688 18.394531 L 17.804688 19.113281 C 17.804688 19.511719 17.480469 19.835938 17.082031 19.835938 L 6.917969 19.835938 C 6.519531 19.835938 6.195312 19.511719 6.195312 19.113281 L 6.195312 9.433594 L 10.066406 9.433594 C 11.269531 9.433594 12.242188 8.460938 12.242188 7.257812 L 12.242188 3.386719 L 17.082031 3.386719 C 17.480469 3.386719 17.804688 3.710938 17.804688 4.113281 L 17.804688 11.359375 L 19.257812 11.359375 L 19.257812 4.113281 C 19.257812 2.910156 18.285156 1.933594 17.082031 1.933594 L 12.113281 1.933594 C 11.539062 1.933594 10.980469 2.164062 10.574219 2.574219 L 5.378906 7.773438 C 4.972656 8.179688 4.742188 8.734375 4.742188 9.308594 L 4.742188 19.113281 C 4.742188 20.316406 5.714844 21.289062 6.917969 21.289062 Z M 10.789062 4.414062 L 7.21875 7.984375 L 10.066406 7.984375 C 10.464844 7.984375 10.789062 7.660156 10.789062 7.257812 Z M 18.066406 12.835938 C 18.339844 12.835938 18.585938 12.890625 18.796875 13.003906 C 19.007812 13.113281 19.167969 13.273438 19.28125 13.476562 C 19.398438 13.679688 19.457031 13.914062 19.457031 14.179688 C 19.457031 14.441406 19.398438 14.671875 19.273438 14.867188 C 19.15625 15.070312 18.984375 15.222656 18.765625 15.332031 C 18.546875 15.441406 18.296875 15.496094 18.011719 15.496094 L 17.390625 15.496094 C 17.371094 15.496094 17.363281 15.507812 17.363281 15.523438 L 17.363281 16.84375 C 17.363281 16.867188 17.351562 16.890625 17.335938 16.90625 C 17.320312 16.921875 17.304688 16.929688 17.273438 16.929688 L 16.351562 16.929688 C 16.320312 16.929688 16.300781 16.921875 16.285156 16.90625 C 16.269531 16.890625 16.261719 16.867188 16.261719 16.84375 L 16.261719 12.921875 C 16.261719 12.894531 16.269531 12.871094 16.285156 12.855469 C 16.300781 12.839844 16.320312 12.835938 16.351562 12.835938 Z M 14.75 16.90625 C 14.765625 16.921875 14.785156 16.929688 14.8125 16.929688 L 15.738281 16.929688 C 15.765625 16.929688 15.789062 16.921875 15.804688 16.90625 C 15.820312 16.890625 15.824219 16.867188 15.824219 16.84375 L 15.824219 12.921875 C 15.824219 12.894531 15.820312 12.871094 15.804688 12.855469 C 15.789062 12.839844 15.765625 12.835938 15.738281 12.835938 L 14.8125 12.835938 C 14.785156 12.835938 14.765625 12.839844 14.75 12.855469 C 14.734375 12.871094 14.726562 12.894531 14.726562 12.921875 L 14.726562 16.84375 C 14.726562 16.867188 14.734375 16.890625 14.75 16.90625 Z M 11.441406 16.929688 C 11.414062 16.929688 11.390625 16.921875 11.375 16.90625 C 11.359375 16.890625 11.351562 16.867188 11.351562 16.84375 L 11.351562 15.992188 C 11.351562 15.953125 11.367188 15.917969 11.394531 15.886719 L 13.097656 13.8125 C 13.101562 13.804688 13.105469 13.796875 13.101562 13.789062 C 13.097656 13.78125 13.089844 13.773438 13.078125 13.773438 L 11.441406 13.773438 C 11.414062 13.773438 11.390625 13.769531 11.375 13.753906 C 11.359375 13.738281 11.351562 13.714844 11.351562 13.6875 L 11.351562 12.921875 C 11.351562 12.894531 11.359375 12.871094 11.375 12.855469 C 11.390625 12.839844 11.414062 12.835938 11.441406 12.835938 L 14.253906 12.835938 C 14.28125 12.835938 14.304688 12.839844 14.320312 12.855469 C 14.335938 12.871094 14.339844 12.894531 14.339844 12.921875 L 14.339844 13.765625 C 14.339844 13.8125 14.328125 13.847656 14.300781 13.875 L 12.585938 15.953125 C 12.578125 15.960938 12.578125 15.96875 12.582031 15.976562 C 12.585938 15.984375 12.589844 15.988281 12.601562 15.988281 L 14.253906 15.988281 C 14.28125 15.988281 14.304688 15.996094 14.320312 16.011719 C 14.335938 16.027344 14.339844 16.046875 14.339844 16.074219 L 14.339844 16.84375 C 14.339844 16.867188 14.335938 16.890625 14.320312 16.90625 C 14.304688 16.921875 14.28125 16.929688 14.253906 16.929688 Z M 11.441406 16.929688 "/>
<g clip-path="url(#clip1)" clip-rule="nonzero">
<path style=" stroke:none;fill-rule:nonzero;fill:rgb(19.607843%,20.784314%,26.666668%);fill-opacity:1;" d="M 10.257812 11.613281 L 21.085938 11.613281 L 21.085938 18 L 10.257812 18 Z M 10.257812 11.613281 "/>
</g>
<path style=" stroke:none;fill-rule:nonzero;fill:rgb(100%,100%,100%);fill-opacity:1;" d="M 10.570312 16.257812 C 10.476562 16.152344 10.433594 16.054688 10.433594 15.96875 C 10.433594 15.878906 10.507812 15.765625 10.660156 15.621094 C 10.742188 15.539062 10.835938 15.496094 10.933594 15.496094 C 11.035156 15.496094 11.164062 15.582031 11.335938 15.757812 C 11.382812 15.816406 11.449219 15.871094 11.535156 15.921875 C 11.625 15.96875 11.710938 15.996094 11.796875 15.996094 C 12.113281 15.996094 12.273438 15.867188 12.273438 15.609375 C 12.273438 15.53125 12.226562 15.46875 12.132812 15.421875 C 12.050781 15.363281 11.941406 15.320312 11.808594 15.296875 C 11.675781 15.269531 11.535156 15.234375 11.382812 15.183594 C 11.234375 15.125 11.089844 15.0625 10.960938 14.996094 C 10.835938 14.921875 10.726562 14.804688 10.632812 14.644531 C 10.550781 14.488281 10.507812 14.300781 10.507812 14.082031 C 10.507812 13.777344 10.621094 13.507812 10.847656 13.28125 C 11.070312 13.058594 11.375 12.945312 11.757812 12.945312 C 11.964844 12.945312 12.152344 12.976562 12.320312 13.03125 C 12.496094 13.082031 12.617188 13.140625 12.683594 13.195312 L 12.808594 13.296875 C 12.914062 13.394531 12.972656 13.480469 12.972656 13.546875 C 12.972656 13.613281 12.929688 13.707031 12.847656 13.832031 C 12.726562 14 12.609375 14.082031 12.484375 14.082031 C 12.414062 14.082031 12.328125 14.050781 12.222656 13.984375 C 12.210938 13.976562 12.191406 13.957031 12.160156 13.933594 C 12.132812 13.902344 12.109375 13.875 12.085938 13.859375 C 12.007812 13.816406 11.914062 13.796875 11.796875 13.796875 C 11.6875 13.796875 11.597656 13.828125 11.523438 13.882812 C 11.445312 13.933594 11.410156 14.007812 11.410156 14.109375 C 11.410156 14.203125 11.449219 14.277344 11.535156 14.332031 C 11.625 14.390625 11.738281 14.433594 11.871094 14.457031 C 12.003906 14.476562 12.148438 14.503906 12.296875 14.546875 C 12.453125 14.589844 12.597656 14.640625 12.722656 14.707031 C 12.851562 14.765625 12.960938 14.875 13.046875 15.03125 C 13.136719 15.183594 13.183594 15.371094 13.183594 15.59375 C 13.183594 15.8125 13.136719 16.007812 13.046875 16.183594 C 12.960938 16.351562 12.851562 16.480469 12.710938 16.570312 C 12.425781 16.753906 12.125 16.84375 11.808594 16.84375 C 11.648438 16.84375 11.496094 16.828125 11.347656 16.796875 C 11.203125 16.753906 11.085938 16.703125 10.996094 16.644531 C 10.8125 16.53125 10.6875 16.421875 10.621094 16.320312 Z M 10.570312 16.257812 "/>
<path style=" stroke:none;fill-rule:nonzero;fill:rgb(100%,100%,100%);fill-opacity:1;" d="M 16.980469 13.070312 C 17.179688 13.171875 17.28125 13.28125 17.28125 13.394531 C 17.28125 13.453125 17.253906 13.539062 17.207031 13.644531 L 15.78125 16.53125 C 15.738281 16.609375 15.679688 16.671875 15.605469 16.71875 C 15.53125 16.769531 15.449219 16.796875 15.367188 16.796875 L 15.316406 16.796875 C 15.234375 16.796875 15.148438 16.769531 15.066406 16.71875 C 14.992188 16.671875 14.933594 16.609375 14.894531 16.53125 L 13.46875 13.644531 C 13.417969 13.539062 13.394531 13.453125 13.394531 13.394531 C 13.394531 13.28125 13.496094 13.171875 13.707031 13.070312 C 13.8125 13.015625 13.894531 12.984375 13.957031 12.984375 C 14.019531 12.984375 14.066406 12.992188 14.09375 13.007812 C 14.125 13.015625 14.15625 13.039062 14.179688 13.070312 C 14.210938 13.113281 14.242188 13.15625 14.269531 13.207031 C 14.292969 13.257812 14.359375 13.40625 14.46875 13.644531 C 14.574219 13.878906 14.6875 14.128906 14.804688 14.394531 C 14.929688 14.65625 15.046875 14.90625 15.15625 15.144531 C 15.261719 15.378906 15.324219 15.507812 15.34375 15.53125 L 16.367188 13.269531 C 16.398438 13.203125 16.425781 13.15625 16.441406 13.121094 C 16.507812 13.03125 16.582031 12.984375 16.667969 12.984375 C 16.757812 12.984375 16.863281 13.015625 16.980469 13.070312 Z M 16.980469 13.070312 "/>
<path style=" stroke:none;fill-rule:nonzero;fill:rgb(100%,100%,100%);fill-opacity:1;" d="M 19.535156 14.507812 L 20.445312 14.507812 C 20.628906 14.515625 20.742188 14.566406 20.785156 14.65625 C 20.816406 14.726562 20.835938 14.820312 20.835938 14.945312 L 20.835938 16.082031 C 20.835938 16.191406 20.789062 16.296875 20.695312 16.394531 C 20.402344 16.695312 19.972656 16.84375 19.398438 16.84375 C 18.878906 16.84375 18.429688 16.65625 18.046875 16.269531 C 17.671875 15.878906 17.484375 15.414062 17.484375 14.871094 C 17.484375 14.320312 17.675781 13.863281 18.058594 13.496094 C 18.449219 13.128906 18.910156 12.945312 19.433594 12.945312 C 19.835938 12.945312 20.214844 13.078125 20.585938 13.34375 C 20.675781 13.414062 20.722656 13.492188 20.722656 13.582031 C 20.722656 13.667969 20.679688 13.765625 20.597656 13.871094 C 20.460938 14.054688 20.339844 14.144531 20.234375 14.144531 C 20.164062 14.144531 20.058594 14.101562 19.910156 14.007812 C 19.765625 13.90625 19.601562 13.859375 19.410156 13.859375 C 19.140625 13.859375 18.902344 13.953125 18.695312 14.132812 C 18.496094 14.316406 18.398438 14.558594 18.398438 14.859375 C 18.398438 15.15625 18.5 15.414062 18.710938 15.621094 C 18.914062 15.828125 19.148438 15.933594 19.410156 15.933594 C 19.601562 15.933594 19.773438 15.902344 19.921875 15.832031 L 19.921875 15.269531 L 19.523438 15.269531 C 19.414062 15.269531 19.335938 15.257812 19.285156 15.234375 C 19.242188 15.207031 19.210938 15.171875 19.195312 15.121094 C 19.1875 15.0625 19.183594 14.988281 19.183594 14.894531 C 19.183594 14.804688 19.191406 14.734375 19.210938 14.683594 C 19.226562 14.625 19.25 14.582031 19.285156 14.558594 C 19.351562 14.527344 19.433594 14.507812 19.535156 14.507812 Z M 19.535156 14.507812 "/>
</g>
</svg>
