<svg width="24" height="24" viewBox="0 0 24 24" fill="none" xmlns="http://www.w3.org/2000/svg">
<path d="M17.8844 14.6187C18.0281 14.6187 18.1437 14.5812 18.2281 14.5062C18.3187 14.4281 18.3625 14.3281 18.3625 14.2031C18.3625 14.075 18.3187 13.9719 18.2281 13.8937C18.1437 13.8156 18.0281 13.775 17.8844 13.775H17.3906C17.3719 13.775 17.3625 13.7844 17.3625 13.8062V14.5906C17.3625 14.6094 17.3719 14.6187 17.3906 14.6187H17.8844Z" fill="#323544"/>
<path fill-rule="evenodd" clip-rule="evenodd" d="M17.0813 21.2906C18.2844 21.2906 19.2594 20.3156 19.2594 19.1125V18.3937H20.225C21.0281 18.3937 21.6781 17.7437 21.6781 16.9406V12.8219C21.6781 12.0219 21.0281 11.3719 20.225 11.3719H10.5469C9.74688 11.3719 9.09688 12.0219 9.09688 12.8219V16.9406C9.09688 17.7437 9.74688 18.3937 10.5469 18.3937H17.8063V19.1125C17.8063 19.5125 17.4813 19.8375 17.0813 19.8375H6.91876C6.51876 19.8375 6.19376 19.5125 6.19376 19.1125V9.43437H10.0656C11.2688 9.43437 12.2438 8.45937 12.2438 7.25625L12.2406 3.3875H17.0813C17.4813 3.3875 17.8063 3.7125 17.8063 4.1125V11.3594H19.2594V4.1125C19.2594 2.90937 18.2844 1.93437 17.0813 1.93437H12.1125C11.5375 1.93437 10.9813 2.16562 10.575 2.575L5.37813 7.77187C4.97188 8.18125 4.74063 8.73437 4.74063 9.30937V19.1125C4.74063 20.3156 5.71563 21.2906 6.91876 21.2906H17.0813ZM10.7906 4.4125L7.21876 7.98437H10.0656C10.4656 7.98437 10.7906 7.65937 10.7906 7.25625V4.4125ZM18.0656 12.8344C18.3406 12.8344 18.5844 12.8906 18.7969 13.0031C19.0063 13.1125 19.1688 13.2719 19.2813 13.4781C19.4 13.6812 19.4563 13.9156 19.4563 14.1812C19.4563 14.4406 19.3969 14.6719 19.275 14.8687C19.1563 15.0687 18.9844 15.2219 18.7656 15.3312C18.5469 15.4406 18.2969 15.4969 18.0125 15.4969H17.3906C17.3719 15.4969 17.3625 15.5062 17.3625 15.525V16.8437C17.3625 16.8687 17.3531 16.8906 17.3375 16.9062C17.3219 16.9219 17.3031 16.9312 17.275 16.9312H16.35C16.3219 16.9312 16.3 16.9219 16.2844 16.9062C16.2688 16.8906 16.2625 16.8687 16.2625 16.8437V12.9219C16.2625 12.8937 16.2688 12.8719 16.2844 12.8562C16.3 12.8406 16.3219 12.8344 16.35 12.8344H18.0656ZM14.75 16.9062C14.7656 16.9219 14.7844 16.9312 14.8125 16.9312H15.7375C15.7656 16.9312 15.7875 16.9219 15.8031 16.9062C15.8188 16.8906 15.825 16.8687 15.825 16.8437V12.9219C15.825 12.8937 15.8188 12.8719 15.8031 12.8562C15.7875 12.8406 15.7656 12.8344 15.7375 12.8344H14.8125C14.7844 12.8344 14.7656 12.8406 14.75 12.8562C14.7344 12.8719 14.725 12.8937 14.725 12.9219V16.8437C14.725 16.8687 14.7344 16.8906 14.75 16.9062ZM11.4406 16.9312C11.4125 16.9312 11.3906 16.9219 11.375 16.9062C11.3594 16.8906 11.3531 16.8687 11.3531 16.8437V15.9937C11.3531 15.9531 11.3656 15.9187 11.3938 15.8875L13.0969 13.8125C13.1031 13.8031 13.1063 13.7969 13.1 13.7875C13.0969 13.7812 13.0906 13.775 13.0781 13.775H11.4406C11.4125 13.775 11.3906 13.7687 11.375 13.7531C11.3594 13.7375 11.3531 13.7156 11.3531 13.6875V12.9219C11.3531 12.8937 11.3594 12.8719 11.375 12.8562C11.3906 12.8406 11.4125 12.8344 11.4406 12.8344H14.2531C14.2813 12.8344 14.3031 12.8406 14.3188 12.8562C14.3344 12.8719 14.3406 12.8937 14.3406 12.9219V13.7656C14.3406 13.8125 14.3281 13.8469 14.3 13.875L12.5875 15.9531C12.5781 15.9594 12.5781 15.9687 12.5813 15.975C12.5844 15.9844 12.5906 15.9875 12.6031 15.9875H14.2531C14.2813 15.9875 14.3031 15.9969 14.3188 16.0125C14.3344 16.0281 14.3406 16.0469 14.3406 16.075V16.8437C14.3406 16.8687 14.3344 16.8906 14.3188 16.9062C14.3031 16.9219 14.2813 16.9312 14.2531 16.9312H11.4406Z" fill="#323544"/>
<mask id="mask0_35_79" style="mask-type:luminance" maskUnits="userSpaceOnUse" x="10" y="11" width="12" height="7">
<path d="M10.2594 11.6125H21.0969V18H10.2594V11.6125Z" fill="white"/>
</mask>
<g mask="url(#mask0_35_79)">
<path d="M10.2594 11.6125H21.0875V18H10.2594V11.6125Z" fill="#323544"/>
</g>
<path d="M11.8883 13.3315C11.9133 13.2909 11.9508 13.2628 12.0008 13.244C12.0508 13.2284 12.1133 13.219 12.1883 13.219C12.2695 13.219 12.332 13.2284 12.3758 13.244C12.4258 13.2534 12.457 13.269 12.4758 13.294C12.5008 13.3128 12.5195 13.3378 12.5383 13.369C12.5539 13.4128 12.5633 13.4784 12.5633 13.569V15.7815C12.5633 15.8409 12.557 15.8878 12.5508 15.919C12.5508 15.944 12.5383 15.9784 12.5133 16.019C12.4789 16.094 12.3758 16.1315 12.2008 16.1315C12.0164 16.1315 11.907 16.0815 11.8758 15.9815C11.857 15.9409 11.8508 15.869 11.8508 15.769V14.969H10.8008V15.7815C10.8008 15.8409 10.7945 15.8878 10.7883 15.919C10.7883 15.944 10.7789 15.9784 10.7633 16.019C10.7195 16.094 10.6164 16.1315 10.4508 16.1315C10.257 16.1315 10.1508 16.0815 10.1258 15.9815C10.107 15.9409 10.1008 15.869 10.1008 15.769V13.569C10.1008 13.5128 10.1008 13.4659 10.1008 13.4315C10.107 13.4003 10.1195 13.3628 10.1383 13.319C10.1789 13.2534 10.282 13.219 10.4508 13.219C10.632 13.219 10.7414 13.269 10.7758 13.369C10.7914 13.4128 10.8008 13.4784 10.8008 13.569V14.3815H11.8508V13.569C11.8508 13.5128 11.8508 13.4659 11.8508 13.4315C11.857 13.4003 11.8695 13.3659 11.8883 13.3315Z" fill="white"/>
<path d="M13.0669 13.219H15.2794C15.3607 13.219 15.4232 13.2284 15.4669 13.244C15.5075 13.2628 15.5325 13.294 15.5419 13.344C15.5575 13.3878 15.5669 13.4409 15.5669 13.5065C15.5669 13.5753 15.5575 13.6284 15.5419 13.669C15.5325 13.7128 15.5107 13.7409 15.4794 13.7565C15.4294 13.7815 15.3575 13.794 15.2669 13.794H14.5169V15.794C14.5169 15.8534 14.5107 15.9003 14.5044 15.9315C14.5044 15.9565 14.4919 15.9909 14.4669 16.0315C14.4482 16.0659 14.4169 16.0909 14.3669 16.1065C14.3169 16.1253 14.2482 16.1315 14.1669 16.1315C14.0825 16.1315 14.0169 16.1253 13.9669 16.1065C13.9169 16.0909 13.8825 16.0659 13.8669 16.0315C13.8482 15.9909 13.8357 15.9565 13.8294 15.9315C13.8294 15.9003 13.8294 15.8503 13.8294 15.7815V13.794H13.0669C12.9732 13.794 12.9075 13.7878 12.8669 13.769C12.8325 13.744 12.8075 13.7128 12.7919 13.669C12.7825 13.6284 12.7794 13.5753 12.7794 13.5065C12.7794 13.4315 12.7825 13.3753 12.7919 13.3315C12.8075 13.2909 12.8325 13.2628 12.8669 13.244C12.9075 13.2284 12.9732 13.219 13.0669 13.219Z" fill="white"/>
<path d="M18.8728 13.3315C18.8978 13.3753 18.9103 13.4128 18.9103 13.444C18.9166 13.469 18.9228 13.5159 18.9228 13.5815V15.7815C18.9228 15.9659 18.8728 16.0753 18.7728 16.1065C18.7228 16.1253 18.6541 16.1315 18.5728 16.1315C18.4978 16.1315 18.4384 16.1284 18.3978 16.119C18.3541 16.1034 18.3228 16.0878 18.2978 16.069C18.2728 16.044 18.2509 16.0159 18.2353 15.9815C18.2259 15.9409 18.2228 15.869 18.2228 15.769V14.444C18.1541 14.5284 18.0541 14.6628 17.9228 14.844C17.7978 15.019 17.7166 15.1284 17.6853 15.169C17.6509 15.2128 17.6259 15.244 17.6103 15.269C17.6009 15.2878 17.5666 15.3128 17.5103 15.344C17.4603 15.369 17.4041 15.3815 17.3478 15.3815C17.2884 15.3815 17.2353 15.369 17.1853 15.344C17.1353 15.3128 17.1009 15.2815 17.0853 15.2565L17.0478 15.219C16.9978 15.1534 16.8916 15.0128 16.7353 14.794C16.5759 14.5784 16.4916 14.4628 16.4853 14.444V15.7815C16.4853 15.8409 16.4791 15.8878 16.4728 15.919C16.4728 15.9534 16.4603 15.9878 16.4353 16.019C16.3916 16.094 16.2884 16.1315 16.1228 16.1315C15.9634 16.1315 15.8634 16.094 15.8228 16.019C15.8041 15.9878 15.7916 15.9534 15.7853 15.919C15.7853 15.8878 15.7853 15.8378 15.7853 15.769V13.569C15.7853 13.5128 15.7853 13.4659 15.7853 13.4315C15.7916 13.4003 15.8041 13.3628 15.8228 13.319C15.8634 13.2534 15.9666 13.219 16.1353 13.219C16.2103 13.219 16.2728 13.2284 16.3228 13.244C16.3728 13.2628 16.4041 13.2815 16.4228 13.3065L16.4478 13.319L17.3478 14.5065C17.7978 13.9159 18.0978 13.5253 18.2478 13.3315C18.2978 13.2565 18.4041 13.219 18.5728 13.219C18.7384 13.219 18.8384 13.2565 18.8728 13.3315Z" fill="white"/>
<path d="M19.9437 15.544H21.0187C21.1094 15.544 21.175 15.5565 21.2187 15.5815C21.2594 15.6003 21.2844 15.6284 21.2937 15.669C21.3094 15.7128 21.3187 15.769 21.3187 15.844C21.3187 15.9128 21.3094 15.9659 21.2937 16.0065C21.2844 16.0503 21.2625 16.0784 21.2312 16.094C21.1812 16.119 21.1094 16.1315 21.0187 16.1315H19.5937C19.4 16.1315 19.2937 16.0815 19.2687 15.9815C19.25 15.9409 19.2437 15.8753 19.2437 15.7815V13.569C19.2437 13.5128 19.2437 13.4659 19.2437 13.4315C19.25 13.4003 19.2625 13.3628 19.2812 13.319C19.3219 13.2534 19.425 13.219 19.5937 13.219C19.775 13.219 19.8844 13.269 19.9187 13.369C19.9344 13.4128 19.9437 13.4784 19.9437 13.569V15.544Z" fill="white"/>
</svg>
