<svg xmlns="http://www.w3.org/2000/svg" xmlns:xlink="http://www.w3.org/1999/xlink" width="40" zoomAndPan="magnify" viewBox="0 0 30 30.000001" height="40" preserveAspectRatio="xMidYMid meet" version="1.0"><defs><g/><clipPath id="e6dce847f8"><path d="M 0.484375 0 L 29.515625 0 L 29.515625 29.03125 L 0.484375 29.03125 Z M 0.484375 0 " clip-rule="nonzero"/></clipPath><clipPath id="a805da2477"><path d="M 12.824219 14.515625 L 26.371094 14.515625 L 26.371094 22.5 L 12.824219 22.5 Z M 12.824219 14.515625 " clip-rule="nonzero"/></clipPath></defs><g clip-path="url(#e6dce847f8)"><path fill="#ffffff" d="M 0.484375 0 L 29.515625 0 L 29.515625 29.03125 L 0.484375 29.03125 Z M 0.484375 0 " fill-opacity="1" fill-rule="nonzero"/><path fill="#ffffff" d="M 0.484375 0 L 29.515625 0 L 29.515625 29.03125 L 0.484375 29.03125 Z M 0.484375 0 " fill-opacity="1" fill-rule="nonzero"/></g><path fill="#323544" d="M 22.355469 18.273438 C 22.535156 18.273438 22.679688 18.226562 22.785156 18.132812 C 22.898438 18.035156 22.953125 17.910156 22.953125 17.753906 C 22.953125 17.59375 22.898438 17.464844 22.785156 17.367188 C 22.679688 17.269531 22.535156 17.21875 22.355469 17.21875 L 21.738281 17.21875 C 21.714844 17.21875 21.703125 17.230469 21.703125 17.257812 L 21.703125 18.238281 C 21.703125 18.261719 21.714844 18.273438 21.738281 18.273438 Z M 22.355469 18.273438 " fill-opacity="1" fill-rule="nonzero"/><path fill="#323544" d="M 21.351562 26.613281 C 22.855469 26.613281 24.074219 25.394531 24.074219 23.890625 L 24.074219 22.992188 L 25.28125 22.992188 C 26.285156 22.992188 27.097656 22.179688 27.097656 21.175781 L 27.097656 16.027344 C 27.097656 15.027344 26.285156 14.214844 25.28125 14.214844 L 13.183594 14.214844 C 12.183594 14.214844 11.371094 15.027344 11.371094 16.027344 L 11.371094 21.175781 C 11.371094 22.179688 12.183594 22.992188 13.183594 22.992188 L 22.257812 22.992188 L 22.257812 23.890625 C 22.257812 24.390625 21.851562 24.796875 21.351562 24.796875 L 8.648438 24.796875 C 8.148438 24.796875 7.742188 24.390625 7.742188 23.890625 L 7.742188 11.792969 L 12.582031 11.792969 C 14.085938 11.792969 15.304688 10.574219 15.304688 9.070312 L 15.300781 4.234375 L 21.351562 4.234375 C 21.851562 4.234375 22.257812 4.640625 22.257812 5.140625 L 22.257812 14.199219 L 24.074219 14.199219 L 24.074219 5.140625 C 24.074219 3.636719 22.855469 2.417969 21.351562 2.417969 L 15.140625 2.417969 C 14.421875 2.417969 13.726562 2.707031 13.21875 3.21875 L 6.722656 9.714844 C 6.214844 10.226562 5.925781 10.917969 5.925781 11.636719 L 5.925781 23.890625 C 5.925781 25.394531 7.144531 26.613281 8.648438 26.613281 Z M 13.488281 5.515625 L 9.023438 9.980469 L 12.582031 9.980469 C 13.082031 9.980469 13.488281 9.574219 13.488281 9.070312 Z M 22.582031 16.042969 C 22.925781 16.042969 23.230469 16.113281 23.496094 16.253906 C 23.757812 16.390625 23.960938 16.589844 24.101562 16.847656 C 24.25 17.101562 24.320312 17.394531 24.320312 17.726562 C 24.320312 18.050781 24.246094 18.339844 24.09375 18.585938 C 23.945312 18.835938 23.730469 19.027344 23.457031 19.164062 C 23.183594 19.300781 22.871094 19.371094 22.515625 19.371094 L 21.738281 19.371094 C 21.714844 19.371094 21.703125 19.382812 21.703125 19.40625 L 21.703125 21.054688 C 21.703125 21.085938 21.691406 21.113281 21.671875 21.132812 C 21.652344 21.152344 21.628906 21.164062 21.59375 21.164062 L 20.4375 21.164062 C 20.402344 21.164062 20.375 21.152344 20.355469 21.132812 C 20.335938 21.113281 20.328125 21.085938 20.328125 21.054688 L 20.328125 16.152344 C 20.328125 16.117188 20.335938 16.089844 20.355469 16.070312 C 20.375 16.050781 20.402344 16.042969 20.4375 16.042969 Z M 18.4375 21.132812 C 18.457031 21.152344 18.480469 21.164062 18.515625 21.164062 L 19.671875 21.164062 C 19.707031 21.164062 19.734375 21.152344 19.753906 21.132812 C 19.773438 21.113281 19.78125 21.085938 19.78125 21.054688 L 19.78125 16.152344 C 19.78125 16.117188 19.773438 16.089844 19.753906 16.070312 C 19.734375 16.050781 19.707031 16.042969 19.671875 16.042969 L 18.515625 16.042969 C 18.480469 16.042969 18.457031 16.050781 18.4375 16.070312 C 18.417969 16.089844 18.40625 16.117188 18.40625 16.152344 L 18.40625 21.054688 C 18.40625 21.085938 18.417969 21.113281 18.4375 21.132812 Z M 14.300781 21.164062 C 14.265625 21.164062 14.238281 21.152344 14.21875 21.132812 C 14.199219 21.113281 14.191406 21.085938 14.191406 21.054688 L 14.191406 19.992188 C 14.191406 19.941406 14.207031 19.898438 14.242188 19.859375 L 16.371094 17.265625 C 16.378906 17.253906 16.382812 17.246094 16.375 17.234375 C 16.371094 17.226562 16.363281 17.21875 16.347656 17.21875 L 14.300781 17.21875 C 14.265625 17.21875 14.238281 17.210938 14.21875 17.191406 C 14.199219 17.171875 14.191406 17.144531 14.191406 17.109375 L 14.191406 16.152344 C 14.191406 16.117188 14.199219 16.089844 14.21875 16.070312 C 14.238281 16.050781 14.265625 16.042969 14.300781 16.042969 L 17.816406 16.042969 C 17.851562 16.042969 17.878906 16.050781 17.898438 16.070312 C 17.917969 16.089844 17.925781 16.117188 17.925781 16.152344 L 17.925781 17.207031 C 17.925781 17.265625 17.910156 17.308594 17.875 17.34375 L 15.734375 19.941406 C 15.722656 19.949219 15.722656 19.960938 15.726562 19.96875 C 15.730469 19.980469 15.738281 19.984375 15.753906 19.984375 L 17.816406 19.984375 C 17.851562 19.984375 17.878906 19.996094 17.898438 20.015625 C 17.917969 20.035156 17.925781 20.058594 17.925781 20.09375 L 17.925781 21.054688 C 17.925781 21.085938 17.917969 21.113281 17.898438 21.132812 C 17.878906 21.152344 17.851562 21.164062 17.816406 21.164062 Z M 14.300781 21.164062 " fill-opacity="1" fill-rule="evenodd"/><g clip-path="url(#a805da2477)"><path fill="#323544" d="M 12.824219 14.515625 L 26.359375 14.515625 L 26.359375 22.5 L 12.824219 22.5 Z M 12.824219 14.515625 " fill-opacity="1" fill-rule="nonzero"/></g><g fill="#ffffff" fill-opacity="1"><g transform="translate(15.944221, 20.994625)"><g><path d="M 2.671875 -4.734375 C 2.835938 -4.734375 2.957031 -4.71875 3.03125 -4.6875 C 3.113281 -4.65625 3.175781 -4.609375 3.21875 -4.546875 C 3.257812 -4.453125 3.28125 -4.320312 3.28125 -4.15625 L 3.28125 -1.65625 C 3.28125 -1.195312 3.113281 -0.796875 2.78125 -0.453125 C 2.457031 -0.109375 2.046875 0.0625 1.546875 0.0625 C 1.253906 0.0625 1 0 0.78125 -0.125 C 0.582031 -0.226562 0.445312 -0.320312 0.375 -0.40625 L 0.328125 -0.46875 C 0.171875 -0.625 0.09375 -0.757812 0.09375 -0.875 C 0.09375 -0.988281 0.164062 -1.125 0.3125 -1.28125 C 0.46875 -1.4375 0.601562 -1.515625 0.71875 -1.515625 C 0.832031 -1.515625 0.960938 -1.441406 1.109375 -1.296875 C 1.253906 -1.148438 1.40625 -1.078125 1.5625 -1.078125 C 1.726562 -1.078125 1.863281 -1.132812 1.96875 -1.25 C 2.082031 -1.363281 2.140625 -1.515625 2.140625 -1.703125 L 2.140625 -4.109375 C 2.140625 -4.367188 2.179688 -4.535156 2.265625 -4.609375 C 2.367188 -4.691406 2.503906 -4.734375 2.671875 -4.734375 Z M 2.671875 -4.734375 "/></g></g></g><g fill="#ffffff" fill-opacity="1"><g transform="translate(19.486178, 20.994625)"><g><path d="M 0.328125 -0.671875 C 0.210938 -0.804688 0.15625 -0.925781 0.15625 -1.03125 C 0.15625 -1.144531 0.25 -1.289062 0.4375 -1.46875 C 0.539062 -1.570312 0.65625 -1.625 0.78125 -1.625 C 0.90625 -1.625 1.070312 -1.515625 1.28125 -1.296875 C 1.34375 -1.222656 1.425781 -1.15625 1.53125 -1.09375 C 1.644531 -1.03125 1.753906 -1 1.859375 -1 C 2.253906 -1 2.453125 -1.160156 2.453125 -1.484375 C 2.453125 -1.578125 2.394531 -1.65625 2.28125 -1.71875 C 2.175781 -1.789062 2.039062 -1.84375 1.875 -1.875 C 1.707031 -1.90625 1.53125 -1.953125 1.34375 -2.015625 C 1.15625 -2.085938 0.976562 -2.164062 0.8125 -2.25 C 0.65625 -2.34375 0.519531 -2.488281 0.40625 -2.6875 C 0.300781 -2.882812 0.25 -3.117188 0.25 -3.390625 C 0.25 -3.773438 0.390625 -4.109375 0.671875 -4.390625 C 0.953125 -4.671875 1.332031 -4.8125 1.8125 -4.8125 C 2.070312 -4.8125 2.304688 -4.773438 2.515625 -4.703125 C 2.734375 -4.640625 2.882812 -4.570312 2.96875 -4.5 L 3.125 -4.375 C 3.257812 -4.25 3.328125 -4.144531 3.328125 -4.0625 C 3.328125 -3.976562 3.273438 -3.859375 3.171875 -3.703125 C 3.023438 -3.492188 2.875 -3.390625 2.71875 -3.390625 C 2.632812 -3.390625 2.523438 -3.429688 2.390625 -3.515625 C 2.378906 -3.523438 2.351562 -3.546875 2.3125 -3.578125 C 2.28125 -3.617188 2.25 -3.648438 2.21875 -3.671875 C 2.125 -3.722656 2.003906 -3.75 1.859375 -3.75 C 1.722656 -3.75 1.609375 -3.710938 1.515625 -3.640625 C 1.421875 -3.578125 1.375 -3.484375 1.375 -3.359375 C 1.375 -3.242188 1.425781 -3.148438 1.53125 -3.078125 C 1.644531 -3.003906 1.785156 -2.953125 1.953125 -2.921875 C 2.117188 -2.898438 2.296875 -2.863281 2.484375 -2.8125 C 2.679688 -2.757812 2.859375 -2.691406 3.015625 -2.609375 C 3.179688 -2.535156 3.316406 -2.398438 3.421875 -2.203125 C 3.535156 -2.015625 3.59375 -1.78125 3.59375 -1.5 C 3.59375 -1.226562 3.535156 -0.984375 3.421875 -0.765625 C 3.316406 -0.554688 3.175781 -0.394531 3 -0.28125 C 2.644531 -0.0507812 2.269531 0.0625 1.875 0.0625 C 1.675781 0.0625 1.484375 0.0390625 1.296875 0 C 1.117188 -0.0507812 0.972656 -0.113281 0.859375 -0.1875 C 0.628906 -0.332031 0.472656 -0.46875 0.390625 -0.59375 Z M 0.328125 -0.671875 "/></g></g></g></svg>