<svg width="24" height="24" viewBox="0 0 24 24" fill="none" xmlns="http://www.w3.org/2000/svg">
<path d="M17.8844 14.6187C18.0281 14.6187 18.1438 14.5812 18.2281 14.5062C18.3188 14.4281 18.3625 14.3281 18.3625 14.2031C18.3625 14.075 18.3188 13.9719 18.2281 13.8937C18.1438 13.8156 18.0281 13.775 17.8844 13.775H17.3906C17.3719 13.775 17.3625 13.7844 17.3625 13.8062V14.5906C17.3625 14.6094 17.3719 14.6187 17.3906 14.6187H17.8844Z" fill="#323544"/>
<path fill-rule="evenodd" clip-rule="evenodd" d="M17.0813 21.2906C18.2844 21.2906 19.2594 20.3156 19.2594 19.1125V18.3937H20.225C21.0281 18.3937 21.6781 17.7437 21.6781 16.9406V12.8219C21.6781 12.0219 21.0281 11.3719 20.225 11.3719H10.5469C9.74688 11.3719 9.09688 12.0219 9.09688 12.8219V16.9406C9.09688 17.7437 9.74688 18.3937 10.5469 18.3937H17.8063V19.1125C17.8063 19.5125 17.4813 19.8375 17.0813 19.8375H6.91876C6.51876 19.8375 6.19376 19.5125 6.19376 19.1125V9.43437H10.0656C11.2688 9.43437 12.2438 8.45937 12.2438 7.25625L12.2406 3.3875H17.0813C17.4813 3.3875 17.8063 3.7125 17.8063 4.1125V11.3594H19.2594V4.1125C19.2594 2.90937 18.2844 1.93437 17.0813 1.93437H12.1125C11.5375 1.93437 10.9813 2.16562 10.575 2.575L5.37813 7.77187C4.97188 8.18125 4.74063 8.73437 4.74063 9.30937V19.1125C4.74063 20.3156 5.71563 21.2906 6.91876 21.2906H17.0813ZM10.7906 4.4125L7.21876 7.98437H10.0656C10.4656 7.98437 10.7906 7.65937 10.7906 7.25625V4.4125ZM18.0656 12.8344C18.3406 12.8344 18.5844 12.8906 18.7969 13.0031C19.0063 13.1125 19.1688 13.2719 19.2813 13.4781C19.4 13.6812 19.4563 13.9156 19.4563 14.1812C19.4563 14.4406 19.3969 14.6719 19.275 14.8687C19.1563 15.0687 18.9844 15.2219 18.7656 15.3312C18.5469 15.4406 18.2969 15.4969 18.0125 15.4969H17.3906C17.3719 15.4969 17.3625 15.5062 17.3625 15.525V16.8437C17.3625 16.8687 17.3531 16.8906 17.3375 16.9062C17.3219 16.9219 17.3031 16.9312 17.275 16.9312H16.35C16.3219 16.9312 16.3 16.9219 16.2844 16.9062C16.2688 16.8906 16.2625 16.8687 16.2625 16.8437V12.9219C16.2625 12.8937 16.2688 12.8719 16.2844 12.8562C16.3 12.8406 16.3219 12.8344 16.35 12.8344H18.0656ZM14.75 16.9062C14.7656 16.9219 14.7844 16.9312 14.8125 16.9312H15.7375C15.7656 16.9312 15.7875 16.9219 15.8031 16.9062C15.8188 16.8906 15.825 16.8687 15.825 16.8437V12.9219C15.825 12.8937 15.8188 12.8719 15.8031 12.8562C15.7875 12.8406 15.7656 12.8344 15.7375 12.8344H14.8125C14.7844 12.8344 14.7656 12.8406 14.75 12.8562C14.7344 12.8719 14.725 12.8937 14.725 12.9219V16.8437C14.725 16.8687 14.7344 16.8906 14.75 16.9062ZM11.4406 16.9312C11.4125 16.9312 11.3906 16.9219 11.375 16.9062C11.3594 16.8906 11.3531 16.8687 11.3531 16.8437V15.9937C11.3531 15.9531 11.3656 15.9187 11.3938 15.8875L13.0969 13.8125C13.1031 13.8031 13.1063 13.7969 13.1 13.7875C13.0969 13.7812 13.0906 13.775 13.0781 13.775H11.4406C11.4125 13.775 11.3906 13.7687 11.375 13.7531C11.3594 13.7375 11.3531 13.7156 11.3531 13.6875V12.9219C11.3531 12.8937 11.3594 12.8719 11.375 12.8562C11.3906 12.8406 11.4125 12.8344 11.4406 12.8344H14.2531C14.2813 12.8344 14.3031 12.8406 14.3188 12.8562C14.3344 12.8719 14.3406 12.8937 14.3406 12.9219V13.7656C14.3406 13.8125 14.3281 13.8469 14.3 13.875L12.5875 15.9531C12.5781 15.9594 12.5781 15.9687 12.5813 15.975C12.5844 15.9844 12.5906 15.9875 12.6031 15.9875H14.2531C14.2813 15.9875 14.3031 15.9969 14.3188 16.0125C14.3344 16.0281 14.3406 16.0469 14.3406 16.075V16.8437C14.3406 16.8687 14.3344 16.8906 14.3188 16.9062C14.3031 16.9219 14.2813 16.9312 14.2531 16.9312H11.4406Z" fill="#323544"/>
<mask id="mask0_35_179" style="mask-type:luminance" maskUnits="userSpaceOnUse" x="10" y="11" width="12" height="7">
<path d="M10.2594 11.6125H21.0969V18H10.2594V11.6125Z" fill="white"/>
</mask>
<g mask="url(#mask0_35_179)">
<path d="M10.2594 11.6125H21.0875V18H10.2594V11.6125Z" fill="#323544"/>
</g>
<path d="M14.8929 13.0082C15.0241 13.0082 15.121 13.0207 15.1804 13.0457C15.246 13.0707 15.296 13.1082 15.3304 13.1582C15.3616 13.2332 15.3804 13.3394 15.3804 13.4707V15.4707C15.3804 15.8394 15.246 16.1582 14.9804 16.4332C14.721 16.7082 14.3929 16.8457 13.9929 16.8457C13.7585 16.8457 13.5554 16.7957 13.3804 16.6957C13.221 16.6144 13.1116 16.5394 13.0554 16.4707L13.0179 16.4207C12.8929 16.2957 12.8304 16.1894 12.8304 16.0957C12.8304 16.0051 12.8866 15.8957 13.0054 15.7707C13.1304 15.6457 13.2366 15.5832 13.3304 15.5832C13.421 15.5832 13.5241 15.6426 13.6429 15.7582C13.7585 15.8769 13.8804 15.9332 14.0054 15.9332C14.1366 15.9332 14.246 15.8894 14.3304 15.7957C14.421 15.7051 14.4679 15.5832 14.4679 15.4332V13.5082C14.4679 13.3019 14.4991 13.1676 14.5679 13.1082C14.6491 13.0426 14.7585 13.0082 14.8929 13.0082Z" fill="white"/>
<path d="M15.8514 16.2582C15.7577 16.1519 15.7139 16.0551 15.7139 15.9707C15.7139 15.8801 15.7889 15.7644 15.9389 15.6207C16.0202 15.5394 16.1139 15.4957 16.2139 15.4957C16.3139 15.4957 16.4452 15.5832 16.6139 15.7582C16.6639 15.8176 16.7296 15.8707 16.8139 15.9207C16.9046 15.9707 16.9921 15.9957 17.0764 15.9957C17.3921 15.9957 17.5514 15.8676 17.5514 15.6082C17.5514 15.5332 17.5046 15.4707 17.4139 15.4207C17.3296 15.3644 17.2202 15.3207 17.0889 15.2957C16.9546 15.2707 16.8139 15.2332 16.6639 15.1832C16.5139 15.1269 16.3702 15.0644 16.2389 14.9957C16.1139 14.9207 16.0046 14.8051 15.9139 14.6457C15.8296 14.4894 15.7889 14.3019 15.7889 14.0832C15.7889 13.7769 15.9014 13.5082 16.1264 13.2832C16.3514 13.0582 16.6546 12.9457 17.0389 12.9457C17.2452 12.9457 17.4327 12.9769 17.6014 13.0332C17.7764 13.0832 17.8952 13.1394 17.9639 13.1957L18.0889 13.2957C18.1952 13.3957 18.2514 13.4801 18.2514 13.5457C18.2514 13.6144 18.2077 13.7082 18.1264 13.8332C18.0077 14.0019 17.8889 14.0832 17.7639 14.0832C17.6952 14.0832 17.6077 14.0519 17.5014 13.9832C17.4921 13.9769 17.4702 13.9582 17.4389 13.9332C17.4139 13.9019 17.3889 13.8769 17.3639 13.8582C17.2889 13.8176 17.1921 13.7957 17.0764 13.7957C16.9671 13.7957 16.8764 13.8269 16.8014 13.8832C16.7264 13.9332 16.6889 14.0082 16.6889 14.1082C16.6889 14.2019 16.7296 14.2769 16.8139 14.3332C16.9046 14.3926 17.0171 14.4332 17.1514 14.4582C17.2827 14.4769 17.4264 14.5051 17.5764 14.5457C17.7327 14.5894 17.8764 14.6426 18.0014 14.7082C18.1327 14.7676 18.2421 14.8769 18.3264 15.0332C18.4171 15.1832 18.4639 15.3707 18.4639 15.5957C18.4639 15.8144 18.4171 16.0082 18.3264 16.1832C18.2421 16.3519 18.1296 16.4801 17.9889 16.5707C17.7046 16.7551 17.4046 16.8457 17.0889 16.8457C16.9296 16.8457 16.7764 16.8269 16.6264 16.7957C16.4827 16.7551 16.3671 16.7051 16.2764 16.6457C16.0921 16.5301 15.9671 16.4207 15.9014 16.3207L15.8514 16.2582Z" fill="white"/>
</svg>
