<svg xmlns="http://www.w3.org/2000/svg" xmlns:xlink="http://www.w3.org/1999/xlink" width="40" zoomAndPan="magnify" viewBox="0 0 30 30.000001" height="40" preserveAspectRatio="xMidYMid meet" version="1.0"><defs><g/><clipPath id="167d48a1ad"><path d="M 0.484375 0 L 29.515625 0 L 29.515625 29.03125 L 0.484375 29.03125 Z M 0.484375 0 " clip-rule="nonzero"/></clipPath><clipPath id="ff3e038ba4"><path d="M 12.824219 14.515625 L 26.371094 14.515625 L 26.371094 22.5 L 12.824219 22.5 Z M 12.824219 14.515625 " clip-rule="nonzero"/></clipPath></defs><g clip-path="url(#167d48a1ad)"><path fill="#ffffff" d="M 0.484375 0 L 29.515625 0 L 29.515625 29.03125 L 0.484375 29.03125 Z M 0.484375 0 " fill-opacity="1" fill-rule="nonzero"/><path fill="#ffffff" d="M 0.484375 0 L 29.515625 0 L 29.515625 29.03125 L 0.484375 29.03125 Z M 0.484375 0 " fill-opacity="1" fill-rule="nonzero"/></g><path fill="#323544" d="M 22.355469 18.273438 C 22.535156 18.273438 22.679688 18.226562 22.785156 18.132812 C 22.898438 18.035156 22.953125 17.910156 22.953125 17.753906 C 22.953125 17.59375 22.898438 17.464844 22.785156 17.367188 C 22.679688 17.269531 22.535156 17.21875 22.355469 17.21875 L 21.738281 17.21875 C 21.714844 17.21875 21.703125 17.230469 21.703125 17.257812 L 21.703125 18.238281 C 21.703125 18.261719 21.714844 18.273438 21.738281 18.273438 Z M 22.355469 18.273438 " fill-opacity="1" fill-rule="nonzero"/><path fill="#323544" d="M 21.351562 26.613281 C 22.855469 26.613281 24.074219 25.394531 24.074219 23.890625 L 24.074219 22.992188 L 25.28125 22.992188 C 26.285156 22.992188 27.097656 22.179688 27.097656 21.175781 L 27.097656 16.027344 C 27.097656 15.027344 26.285156 14.214844 25.28125 14.214844 L 13.183594 14.214844 C 12.183594 14.214844 11.371094 15.027344 11.371094 16.027344 L 11.371094 21.175781 C 11.371094 22.179688 12.183594 22.992188 13.183594 22.992188 L 22.257812 22.992188 L 22.257812 23.890625 C 22.257812 24.390625 21.851562 24.796875 21.351562 24.796875 L 8.648438 24.796875 C 8.148438 24.796875 7.742188 24.390625 7.742188 23.890625 L 7.742188 11.792969 L 12.582031 11.792969 C 14.085938 11.792969 15.304688 10.574219 15.304688 9.070312 L 15.300781 4.234375 L 21.351562 4.234375 C 21.851562 4.234375 22.257812 4.640625 22.257812 5.140625 L 22.257812 14.199219 L 24.074219 14.199219 L 24.074219 5.140625 C 24.074219 3.636719 22.855469 2.417969 21.351562 2.417969 L 15.140625 2.417969 C 14.421875 2.417969 13.726562 2.707031 13.21875 3.21875 L 6.722656 9.714844 C 6.214844 10.226562 5.925781 10.917969 5.925781 11.636719 L 5.925781 23.890625 C 5.925781 25.394531 7.144531 26.613281 8.648438 26.613281 Z M 13.488281 5.515625 L 9.023438 9.980469 L 12.582031 9.980469 C 13.082031 9.980469 13.488281 9.574219 13.488281 9.070312 Z M 22.582031 16.042969 C 22.925781 16.042969 23.230469 16.113281 23.496094 16.253906 C 23.757812 16.390625 23.960938 16.589844 24.101562 16.847656 C 24.25 17.101562 24.320312 17.394531 24.320312 17.726562 C 24.320312 18.050781 24.246094 18.339844 24.09375 18.585938 C 23.945312 18.835938 23.730469 19.027344 23.457031 19.164062 C 23.183594 19.300781 22.871094 19.371094 22.515625 19.371094 L 21.738281 19.371094 C 21.714844 19.371094 21.703125 19.382812 21.703125 19.40625 L 21.703125 21.054688 C 21.703125 21.085938 21.691406 21.113281 21.671875 21.132812 C 21.652344 21.152344 21.628906 21.164062 21.59375 21.164062 L 20.4375 21.164062 C 20.402344 21.164062 20.375 21.152344 20.355469 21.132812 C 20.335938 21.113281 20.328125 21.085938 20.328125 21.054688 L 20.328125 16.152344 C 20.328125 16.117188 20.335938 16.089844 20.355469 16.070312 C 20.375 16.050781 20.402344 16.042969 20.4375 16.042969 Z M 18.4375 21.132812 C 18.457031 21.152344 18.480469 21.164062 18.515625 21.164062 L 19.671875 21.164062 C 19.707031 21.164062 19.734375 21.152344 19.753906 21.132812 C 19.773438 21.113281 19.78125 21.085938 19.78125 21.054688 L 19.78125 16.152344 C 19.78125 16.117188 19.773438 16.089844 19.753906 16.070312 C 19.734375 16.050781 19.707031 16.042969 19.671875 16.042969 L 18.515625 16.042969 C 18.480469 16.042969 18.457031 16.050781 18.4375 16.070312 C 18.417969 16.089844 18.40625 16.117188 18.40625 16.152344 L 18.40625 21.054688 C 18.40625 21.085938 18.417969 21.113281 18.4375 21.132812 Z M 14.300781 21.164062 C 14.265625 21.164062 14.238281 21.152344 14.21875 21.132812 C 14.199219 21.113281 14.191406 21.085938 14.191406 21.054688 L 14.191406 19.992188 C 14.191406 19.941406 14.207031 19.898438 14.242188 19.859375 L 16.371094 17.265625 C 16.378906 17.253906 16.382812 17.246094 16.375 17.234375 C 16.371094 17.226562 16.363281 17.21875 16.347656 17.21875 L 14.300781 17.21875 C 14.265625 17.21875 14.238281 17.210938 14.21875 17.191406 C 14.199219 17.171875 14.191406 17.144531 14.191406 17.109375 L 14.191406 16.152344 C 14.191406 16.117188 14.199219 16.089844 14.21875 16.070312 C 14.238281 16.050781 14.265625 16.042969 14.300781 16.042969 L 17.816406 16.042969 C 17.851562 16.042969 17.878906 16.050781 17.898438 16.070312 C 17.917969 16.089844 17.925781 16.117188 17.925781 16.152344 L 17.925781 17.207031 C 17.925781 17.265625 17.910156 17.308594 17.875 17.34375 L 15.734375 19.941406 C 15.722656 19.949219 15.722656 19.960938 15.726562 19.96875 C 15.730469 19.980469 15.738281 19.984375 15.753906 19.984375 L 17.816406 19.984375 C 17.851562 19.984375 17.878906 19.996094 17.898438 20.015625 C 17.917969 20.035156 17.925781 20.058594 17.925781 20.09375 L 17.925781 21.054688 C 17.925781 21.085938 17.917969 21.113281 17.898438 21.132812 C 17.878906 21.152344 17.851562 21.164062 17.816406 21.164062 Z M 14.300781 21.164062 " fill-opacity="1" fill-rule="evenodd"/><g clip-path="url(#ff3e038ba4)"><path fill="#323544" d="M 12.824219 14.515625 L 26.359375 14.515625 L 26.359375 22.5 L 12.824219 22.5 Z M 12.824219 14.515625 " fill-opacity="1" fill-rule="nonzero"/></g><g fill="#ffffff" fill-opacity="1"><g transform="translate(15.342744, 20.994632)"><g><path d="M 3.75 -3.765625 C 3.863281 -3.546875 3.921875 -3.296875 3.921875 -3.015625 C 3.921875 -2.734375 3.863281 -2.476562 3.75 -2.25 C 3.632812 -2.03125 3.488281 -1.851562 3.3125 -1.71875 C 2.957031 -1.4375 2.585938 -1.296875 2.203125 -1.296875 L 1.40625 -1.296875 L 1.40625 -0.578125 C 1.40625 -0.472656 1.398438 -0.394531 1.390625 -0.34375 C 1.378906 -0.300781 1.359375 -0.25 1.328125 -0.1875 C 1.265625 -0.0625 1.097656 0 0.828125 0 C 0.523438 0 0.347656 -0.0820312 0.296875 -0.25 C 0.273438 -0.320312 0.265625 -0.429688 0.265625 -0.578125 L 0.265625 -4.15625 C 0.265625 -4.257812 0.265625 -4.332031 0.265625 -4.375 C 0.273438 -4.425781 0.296875 -4.488281 0.328125 -4.5625 C 0.390625 -4.675781 0.554688 -4.734375 0.828125 -4.734375 L 2.21875 -4.734375 C 2.59375 -4.734375 2.957031 -4.59375 3.3125 -4.3125 C 3.488281 -4.175781 3.632812 -3.992188 3.75 -3.765625 Z M 2.21875 -2.453125 C 2.34375 -2.453125 2.46875 -2.5 2.59375 -2.59375 C 2.71875 -2.6875 2.78125 -2.828125 2.78125 -3.015625 C 2.78125 -3.203125 2.71875 -3.34375 2.59375 -3.4375 C 2.46875 -3.539062 2.335938 -3.59375 2.203125 -3.59375 L 1.40625 -3.59375 L 1.40625 -2.453125 Z M 2.21875 -2.453125 "/></g></g></g><g fill="#ffffff" fill-opacity="1"><g transform="translate(19.420193, 20.994632)"><g><path d="M 4.015625 -4.640625 C 4.222656 -4.492188 4.328125 -4.351562 4.328125 -4.21875 C 4.328125 -4.132812 4.28125 -4.019531 4.1875 -3.875 L 2.78125 -1.78125 L 2.78125 -0.5625 C 2.78125 -0.457031 2.773438 -0.378906 2.765625 -0.328125 C 2.765625 -0.285156 2.75 -0.226562 2.71875 -0.15625 C 2.6875 -0.09375 2.628906 -0.046875 2.546875 -0.015625 C 2.460938 0.00390625 2.347656 0.015625 2.203125 0.015625 C 2.066406 0.015625 1.957031 0.00390625 1.875 -0.015625 C 1.800781 -0.046875 1.742188 -0.09375 1.703125 -0.15625 C 1.671875 -0.226562 1.648438 -0.285156 1.640625 -0.328125 C 1.640625 -0.378906 1.640625 -0.457031 1.640625 -0.5625 L 1.640625 -1.78125 L 0.25 -3.875 C 0.144531 -4.019531 0.09375 -4.132812 0.09375 -4.21875 C 0.09375 -4.351562 0.1875 -4.484375 0.375 -4.609375 C 0.570312 -4.734375 0.707031 -4.796875 0.78125 -4.796875 C 0.863281 -4.796875 0.929688 -4.78125 0.984375 -4.75 C 1.054688 -4.695312 1.132812 -4.609375 1.21875 -4.484375 L 2.21875 -2.890625 L 3.21875 -4.484375 C 3.300781 -4.609375 3.367188 -4.691406 3.421875 -4.734375 C 3.484375 -4.773438 3.550781 -4.796875 3.625 -4.796875 C 3.707031 -4.796875 3.835938 -4.742188 4.015625 -4.640625 Z M 4.015625 -4.640625 "/></g></g></g></svg>