<?xml version="1.0" encoding="UTF-8"?>
<svg xmlns="http://www.w3.org/2000/svg" xmlns:xlink="http://www.w3.org/1999/xlink" width="24px" height="24px" viewBox="0 0 24 24" version="1.1">
<defs>
<clipPath id="clip1">
  <path d="M 10.257812 11.613281 L 21.097656 11.613281 L 21.097656 18 L 10.257812 18 Z M 10.257812 11.613281 "/>
</clipPath>
</defs>
<g id="surface1">
<path style=" stroke:none;fill-rule:nonzero;fill:rgb(19.607843%,20.784314%,26.666668%);fill-opacity:1;" d="M 17.882812 14.617188 C 18.027344 14.617188 18.144531 14.582031 18.226562 14.507812 C 18.320312 14.429688 18.363281 14.328125 18.363281 14.203125 C 18.363281 14.074219 18.320312 13.972656 18.226562 13.894531 C 18.144531 13.816406 18.027344 13.773438 17.882812 13.773438 L 17.390625 13.773438 C 17.371094 13.773438 17.363281 13.785156 17.363281 13.804688 L 17.363281 14.589844 C 17.363281 14.609375 17.371094 14.617188 17.390625 14.617188 Z M 17.882812 14.617188 "/>
<path style=" stroke:none;fill-rule:evenodd;fill:rgb(19.607843%,20.784314%,26.666668%);fill-opacity:1;" d="M 17.082031 21.289062 C 18.285156 21.289062 19.257812 20.316406 19.257812 19.113281 L 19.257812 18.394531 L 20.226562 18.394531 C 21.027344 18.394531 21.679688 17.742188 21.679688 16.941406 L 21.679688 12.820312 C 21.679688 12.023438 21.027344 11.371094 20.226562 11.371094 L 10.546875 11.371094 C 9.746094 11.371094 9.097656 12.023438 9.097656 12.820312 L 9.097656 16.941406 C 9.097656 17.742188 9.746094 18.394531 10.546875 18.394531 L 17.804688 18.394531 L 17.804688 19.113281 C 17.804688 19.511719 17.480469 19.835938 17.082031 19.835938 L 6.917969 19.835938 C 6.519531 19.835938 6.195312 19.511719 6.195312 19.113281 L 6.195312 9.433594 L 10.066406 9.433594 C 11.269531 9.433594 12.242188 8.460938 12.242188 7.257812 L 12.242188 3.386719 L 17.082031 3.386719 C 17.480469 3.386719 17.804688 3.710938 17.804688 4.113281 L 17.804688 11.359375 L 19.257812 11.359375 L 19.257812 4.113281 C 19.257812 2.910156 18.285156 1.933594 17.082031 1.933594 L 12.113281 1.933594 C 11.539062 1.933594 10.980469 2.164062 10.574219 2.574219 L 5.378906 7.773438 C 4.972656 8.179688 4.742188 8.734375 4.742188 9.308594 L 4.742188 19.113281 C 4.742188 20.316406 5.714844 21.289062 6.917969 21.289062 Z M 10.789062 4.414062 L 7.21875 7.984375 L 10.066406 7.984375 C 10.464844 7.984375 10.789062 7.660156 10.789062 7.257812 Z M 18.066406 12.835938 C 18.339844 12.835938 18.585938 12.890625 18.796875 13.003906 C 19.007812 13.113281 19.167969 13.273438 19.28125 13.476562 C 19.398438 13.679688 19.457031 13.914062 19.457031 14.179688 C 19.457031 14.441406 19.398438 14.671875 19.273438 14.867188 C 19.15625 15.070312 18.984375 15.222656 18.765625 15.332031 C 18.546875 15.441406 18.296875 15.496094 18.011719 15.496094 L 17.390625 15.496094 C 17.371094 15.496094 17.363281 15.507812 17.363281 15.523438 L 17.363281 16.84375 C 17.363281 16.867188 17.351562 16.890625 17.335938 16.90625 C 17.320312 16.921875 17.304688 16.929688 17.273438 16.929688 L 16.351562 16.929688 C 16.320312 16.929688 16.300781 16.921875 16.285156 16.90625 C 16.269531 16.890625 16.261719 16.867188 16.261719 16.84375 L 16.261719 12.921875 C 16.261719 12.894531 16.269531 12.871094 16.285156 12.855469 C 16.300781 12.839844 16.320312 12.835938 16.351562 12.835938 Z M 14.75 16.90625 C 14.765625 16.921875 14.785156 16.929688 14.8125 16.929688 L 15.738281 16.929688 C 15.765625 16.929688 15.789062 16.921875 15.804688 16.90625 C 15.820312 16.890625 15.824219 16.867188 15.824219 16.84375 L 15.824219 12.921875 C 15.824219 12.894531 15.820312 12.871094 15.804688 12.855469 C 15.789062 12.839844 15.765625 12.835938 15.738281 12.835938 L 14.8125 12.835938 C 14.785156 12.835938 14.765625 12.839844 14.75 12.855469 C 14.734375 12.871094 14.726562 12.894531 14.726562 12.921875 L 14.726562 16.84375 C 14.726562 16.867188 14.734375 16.890625 14.75 16.90625 Z M 11.441406 16.929688 C 11.414062 16.929688 11.390625 16.921875 11.375 16.90625 C 11.359375 16.890625 11.351562 16.867188 11.351562 16.84375 L 11.351562 15.992188 C 11.351562 15.953125 11.367188 15.917969 11.394531 15.886719 L 13.097656 13.8125 C 13.101562 13.804688 13.105469 13.796875 13.101562 13.789062 C 13.097656 13.78125 13.089844 13.773438 13.078125 13.773438 L 11.441406 13.773438 C 11.414062 13.773438 11.390625 13.769531 11.375 13.753906 C 11.359375 13.738281 11.351562 13.714844 11.351562 13.6875 L 11.351562 12.921875 C 11.351562 12.894531 11.359375 12.871094 11.375 12.855469 C 11.390625 12.839844 11.414062 12.835938 11.441406 12.835938 L 14.253906 12.835938 C 14.28125 12.835938 14.304688 12.839844 14.320312 12.855469 C 14.335938 12.871094 14.339844 12.894531 14.339844 12.921875 L 14.339844 13.765625 C 14.339844 13.8125 14.328125 13.847656 14.300781 13.875 L 12.585938 15.953125 C 12.578125 15.960938 12.578125 15.96875 12.582031 15.976562 C 12.585938 15.984375 12.589844 15.988281 12.601562 15.988281 L 14.253906 15.988281 C 14.28125 15.988281 14.304688 15.996094 14.320312 16.011719 C 14.335938 16.027344 14.339844 16.046875 14.339844 16.074219 L 14.339844 16.84375 C 14.339844 16.867188 14.335938 16.890625 14.320312 16.90625 C 14.304688 16.921875 14.28125 16.929688 14.253906 16.929688 Z M 11.441406 16.929688 "/>
<g clip-path="url(#clip1)" clip-rule="nonzero">
<path style=" stroke:none;fill-rule:nonzero;fill:rgb(19.607843%,20.784314%,26.666668%);fill-opacity:1;" d="M 10.257812 11.613281 L 21.085938 11.613281 L 21.085938 18 L 10.257812 18 Z M 10.257812 11.613281 "/>
</g>
<path style=" stroke:none;fill-rule:nonzero;fill:rgb(100%,100%,100%);fill-opacity:1;" d="M 13.34375 13.785156 C 13.433594 13.957031 13.480469 14.160156 13.480469 14.382812 C 13.480469 14.609375 13.433594 14.816406 13.34375 14.996094 C 13.25 15.171875 13.132812 15.316406 12.992188 15.421875 C 12.710938 15.644531 12.414062 15.757812 12.105469 15.757812 L 11.46875 15.757812 L 11.46875 16.332031 C 11.46875 16.417969 11.460938 16.480469 11.457031 16.519531 C 11.445312 16.554688 11.429688 16.597656 11.40625 16.644531 C 11.355469 16.746094 11.222656 16.796875 11.007812 16.796875 C 10.761719 16.796875 10.621094 16.730469 10.582031 16.597656 C 10.5625 16.539062 10.554688 16.453125 10.554688 16.332031 L 10.554688 13.472656 C 10.554688 13.390625 10.554688 13.332031 10.554688 13.296875 C 10.5625 13.253906 10.582031 13.207031 10.605469 13.144531 C 10.65625 13.054688 10.789062 13.007812 11.007812 13.007812 L 12.117188 13.007812 C 12.417969 13.007812 12.710938 13.121094 12.992188 13.347656 C 13.132812 13.457031 13.25 13.601562 13.34375 13.785156 Z M 12.117188 14.832031 C 12.21875 14.832031 12.320312 14.796875 12.417969 14.722656 C 12.519531 14.644531 12.570312 14.535156 12.570312 14.382812 C 12.570312 14.234375 12.519531 14.121094 12.417969 14.046875 C 12.320312 13.964844 12.210938 13.921875 12.105469 13.921875 L 11.46875 13.921875 L 11.46875 14.832031 Z M 12.117188 14.832031 "/>
<path style=" stroke:none;fill-rule:nonzero;fill:rgb(100%,100%,100%);fill-opacity:1;" d="M 16.257812 13.171875 C 16.289062 13.113281 16.335938 13.078125 16.40625 13.058594 C 16.472656 13.035156 16.550781 13.019531 16.644531 13.019531 C 16.742188 13.019531 16.820312 13.03125 16.882812 13.046875 C 16.945312 13.066406 16.992188 13.082031 17.019531 13.109375 C 17.050781 13.132812 17.070312 13.167969 17.082031 13.207031 C 17.105469 13.269531 17.117188 13.355469 17.117188 13.472656 L 17.117188 16.347656 C 17.117188 16.429688 17.113281 16.492188 17.105469 16.535156 C 17.105469 16.566406 17.085938 16.609375 17.054688 16.660156 C 17.011719 16.753906 16.882812 16.796875 16.65625 16.796875 C 16.523438 16.796875 16.429688 16.789062 16.382812 16.769531 C 16.332031 16.746094 16.285156 16.714844 16.242188 16.671875 C 15.476562 15.640625 14.96875 14.964844 14.71875 14.644531 L 14.71875 16.347656 C 14.71875 16.429688 14.710938 16.492188 14.707031 16.535156 C 14.707031 16.566406 14.695312 16.609375 14.667969 16.660156 C 14.617188 16.753906 14.480469 16.796875 14.257812 16.796875 C 14.046875 16.796875 13.917969 16.753906 13.867188 16.660156 C 13.84375 16.609375 13.824219 16.566406 13.820312 16.519531 C 13.820312 16.480469 13.820312 16.417969 13.820312 16.332031 L 13.820312 13.457031 C 13.820312 13.328125 13.832031 13.230469 13.855469 13.171875 C 13.886719 13.113281 13.9375 13.078125 14.007812 13.058594 C 14.070312 13.035156 14.15625 13.019531 14.257812 13.019531 C 14.363281 13.019531 14.445312 13.03125 14.507812 13.046875 C 14.5625 13.066406 14.605469 13.082031 14.632812 13.109375 C 14.648438 13.117188 14.6875 13.164062 14.757812 13.246094 C 15.480469 14.230469 15.960938 14.878906 16.207031 15.195312 L 16.207031 13.457031 C 16.207031 13.328125 16.222656 13.230469 16.257812 13.171875 Z M 16.257812 13.171875 "/>
<path style=" stroke:none;fill-rule:nonzero;fill:rgb(100%,100%,100%);fill-opacity:1;" d="M 19.496094 14.507812 L 20.410156 14.507812 C 20.589844 14.519531 20.703125 14.566406 20.746094 14.660156 C 20.777344 14.726562 20.796875 14.820312 20.796875 14.945312 L 20.796875 16.082031 C 20.796875 16.191406 20.75 16.296875 20.660156 16.394531 C 20.367188 16.695312 19.933594 16.847656 19.359375 16.847656 C 18.839844 16.847656 18.390625 16.65625 18.007812 16.269531 C 17.632812 15.878906 17.445312 15.414062 17.445312 14.871094 C 17.445312 14.320312 17.636719 13.863281 18.023438 13.496094 C 18.414062 13.128906 18.871094 12.945312 19.398438 12.945312 C 19.796875 12.945312 20.179688 13.082031 20.546875 13.347656 C 20.636719 13.414062 20.683594 13.492188 20.683594 13.582031 C 20.683594 13.667969 20.640625 13.765625 20.558594 13.871094 C 20.425781 14.054688 20.304688 14.144531 20.195312 14.144531 C 20.128906 14.144531 20.023438 14.101562 19.871094 14.007812 C 19.726562 13.910156 19.5625 13.859375 19.371094 13.859375 C 19.101562 13.859375 18.867188 13.953125 18.660156 14.132812 C 18.460938 14.316406 18.359375 14.558594 18.359375 14.859375 C 18.359375 15.160156 18.460938 15.414062 18.671875 15.621094 C 18.878906 15.832031 19.113281 15.933594 19.371094 15.933594 C 19.5625 15.933594 19.734375 15.902344 19.882812 15.832031 L 19.882812 15.269531 L 19.484375 15.269531 C 19.375 15.269531 19.296875 15.257812 19.246094 15.234375 C 19.203125 15.207031 19.175781 15.171875 19.160156 15.121094 C 19.148438 15.066406 19.148438 14.988281 19.148438 14.894531 C 19.148438 14.804688 19.152344 14.734375 19.171875 14.683594 C 19.1875 14.628906 19.210938 14.582031 19.246094 14.558594 C 19.3125 14.527344 19.398438 14.507812 19.496094 14.507812 Z M 19.496094 14.507812 "/>
</g>
</svg>
