<svg width="24" height="24" viewBox="0 0 24 24" fill="none" xmlns="http://www.w3.org/2000/svg">
<path d="M17.8844 14.6187C18.0281 14.6187 18.1438 14.5812 18.2281 14.5062C18.3188 14.4281 18.3625 14.3281 18.3625 14.2031C18.3625 14.075 18.3188 13.9719 18.2281 13.8937C18.1438 13.8156 18.0281 13.775 17.8844 13.775H17.3906C17.3719 13.775 17.3625 13.7844 17.3625 13.8062V14.5906C17.3625 14.6094 17.3719 14.6187 17.3906 14.6187H17.8844Z" fill="#323544"/>
<path fill-rule="evenodd" clip-rule="evenodd" d="M17.0813 21.2906C18.2844 21.2906 19.2594 20.3156 19.2594 19.1125V18.3937H20.225C21.0281 18.3937 21.6781 17.7437 21.6781 16.9406V12.8219C21.6781 12.0219 21.0281 11.3719 20.225 11.3719H10.5469C9.74688 11.3719 9.09688 12.0219 9.09688 12.8219V16.9406C9.09688 17.7437 9.74688 18.3937 10.5469 18.3937H17.8063V19.1125C17.8063 19.5125 17.4813 19.8375 17.0813 19.8375H6.91876C6.51876 19.8375 6.19376 19.5125 6.19376 19.1125V9.43437H10.0656C11.2688 9.43437 12.2438 8.45937 12.2438 7.25625L12.2406 3.3875H17.0813C17.4813 3.3875 17.8063 3.7125 17.8063 4.1125V11.3594H19.2594V4.1125C19.2594 2.90937 18.2844 1.93437 17.0813 1.93437H12.1125C11.5375 1.93437 10.9813 2.16562 10.575 2.575L5.37813 7.77187C4.97188 8.18125 4.74063 8.73437 4.74063 9.30937V19.1125C4.74063 20.3156 5.71563 21.2906 6.91876 21.2906H17.0813ZM10.7906 4.4125L7.21876 7.98437H10.0656C10.4656 7.98437 10.7906 7.65937 10.7906 7.25625V4.4125ZM18.0656 12.8344C18.3406 12.8344 18.5844 12.8906 18.7969 13.0031C19.0063 13.1125 19.1688 13.2719 19.2813 13.4781C19.4 13.6812 19.4563 13.9156 19.4563 14.1812C19.4563 14.4406 19.3969 14.6719 19.275 14.8687C19.1563 15.0687 18.9844 15.2219 18.7656 15.3312C18.5469 15.4406 18.2969 15.4969 18.0125 15.4969H17.3906C17.3719 15.4969 17.3625 15.5062 17.3625 15.525V16.8437C17.3625 16.8687 17.3531 16.8906 17.3375 16.9062C17.3219 16.9219 17.3031 16.9312 17.275 16.9312H16.35C16.3219 16.9312 16.3 16.9219 16.2844 16.9062C16.2688 16.8906 16.2625 16.8687 16.2625 16.8437V12.9219C16.2625 12.8937 16.2688 12.8719 16.2844 12.8562C16.3 12.8406 16.3219 12.8344 16.35 12.8344H18.0656ZM14.75 16.9062C14.7656 16.9219 14.7844 16.9312 14.8125 16.9312H15.7375C15.7656 16.9312 15.7875 16.9219 15.8031 16.9062C15.8188 16.8906 15.825 16.8687 15.825 16.8437V12.9219C15.825 12.8937 15.8188 12.8719 15.8031 12.8562C15.7875 12.8406 15.7656 12.8344 15.7375 12.8344H14.8125C14.7844 12.8344 14.7656 12.8406 14.75 12.8562C14.7344 12.8719 14.725 12.8937 14.725 12.9219V16.8437C14.725 16.8687 14.7344 16.8906 14.75 16.9062ZM11.4406 16.9312C11.4125 16.9312 11.3906 16.9219 11.375 16.9062C11.3594 16.8906 11.3531 16.8687 11.3531 16.8437V15.9937C11.3531 15.9531 11.3656 15.9187 11.3938 15.8875L13.0969 13.8125C13.1031 13.8031 13.1063 13.7969 13.1 13.7875C13.0969 13.7812 13.0906 13.775 13.0781 13.775H11.4406C11.4125 13.775 11.3906 13.7687 11.375 13.7531C11.3594 13.7375 11.3531 13.7156 11.3531 13.6875V12.9219C11.3531 12.8937 11.3594 12.8719 11.375 12.8562C11.3906 12.8406 11.4125 12.8344 11.4406 12.8344H14.2531C14.2813 12.8344 14.3031 12.8406 14.3188 12.8562C14.3344 12.8719 14.3406 12.8937 14.3406 12.9219V13.7656C14.3406 13.8125 14.3281 13.8469 14.3 13.875L12.5875 15.9531C12.5781 15.9594 12.5781 15.9687 12.5813 15.975C12.5844 15.9844 12.5906 15.9875 12.6031 15.9875H14.2531C14.2813 15.9875 14.3031 15.9969 14.3188 16.0125C14.3344 16.0281 14.3406 16.0469 14.3406 16.075V16.8437C14.3406 16.8687 14.3344 16.8906 14.3188 16.9062C14.3031 16.9219 14.2813 16.9312 14.2531 16.9312H11.4406Z" fill="#323544"/>
<mask id="mask0_35_123" style="mask-type:luminance" maskUnits="userSpaceOnUse" x="10" y="11" width="12" height="7">
<path d="M10.2594 11.6125H21.0969V18H10.2594V11.6125Z" fill="white"/>
</mask>
<g mask="url(#mask0_35_123)">
<path d="M10.2594 11.6125H21.0875V18H10.2594V11.6125Z" fill="#323544"/>
</g>
<path d="M10.9177 13.0082H13.7927C13.899 13.0082 13.9802 13.0207 14.0302 13.0457C14.0865 13.0707 14.124 13.1144 14.1427 13.1707C14.1584 13.2207 14.1677 13.2926 14.1677 13.3832C14.1677 13.4769 14.1584 13.5519 14.1427 13.6082C14.124 13.6582 14.0959 13.6926 14.0552 13.7082C13.9865 13.7426 13.899 13.7582 13.7927 13.7582H12.8052V16.3457C12.8052 16.4301 12.799 16.4926 12.7927 16.5332C12.7834 16.5676 12.7677 16.6082 12.7427 16.6582C12.7177 16.7082 12.6709 16.7457 12.6052 16.7707C12.5459 16.7894 12.4615 16.7957 12.3552 16.7957C12.2459 16.7957 12.1584 16.7894 12.0927 16.7707C12.0334 16.7457 11.9865 16.7082 11.9552 16.6582C11.9302 16.6082 11.9115 16.5676 11.9052 16.5332C11.9052 16.4926 11.9052 16.4301 11.9052 16.3457V13.7582H10.9177C10.8084 13.7582 10.724 13.7457 10.6677 13.7207C10.6177 13.6957 10.5834 13.6551 10.5677 13.5957C10.549 13.5394 10.5427 13.4676 10.5427 13.3832C10.5427 13.2926 10.549 13.2207 10.5677 13.1707C10.5834 13.1144 10.6115 13.0769 10.6552 13.0582C10.7209 13.0269 10.8084 13.0082 10.9177 13.0082Z" fill="white"/>
<path d="M14.9032 13.0082H15.8657C16.3657 13.0082 16.8032 13.1926 17.1782 13.5582C17.5532 13.9176 17.7407 14.3582 17.7407 14.8832C17.7407 15.4082 17.5563 15.8582 17.1907 16.2332C16.8219 16.6082 16.3719 16.7957 15.8407 16.7957H14.9032C14.6938 16.7957 14.5594 16.7519 14.5032 16.6582C14.4688 16.5926 14.4532 16.4832 14.4532 16.3332V13.4582C14.4532 13.3769 14.4532 13.3176 14.4532 13.2832C14.4594 13.2426 14.4782 13.1957 14.5032 13.1457C14.5532 13.0551 14.6844 13.0082 14.9032 13.0082ZM15.8657 15.8707C16.1063 15.8707 16.3282 15.7801 16.5282 15.5957C16.7282 15.4144 16.8282 15.1832 16.8282 14.9082C16.8282 14.6269 16.7313 14.3926 16.5407 14.2082C16.3469 14.0176 16.1188 13.9207 15.8532 13.9207H15.3657V15.8707H15.8657Z" fill="white"/>
<path d="M18.1367 16.2582C18.043 16.1519 17.9992 16.0551 17.9992 15.9707C17.9992 15.8801 18.0742 15.7644 18.2242 15.6207C18.3055 15.5394 18.3992 15.4957 18.4992 15.4957C18.5992 15.4957 18.7305 15.5832 18.8992 15.7582C18.9492 15.8176 19.0149 15.8707 19.0992 15.9207C19.1899 15.9707 19.2774 15.9957 19.3617 15.9957C19.6774 15.9957 19.8367 15.8676 19.8367 15.6082C19.8367 15.5332 19.7899 15.4707 19.6992 15.4207C19.6149 15.3644 19.5055 15.3207 19.3742 15.2957C19.2399 15.2707 19.0992 15.2332 18.9492 15.1832C18.7992 15.1269 18.6555 15.0644 18.5242 14.9957C18.3992 14.9207 18.2899 14.8051 18.1992 14.6457C18.1149 14.4894 18.0742 14.3019 18.0742 14.0832C18.0742 13.7769 18.1867 13.5082 18.4117 13.2832C18.6367 13.0582 18.9399 12.9457 19.3242 12.9457C19.5305 12.9457 19.718 12.9769 19.8867 13.0332C20.0617 13.0832 20.1805 13.1394 20.2492 13.1957L20.3742 13.2957C20.4805 13.3957 20.5367 13.4801 20.5367 13.5457C20.5367 13.6144 20.493 13.7082 20.4117 13.8332C20.293 14.0019 20.1742 14.0832 20.0492 14.0832C19.9805 14.0832 19.893 14.0519 19.7867 13.9832C19.7774 13.9769 19.7555 13.9582 19.7242 13.9332C19.6992 13.9019 19.6742 13.8769 19.6492 13.8582C19.5742 13.8176 19.4774 13.7957 19.3617 13.7957C19.2524 13.7957 19.1617 13.8269 19.0867 13.8832C19.0117 13.9332 18.9742 14.0082 18.9742 14.1082C18.9742 14.2019 19.0149 14.2769 19.0992 14.3332C19.1899 14.3926 19.3024 14.4332 19.4367 14.4582C19.568 14.4769 19.7117 14.5051 19.8617 14.5457C20.018 14.5894 20.1617 14.6426 20.2867 14.7082C20.418 14.7676 20.5274 14.8769 20.6117 15.0332C20.7024 15.1832 20.7492 15.3707 20.7492 15.5957C20.7492 15.8144 20.7024 16.0082 20.6117 16.1832C20.5274 16.3519 20.4149 16.4801 20.2742 16.5707C19.9899 16.7551 19.6899 16.8457 19.3742 16.8457C19.2149 16.8457 19.0617 16.8269 18.9117 16.7957C18.768 16.7551 18.6524 16.7051 18.5617 16.6457C18.3774 16.5301 18.2524 16.4207 18.1867 16.3207L18.1367 16.2582Z" fill="white"/>
</svg>
