<?xml version="1.0" encoding="UTF-8"?>
<svg xmlns="http://www.w3.org/2000/svg" xmlns:xlink="http://www.w3.org/1999/xlink" width="24px" height="24px" viewBox="0 0 24 24" version="1.1">
<defs>
<clipPath id="clip1">
  <path d="M 10.257812 11.613281 L 21.097656 11.613281 L 21.097656 18 L 10.257812 18 Z M 10.257812 11.613281 "/>
</clipPath>
</defs>
<g id="surface1">
<path style=" stroke:none;fill-rule:nonzero;fill:rgb(19.607843%,20.784314%,26.666668%);fill-opacity:1;" d="M 17.882812 14.617188 C 18.027344 14.617188 18.144531 14.582031 18.226562 14.507812 C 18.320312 14.429688 18.363281 14.328125 18.363281 14.203125 C 18.363281 14.074219 18.320312 13.972656 18.226562 13.894531 C 18.144531 13.816406 18.027344 13.773438 17.882812 13.773438 L 17.390625 13.773438 C 17.371094 13.773438 17.363281 13.785156 17.363281 13.804688 L 17.363281 14.589844 C 17.363281 14.609375 17.371094 14.617188 17.390625 14.617188 Z M 17.882812 14.617188 "/>
<path style=" stroke:none;fill-rule:evenodd;fill:rgb(19.607843%,20.784314%,26.666668%);fill-opacity:1;" d="M 17.082031 21.289062 C 18.285156 21.289062 19.257812 20.316406 19.257812 19.113281 L 19.257812 18.394531 L 20.226562 18.394531 C 21.027344 18.394531 21.679688 17.742188 21.679688 16.941406 L 21.679688 12.820312 C 21.679688 12.023438 21.027344 11.371094 20.226562 11.371094 L 10.546875 11.371094 C 9.746094 11.371094 9.097656 12.023438 9.097656 12.820312 L 9.097656 16.941406 C 9.097656 17.742188 9.746094 18.394531 10.546875 18.394531 L 17.804688 18.394531 L 17.804688 19.113281 C 17.804688 19.511719 17.480469 19.835938 17.082031 19.835938 L 6.917969 19.835938 C 6.519531 19.835938 6.195312 19.511719 6.195312 19.113281 L 6.195312 9.433594 L 10.066406 9.433594 C 11.269531 9.433594 12.242188 8.460938 12.242188 7.257812 L 12.242188 3.386719 L 17.082031 3.386719 C 17.480469 3.386719 17.804688 3.710938 17.804688 4.113281 L 17.804688 11.359375 L 19.257812 11.359375 L 19.257812 4.113281 C 19.257812 2.910156 18.285156 1.933594 17.082031 1.933594 L 12.113281 1.933594 C 11.539062 1.933594 10.980469 2.164062 10.574219 2.574219 L 5.378906 7.773438 C 4.972656 8.179688 4.742188 8.734375 4.742188 9.308594 L 4.742188 19.113281 C 4.742188 20.316406 5.714844 21.289062 6.917969 21.289062 Z M 10.789062 4.414062 L 7.21875 7.984375 L 10.066406 7.984375 C 10.464844 7.984375 10.789062 7.660156 10.789062 7.257812 Z M 18.066406 12.835938 C 18.339844 12.835938 18.585938 12.890625 18.796875 13.003906 C 19.007812 13.113281 19.167969 13.273438 19.28125 13.476562 C 19.398438 13.679688 19.457031 13.914062 19.457031 14.179688 C 19.457031 14.441406 19.398438 14.671875 19.273438 14.867188 C 19.15625 15.070312 18.984375 15.222656 18.765625 15.332031 C 18.546875 15.441406 18.296875 15.496094 18.011719 15.496094 L 17.390625 15.496094 C 17.371094 15.496094 17.363281 15.507812 17.363281 15.523438 L 17.363281 16.84375 C 17.363281 16.867188 17.351562 16.890625 17.335938 16.90625 C 17.320312 16.921875 17.304688 16.929688 17.273438 16.929688 L 16.351562 16.929688 C 16.320312 16.929688 16.300781 16.921875 16.285156 16.90625 C 16.269531 16.890625 16.261719 16.867188 16.261719 16.84375 L 16.261719 12.921875 C 16.261719 12.894531 16.269531 12.871094 16.285156 12.855469 C 16.300781 12.839844 16.320312 12.835938 16.351562 12.835938 Z M 14.75 16.90625 C 14.765625 16.921875 14.785156 16.929688 14.8125 16.929688 L 15.738281 16.929688 C 15.765625 16.929688 15.789062 16.921875 15.804688 16.90625 C 15.820312 16.890625 15.824219 16.867188 15.824219 16.84375 L 15.824219 12.921875 C 15.824219 12.894531 15.820312 12.871094 15.804688 12.855469 C 15.789062 12.839844 15.765625 12.835938 15.738281 12.835938 L 14.8125 12.835938 C 14.785156 12.835938 14.765625 12.839844 14.75 12.855469 C 14.734375 12.871094 14.726562 12.894531 14.726562 12.921875 L 14.726562 16.84375 C 14.726562 16.867188 14.734375 16.890625 14.75 16.90625 Z M 11.441406 16.929688 C 11.414062 16.929688 11.390625 16.921875 11.375 16.90625 C 11.359375 16.890625 11.351562 16.867188 11.351562 16.84375 L 11.351562 15.992188 C 11.351562 15.953125 11.367188 15.917969 11.394531 15.886719 L 13.097656 13.8125 C 13.101562 13.804688 13.105469 13.796875 13.101562 13.789062 C 13.097656 13.78125 13.089844 13.773438 13.078125 13.773438 L 11.441406 13.773438 C 11.414062 13.773438 11.390625 13.769531 11.375 13.753906 C 11.359375 13.738281 11.351562 13.714844 11.351562 13.6875 L 11.351562 12.921875 C 11.351562 12.894531 11.359375 12.871094 11.375 12.855469 C 11.390625 12.839844 11.414062 12.835938 11.441406 12.835938 L 14.253906 12.835938 C 14.28125 12.835938 14.304688 12.839844 14.320312 12.855469 C 14.335938 12.871094 14.339844 12.894531 14.339844 12.921875 L 14.339844 13.765625 C 14.339844 13.8125 14.328125 13.847656 14.300781 13.875 L 12.585938 15.953125 C 12.578125 15.960938 12.578125 15.96875 12.582031 15.976562 C 12.585938 15.984375 12.589844 15.988281 12.601562 15.988281 L 14.253906 15.988281 C 14.28125 15.988281 14.304688 15.996094 14.320312 16.011719 C 14.335938 16.027344 14.339844 16.046875 14.339844 16.074219 L 14.339844 16.84375 C 14.339844 16.867188 14.335938 16.890625 14.320312 16.90625 C 14.304688 16.921875 14.28125 16.929688 14.253906 16.929688 Z M 11.441406 16.929688 "/>
<g clip-path="url(#clip1)" clip-rule="nonzero">
<path style=" stroke:none;fill-rule:nonzero;fill:rgb(19.607843%,20.784314%,26.666668%);fill-opacity:1;" d="M 10.257812 11.613281 L 21.085938 11.613281 L 21.085938 18 L 10.257812 18 Z M 10.257812 11.613281 "/>
</g>
<path style=" stroke:none;fill-rule:nonzero;fill:rgb(100%,100%,100%);fill-opacity:1;" d="M 10.175781 12.738281 L 13.050781 12.738281 C 13.15625 12.738281 13.238281 12.75 13.289062 12.777344 C 13.34375 12.800781 13.382812 12.84375 13.402344 12.902344 C 13.417969 12.953125 13.425781 13.023438 13.425781 13.113281 C 13.425781 13.207031 13.417969 13.28125 13.402344 13.339844 C 13.382812 13.390625 13.355469 13.421875 13.3125 13.4375 C 13.246094 13.472656 13.15625 13.488281 13.050781 13.488281 L 12.0625 13.488281 L 12.0625 16.078125 C 12.0625 16.160156 12.058594 16.222656 12.050781 16.265625 C 12.042969 16.296875 12.027344 16.339844 12 16.390625 C 11.976562 16.4375 11.929688 16.476562 11.863281 16.5 C 11.804688 16.519531 11.71875 16.527344 11.613281 16.527344 C 11.503906 16.527344 11.417969 16.519531 11.351562 16.5 C 11.292969 16.476562 11.246094 16.4375 11.214844 16.390625 C 11.1875 16.339844 11.167969 16.296875 11.164062 16.265625 C 11.164062 16.222656 11.164062 16.160156 11.164062 16.078125 L 11.164062 13.488281 L 10.175781 13.488281 C 10.066406 13.488281 9.980469 13.476562 9.925781 13.453125 C 9.875 13.425781 9.839844 13.386719 9.824219 13.328125 C 9.808594 13.269531 9.800781 13.199219 9.800781 13.113281 C 9.800781 13.023438 9.808594 12.953125 9.824219 12.902344 C 9.839844 12.84375 9.871094 12.808594 9.914062 12.789062 C 9.980469 12.757812 10.066406 12.738281 10.175781 12.738281 Z M 10.175781 12.738281 "/>
<path style=" stroke:none;fill-rule:nonzero;fill:rgb(100%,100%,100%);fill-opacity:1;" d="M 16.035156 14.613281 L 17.074219 15.75 C 17.1875 15.886719 17.25 16 17.25 16.089844 C 17.25 16.171875 17.179688 16.277344 17.046875 16.402344 C 16.914062 16.519531 16.800781 16.578125 16.710938 16.578125 C 16.617188 16.578125 16.515625 16.511719 16.398438 16.375 L 15.410156 15.25 L 14.4375 16.375 C 14.3125 16.511719 14.203125 16.578125 14.109375 16.578125 C 14.027344 16.578125 13.914062 16.519531 13.773438 16.402344 C 13.640625 16.277344 13.574219 16.171875 13.574219 16.089844 C 13.574219 16 13.636719 15.886719 13.761719 15.75 L 14.796875 14.613281 L 13.761719 13.476562 C 13.636719 13.34375 13.574219 13.234375 13.574219 13.152344 C 13.574219 13.0625 13.640625 12.953125 13.773438 12.828125 C 13.90625 12.703125 14.015625 12.640625 14.109375 12.640625 C 14.203125 12.640625 14.3125 12.710938 14.4375 12.851562 L 15.410156 13.976562 L 16.398438 12.851562 C 16.523438 12.710938 16.625 12.640625 16.710938 12.640625 C 16.800781 12.640625 16.914062 12.703125 17.046875 12.828125 C 17.179688 12.945312 17.25 13.050781 17.25 13.152344 C 17.25 13.246094 17.1875 13.351562 17.074219 13.476562 Z M 16.035156 14.613281 "/>
<path style=" stroke:none;fill-rule:nonzero;fill:rgb(100%,100%,100%);fill-opacity:1;" d="M 17.773438 12.738281 L 20.648438 12.738281 C 20.753906 12.738281 20.835938 12.75 20.886719 12.777344 C 20.941406 12.800781 20.980469 12.84375 21 12.902344 C 21.015625 12.953125 21.023438 13.023438 21.023438 13.113281 C 21.023438 13.207031 21.015625 13.28125 21 13.339844 C 20.980469 13.390625 20.953125 13.421875 20.910156 13.4375 C 20.84375 13.472656 20.753906 13.488281 20.648438 13.488281 L 19.660156 13.488281 L 19.660156 16.078125 C 19.660156 16.160156 19.65625 16.222656 19.648438 16.265625 C 19.640625 16.296875 19.625 16.339844 19.597656 16.390625 C 19.574219 16.4375 19.527344 16.476562 19.460938 16.5 C 19.402344 16.519531 19.316406 16.527344 19.210938 16.527344 C 19.101562 16.527344 19.015625 16.519531 18.949219 16.5 C 18.890625 16.476562 18.84375 16.4375 18.8125 16.390625 C 18.785156 16.339844 18.765625 16.296875 18.761719 16.265625 C 18.761719 16.222656 18.761719 16.160156 18.761719 16.078125 L 18.761719 13.488281 L 17.773438 13.488281 C 17.664062 13.488281 17.578125 13.476562 17.523438 13.453125 C 17.472656 13.425781 17.4375 13.386719 17.421875 13.328125 C 17.40625 13.269531 17.398438 13.199219 17.398438 13.113281 C 17.398438 13.023438 17.40625 12.953125 17.421875 12.902344 C 17.4375 12.84375 17.46875 12.808594 17.511719 12.789062 C 17.578125 12.757812 17.664062 12.738281 17.773438 12.738281 Z M 17.773438 12.738281 "/>
</g>
</svg>
