<?xml version="1.0" encoding="UTF-8"?>
<svg xmlns="http://www.w3.org/2000/svg" xmlns:xlink="http://www.w3.org/1999/xlink" width="24px" height="24px" viewBox="0 0 24 24" version="1.1">
<defs>
<clipPath id="clip1">
  <path d="M 10.257812 11.613281 L 21.097656 11.613281 L 21.097656 18 L 10.257812 18 Z M 10.257812 11.613281 "/>
</clipPath>
</defs>
<g id="surface1">
<path style=" stroke:none;fill-rule:nonzero;fill:rgb(19.607843%,20.784314%,26.666668%);fill-opacity:1;" d="M 17.882812 14.617188 C 18.027344 14.617188 18.144531 14.582031 18.226562 14.507812 C 18.320312 14.429688 18.363281 14.328125 18.363281 14.203125 C 18.363281 14.074219 18.320312 13.972656 18.226562 13.894531 C 18.144531 13.816406 18.027344 13.773438 17.882812 13.773438 L 17.390625 13.773438 C 17.371094 13.773438 17.363281 13.785156 17.363281 13.804688 L 17.363281 14.589844 C 17.363281 14.609375 17.371094 14.617188 17.390625 14.617188 Z M 17.882812 14.617188 "/>
<path style=" stroke:none;fill-rule:evenodd;fill:rgb(19.607843%,20.784314%,26.666668%);fill-opacity:1;" d="M 17.082031 21.289062 C 18.285156 21.289062 19.257812 20.316406 19.257812 19.113281 L 19.257812 18.394531 L 20.226562 18.394531 C 21.027344 18.394531 21.679688 17.742188 21.679688 16.941406 L 21.679688 12.820312 C 21.679688 12.023438 21.027344 11.371094 20.226562 11.371094 L 10.546875 11.371094 C 9.746094 11.371094 9.097656 12.023438 9.097656 12.820312 L 9.097656 16.941406 C 9.097656 17.742188 9.746094 18.394531 10.546875 18.394531 L 17.804688 18.394531 L 17.804688 19.113281 C 17.804688 19.511719 17.480469 19.835938 17.082031 19.835938 L 6.917969 19.835938 C 6.519531 19.835938 6.195312 19.511719 6.195312 19.113281 L 6.195312 9.433594 L 10.066406 9.433594 C 11.269531 9.433594 12.242188 8.460938 12.242188 7.257812 L 12.242188 3.386719 L 17.082031 3.386719 C 17.480469 3.386719 17.804688 3.710938 17.804688 4.113281 L 17.804688 11.359375 L 19.257812 11.359375 L 19.257812 4.113281 C 19.257812 2.910156 18.285156 1.933594 17.082031 1.933594 L 12.113281 1.933594 C 11.539062 1.933594 10.980469 2.164062 10.574219 2.574219 L 5.378906 7.773438 C 4.972656 8.179688 4.742188 8.734375 4.742188 9.308594 L 4.742188 19.113281 C 4.742188 20.316406 5.714844 21.289062 6.917969 21.289062 Z M 10.789062 4.414062 L 7.21875 7.984375 L 10.066406 7.984375 C 10.464844 7.984375 10.789062 7.660156 10.789062 7.257812 Z M 18.066406 12.835938 C 18.339844 12.835938 18.585938 12.890625 18.796875 13.003906 C 19.007812 13.113281 19.167969 13.273438 19.28125 13.476562 C 19.398438 13.679688 19.457031 13.914062 19.457031 14.179688 C 19.457031 14.441406 19.398438 14.671875 19.273438 14.867188 C 19.15625 15.070312 18.984375 15.222656 18.765625 15.332031 C 18.546875 15.441406 18.296875 15.496094 18.011719 15.496094 L 17.390625 15.496094 C 17.371094 15.496094 17.363281 15.507812 17.363281 15.523438 L 17.363281 16.84375 C 17.363281 16.867188 17.351562 16.890625 17.335938 16.90625 C 17.320312 16.921875 17.304688 16.929688 17.273438 16.929688 L 16.351562 16.929688 C 16.320312 16.929688 16.300781 16.921875 16.285156 16.90625 C 16.269531 16.890625 16.261719 16.867188 16.261719 16.84375 L 16.261719 12.921875 C 16.261719 12.894531 16.269531 12.871094 16.285156 12.855469 C 16.300781 12.839844 16.320312 12.835938 16.351562 12.835938 Z M 14.75 16.90625 C 14.765625 16.921875 14.785156 16.929688 14.8125 16.929688 L 15.738281 16.929688 C 15.765625 16.929688 15.789062 16.921875 15.804688 16.90625 C 15.820312 16.890625 15.824219 16.867188 15.824219 16.84375 L 15.824219 12.921875 C 15.824219 12.894531 15.820312 12.871094 15.804688 12.855469 C 15.789062 12.839844 15.765625 12.835938 15.738281 12.835938 L 14.8125 12.835938 C 14.785156 12.835938 14.765625 12.839844 14.75 12.855469 C 14.734375 12.871094 14.726562 12.894531 14.726562 12.921875 L 14.726562 16.84375 C 14.726562 16.867188 14.734375 16.890625 14.75 16.90625 Z M 11.441406 16.929688 C 11.414062 16.929688 11.390625 16.921875 11.375 16.90625 C 11.359375 16.890625 11.351562 16.867188 11.351562 16.84375 L 11.351562 15.992188 C 11.351562 15.953125 11.367188 15.917969 11.394531 15.886719 L 13.097656 13.8125 C 13.101562 13.804688 13.105469 13.796875 13.101562 13.789062 C 13.097656 13.78125 13.089844 13.773438 13.078125 13.773438 L 11.441406 13.773438 C 11.414062 13.773438 11.390625 13.769531 11.375 13.753906 C 11.359375 13.738281 11.351562 13.714844 11.351562 13.6875 L 11.351562 12.921875 C 11.351562 12.894531 11.359375 12.871094 11.375 12.855469 C 11.390625 12.839844 11.414062 12.835938 11.441406 12.835938 L 14.253906 12.835938 C 14.28125 12.835938 14.304688 12.839844 14.320312 12.855469 C 14.335938 12.871094 14.339844 12.894531 14.339844 12.921875 L 14.339844 13.765625 C 14.339844 13.8125 14.328125 13.847656 14.300781 13.875 L 12.585938 15.953125 C 12.578125 15.960938 12.578125 15.96875 12.582031 15.976562 C 12.585938 15.984375 12.589844 15.988281 12.601562 15.988281 L 14.253906 15.988281 C 14.28125 15.988281 14.304688 15.996094 14.320312 16.011719 C 14.335938 16.027344 14.339844 16.046875 14.339844 16.074219 L 14.339844 16.84375 C 14.339844 16.867188 14.335938 16.890625 14.320312 16.90625 C 14.304688 16.921875 14.28125 16.929688 14.253906 16.929688 Z M 11.441406 16.929688 "/>
<g clip-path="url(#clip1)" clip-rule="nonzero">
<path style=" stroke:none;fill-rule:nonzero;fill:rgb(19.607843%,20.784314%,26.666668%);fill-opacity:1;" d="M 10.257812 11.613281 L 21.085938 11.613281 L 21.085938 18 L 10.257812 18 Z M 10.257812 11.613281 "/>
</g>
<path style=" stroke:none;fill-rule:nonzero;fill:rgb(100%,100%,100%);fill-opacity:1;" d="M 14.496094 13.15625 C 14.527344 13.207031 14.546875 13.253906 14.546875 13.296875 C 14.554688 13.339844 14.558594 13.394531 14.558594 13.46875 L 14.558594 16.34375 C 14.558594 16.578125 14.492188 16.71875 14.359375 16.757812 C 14.289062 16.78125 14.210938 16.796875 14.109375 16.796875 C 14.007812 16.796875 13.929688 16.789062 13.871094 16.769531 C 13.8125 16.746094 13.765625 16.726562 13.734375 16.707031 C 13.710938 16.683594 13.6875 16.644531 13.671875 16.59375 C 13.652344 16.539062 13.648438 16.453125 13.648438 16.332031 L 13.648438 14.59375 C 13.554688 14.703125 13.425781 14.875 13.257812 15.109375 C 13.101562 15.34375 12.996094 15.488281 12.945312 15.546875 C 12.902344 15.605469 12.875 15.644531 12.859375 15.671875 C 12.839844 15.6875 12.800781 15.71875 12.734375 15.757812 C 12.664062 15.800781 12.589844 15.820312 12.507812 15.820312 C 12.433594 15.820312 12.363281 15.804688 12.296875 15.769531 C 12.238281 15.730469 12.195312 15.691406 12.171875 15.65625 L 12.121094 15.609375 C 12.054688 15.515625 11.914062 15.332031 11.710938 15.058594 C 11.507812 14.777344 11.398438 14.621094 11.382812 14.59375 L 11.382812 16.34375 C 11.382812 16.421875 11.378906 16.480469 11.371094 16.519531 C 11.371094 16.5625 11.359375 16.605469 11.335938 16.644531 C 11.273438 16.746094 11.136719 16.796875 10.921875 16.796875 C 10.710938 16.796875 10.585938 16.746094 10.535156 16.644531 C 10.507812 16.605469 10.492188 16.5625 10.484375 16.519531 C 10.484375 16.480469 10.484375 16.417969 10.484375 16.332031 L 10.484375 13.46875 C 10.484375 13.390625 10.484375 13.328125 10.484375 13.296875 C 10.492188 13.253906 10.507812 13.203125 10.535156 13.144531 C 10.585938 13.0625 10.714844 13.019531 10.933594 13.019531 C 11.023438 13.019531 11.101562 13.03125 11.171875 13.058594 C 11.246094 13.078125 11.289062 13.09375 11.308594 13.121094 L 11.335938 13.144531 L 12.507812 14.683594 C 13.089844 13.917969 13.484375 13.40625 13.683594 13.15625 C 13.742188 13.066406 13.878906 13.019531 14.097656 13.019531 C 14.3125 13.019531 14.445312 13.066406 14.496094 13.15625 Z M 14.496094 13.15625 "/>
<path style=" stroke:none;fill-rule:nonzero;fill:rgb(100%,100%,100%);fill-opacity:1;" d="M 17.761719 13.78125 C 17.851562 13.957031 17.898438 14.15625 17.898438 14.382812 C 17.898438 14.609375 17.851562 14.8125 17.761719 14.996094 C 17.667969 15.171875 17.550781 15.3125 17.410156 15.421875 C 17.128906 15.644531 16.832031 15.757812 16.523438 15.757812 L 15.886719 15.757812 L 15.886719 16.332031 C 15.886719 16.417969 15.878906 16.480469 15.875 16.519531 C 15.863281 16.554688 15.847656 16.59375 15.824219 16.644531 C 15.773438 16.746094 15.640625 16.796875 15.425781 16.796875 C 15.179688 16.796875 15.039062 16.730469 15 16.59375 C 14.980469 16.539062 14.972656 16.453125 14.972656 16.332031 L 14.972656 13.46875 C 14.972656 13.390625 14.972656 13.328125 14.972656 13.296875 C 14.980469 13.253906 15 13.203125 15.023438 13.144531 C 15.074219 13.054688 15.207031 13.007812 15.425781 13.007812 L 16.535156 13.007812 C 16.835938 13.007812 17.128906 13.121094 17.410156 13.34375 C 17.550781 13.453125 17.667969 13.601562 17.761719 13.78125 Z M 16.535156 14.832031 C 16.636719 14.832031 16.738281 14.796875 16.835938 14.71875 C 16.9375 14.644531 16.988281 14.53125 16.988281 14.382812 C 16.988281 14.234375 16.9375 14.121094 16.835938 14.046875 C 16.738281 13.964844 16.628906 13.921875 16.523438 13.921875 L 15.886719 13.921875 L 15.886719 14.832031 Z M 16.535156 14.832031 "/>
<path style=" stroke:none;fill-rule:nonzero;fill:rgb(100%,100%,100%);fill-opacity:1;" d="M 20.011719 13.132812 C 20.035156 13.082031 20.078125 13.050781 20.148438 13.03125 C 20.214844 13.015625 20.300781 13.007812 20.410156 13.007812 C 20.515625 13.007812 20.605469 13.019531 20.671875 13.046875 C 20.738281 13.0625 20.785156 13.09375 20.8125 13.144531 C 20.84375 13.195312 20.859375 13.242188 20.859375 13.28125 C 20.867188 13.328125 20.875 13.390625 20.875 13.46875 L 20.875 16.332031 C 20.875 16.46875 20.855469 16.566406 20.824219 16.632812 C 20.789062 16.703125 20.738281 16.746094 20.671875 16.769531 C 20.605469 16.789062 20.523438 16.796875 20.421875 16.796875 C 20.324219 16.796875 20.242188 16.789062 20.1875 16.769531 C 20.125 16.746094 20.078125 16.726562 20.046875 16.707031 C 20.023438 16.683594 20 16.644531 19.984375 16.59375 C 19.960938 16.539062 19.949219 16.453125 19.949219 16.332031 L 19.949219 15.695312 L 18.5625 15.695312 C 18.316406 15.695312 18.171875 15.632812 18.125 15.507812 C 18.105469 15.453125 18.097656 15.375 18.097656 15.28125 C 18.097656 15.191406 18.101562 15.121094 18.109375 15.070312 L 18.546875 13.34375 C 18.5625 13.269531 18.578125 13.214844 18.597656 13.171875 C 18.613281 13.128906 18.640625 13.09375 18.6875 13.058594 C 18.734375 13.015625 18.792969 12.996094 18.859375 12.996094 C 18.9375 12.996094 19.015625 13.007812 19.109375 13.03125 C 19.351562 13.09375 19.472656 13.203125 19.472656 13.359375 C 19.472656 13.417969 19.460938 13.488281 19.4375 13.570312 C 19.425781 13.578125 19.421875 13.589844 19.421875 13.59375 L 19.109375 14.84375 L 19.949219 14.84375 L 19.949219 13.445312 C 19.949219 13.363281 19.953125 13.304688 19.960938 13.269531 C 19.96875 13.230469 19.984375 13.183594 20.011719 13.132812 Z M 20.011719 13.132812 "/>
</g>
</svg>
