<?xml version="1.0" encoding="UTF-8"?>
<svg xmlns="http://www.w3.org/2000/svg" xmlns:xlink="http://www.w3.org/1999/xlink" width="24px" height="24px" viewBox="0 0 24 24" version="1.1">
<defs>
<clipPath id="clip1">
  <path d="M 10.257812 11.613281 L 21.097656 11.613281 L 21.097656 18 L 10.257812 18 Z M 10.257812 11.613281 "/>
</clipPath>
</defs>
<g id="surface1">
<path style=" stroke:none;fill-rule:nonzero;fill:rgb(19.607843%,20.784314%,26.666668%);fill-opacity:1;" d="M 17.882812 14.617188 C 18.027344 14.617188 18.144531 14.582031 18.226562 14.507812 C 18.320312 14.429688 18.363281 14.328125 18.363281 14.203125 C 18.363281 14.074219 18.320312 13.972656 18.226562 13.894531 C 18.144531 13.816406 18.027344 13.773438 17.882812 13.773438 L 17.390625 13.773438 C 17.371094 13.773438 17.363281 13.785156 17.363281 13.804688 L 17.363281 14.589844 C 17.363281 14.609375 17.371094 14.617188 17.390625 14.617188 Z M 17.882812 14.617188 "/>
<path style=" stroke:none;fill-rule:evenodd;fill:rgb(19.607843%,20.784314%,26.666668%);fill-opacity:1;" d="M 17.082031 21.289062 C 18.285156 21.289062 19.257812 20.316406 19.257812 19.113281 L 19.257812 18.394531 L 20.226562 18.394531 C 21.027344 18.394531 21.679688 17.742188 21.679688 16.941406 L 21.679688 12.820312 C 21.679688 12.023438 21.027344 11.371094 20.226562 11.371094 L 10.546875 11.371094 C 9.746094 11.371094 9.097656 12.023438 9.097656 12.820312 L 9.097656 16.941406 C 9.097656 17.742188 9.746094 18.394531 10.546875 18.394531 L 17.804688 18.394531 L 17.804688 19.113281 C 17.804688 19.511719 17.480469 19.835938 17.082031 19.835938 L 6.917969 19.835938 C 6.519531 19.835938 6.195312 19.511719 6.195312 19.113281 L 6.195312 9.433594 L 10.066406 9.433594 C 11.269531 9.433594 12.242188 8.460938 12.242188 7.257812 L 12.242188 3.386719 L 17.082031 3.386719 C 17.480469 3.386719 17.804688 3.710938 17.804688 4.113281 L 17.804688 11.359375 L 19.257812 11.359375 L 19.257812 4.113281 C 19.257812 2.910156 18.285156 1.933594 17.082031 1.933594 L 12.113281 1.933594 C 11.539062 1.933594 10.980469 2.164062 10.574219 2.574219 L 5.378906 7.773438 C 4.972656 8.179688 4.742188 8.734375 4.742188 9.308594 L 4.742188 19.113281 C 4.742188 20.316406 5.714844 21.289062 6.917969 21.289062 Z M 10.789062 4.414062 L 7.21875 7.984375 L 10.066406 7.984375 C 10.464844 7.984375 10.789062 7.660156 10.789062 7.257812 Z M 18.066406 12.835938 C 18.339844 12.835938 18.585938 12.890625 18.796875 13.003906 C 19.007812 13.113281 19.167969 13.273438 19.28125 13.476562 C 19.398438 13.679688 19.457031 13.914062 19.457031 14.179688 C 19.457031 14.441406 19.398438 14.671875 19.273438 14.867188 C 19.15625 15.070312 18.984375 15.222656 18.765625 15.332031 C 18.546875 15.441406 18.296875 15.496094 18.011719 15.496094 L 17.390625 15.496094 C 17.371094 15.496094 17.363281 15.507812 17.363281 15.523438 L 17.363281 16.84375 C 17.363281 16.867188 17.351562 16.890625 17.335938 16.90625 C 17.320312 16.921875 17.304688 16.929688 17.273438 16.929688 L 16.351562 16.929688 C 16.320312 16.929688 16.300781 16.921875 16.285156 16.90625 C 16.269531 16.890625 16.261719 16.867188 16.261719 16.84375 L 16.261719 12.921875 C 16.261719 12.894531 16.269531 12.871094 16.285156 12.855469 C 16.300781 12.839844 16.320312 12.835938 16.351562 12.835938 Z M 14.75 16.90625 C 14.765625 16.921875 14.785156 16.929688 14.8125 16.929688 L 15.738281 16.929688 C 15.765625 16.929688 15.789062 16.921875 15.804688 16.90625 C 15.820312 16.890625 15.824219 16.867188 15.824219 16.84375 L 15.824219 12.921875 C 15.824219 12.894531 15.820312 12.871094 15.804688 12.855469 C 15.789062 12.839844 15.765625 12.835938 15.738281 12.835938 L 14.8125 12.835938 C 14.785156 12.835938 14.765625 12.839844 14.75 12.855469 C 14.734375 12.871094 14.726562 12.894531 14.726562 12.921875 L 14.726562 16.84375 C 14.726562 16.867188 14.734375 16.890625 14.75 16.90625 Z M 11.441406 16.929688 C 11.414062 16.929688 11.390625 16.921875 11.375 16.90625 C 11.359375 16.890625 11.351562 16.867188 11.351562 16.84375 L 11.351562 15.992188 C 11.351562 15.953125 11.367188 15.917969 11.394531 15.886719 L 13.097656 13.8125 C 13.101562 13.804688 13.105469 13.796875 13.101562 13.789062 C 13.097656 13.78125 13.089844 13.773438 13.078125 13.773438 L 11.441406 13.773438 C 11.414062 13.773438 11.390625 13.769531 11.375 13.753906 C 11.359375 13.738281 11.351562 13.714844 11.351562 13.6875 L 11.351562 12.921875 C 11.351562 12.894531 11.359375 12.871094 11.375 12.855469 C 11.390625 12.839844 11.414062 12.835938 11.441406 12.835938 L 14.253906 12.835938 C 14.28125 12.835938 14.304688 12.839844 14.320312 12.855469 C 14.335938 12.871094 14.339844 12.894531 14.339844 12.921875 L 14.339844 13.765625 C 14.339844 13.8125 14.328125 13.847656 14.300781 13.875 L 12.585938 15.953125 C 12.578125 15.960938 12.578125 15.96875 12.582031 15.976562 C 12.585938 15.984375 12.589844 15.988281 12.601562 15.988281 L 14.253906 15.988281 C 14.28125 15.988281 14.304688 15.996094 14.320312 16.011719 C 14.335938 16.027344 14.339844 16.046875 14.339844 16.074219 L 14.339844 16.84375 C 14.339844 16.867188 14.335938 16.890625 14.320312 16.90625 C 14.304688 16.921875 14.28125 16.929688 14.253906 16.929688 Z M 11.441406 16.929688 "/>
<g clip-path="url(#clip1)" clip-rule="nonzero">
<path style=" stroke:none;fill-rule:nonzero;fill:rgb(19.607843%,20.784314%,26.666668%);fill-opacity:1;" d="M 10.257812 11.613281 L 21.085938 11.613281 L 21.085938 18 L 10.257812 18 Z M 10.257812 11.613281 "/>
</g>
<path style=" stroke:none;fill-rule:nonzero;fill:rgb(100%,100%,100%);fill-opacity:1;" d="M 13.53125 13.230469 C 13.707031 13.300781 13.792969 13.386719 13.792969 13.492188 C 13.792969 13.527344 13.777344 13.589844 13.746094 13.679688 L 12.980469 15.894531 C 12.972656 15.914062 12.960938 15.929688 12.945312 15.957031 C 12.933594 15.980469 12.902344 16.019531 12.84375 16.070312 C 12.792969 16.113281 12.726562 16.132812 12.644531 16.132812 C 12.570312 16.132812 12.5 16.113281 12.445312 16.070312 C 12.386719 16.019531 12.347656 15.976562 12.332031 15.929688 L 11.871094 14.554688 C 11.570312 15.429688 11.414062 15.878906 11.40625 15.894531 C 11.40625 15.914062 11.398438 15.9375 11.382812 15.96875 C 11.363281 15.992188 11.34375 16.015625 11.320312 16.03125 C 11.25 16.101562 11.175781 16.132812 11.09375 16.132812 C 11.011719 16.132812 10.9375 16.113281 10.882812 16.070312 C 10.832031 16.027344 10.796875 15.988281 10.78125 15.945312 L 10.757812 15.894531 L 9.980469 13.679688 C 9.957031 13.601562 9.945312 13.539062 9.945312 13.492188 C 9.945312 13.386719 10.03125 13.304688 10.207031 13.242188 C 10.28125 13.210938 10.347656 13.195312 10.40625 13.195312 C 10.472656 13.195312 10.523438 13.214844 10.558594 13.257812 C 10.589844 13.300781 10.621094 13.367188 10.644531 13.457031 L 11.082031 14.78125 L 11.519531 13.480469 C 11.550781 13.367188 11.621094 13.289062 11.71875 13.242188 C 11.761719 13.226562 11.8125 13.21875 11.882812 13.21875 C 11.957031 13.21875 12.023438 13.242188 12.082031 13.28125 C 12.136719 13.324219 12.171875 13.367188 12.183594 13.40625 L 12.644531 14.792969 L 13.082031 13.457031 C 13.105469 13.398438 13.121094 13.355469 13.132812 13.332031 C 13.148438 13.300781 13.171875 13.269531 13.207031 13.242188 C 13.238281 13.210938 13.28125 13.195312 13.332031 13.195312 C 13.386719 13.195312 13.457031 13.207031 13.53125 13.230469 Z M 13.53125 13.230469 "/>
<path style=" stroke:none;fill-rule:nonzero;fill:rgb(100%,100%,100%);fill-opacity:1;" d="M 14.714844 15.429688 L 15.941406 15.429688 C 15.996094 15.429688 16.042969 15.4375 16.078125 15.445312 C 16.109375 15.445312 16.144531 15.453125 16.179688 15.46875 C 16.253906 15.511719 16.292969 15.617188 16.292969 15.78125 C 16.292969 15.964844 16.242188 16.074219 16.140625 16.105469 C 16.097656 16.125 16.03125 16.132812 15.941406 16.132812 L 14.367188 16.132812 C 14.171875 16.132812 14.066406 16.082031 14.042969 15.980469 C 14.023438 15.941406 14.015625 15.875 14.015625 15.78125 L 14.015625 13.570312 C 14.015625 13.4375 14.042969 13.34375 14.089844 13.292969 C 14.140625 13.242188 14.234375 13.21875 14.378906 13.21875 L 15.941406 13.21875 C 15.996094 13.21875 16.042969 13.226562 16.078125 13.230469 C 16.109375 13.230469 16.144531 13.242188 16.179688 13.257812 C 16.253906 13.300781 16.292969 13.402344 16.292969 13.570312 C 16.292969 13.753906 16.242188 13.863281 16.140625 13.894531 C 16.097656 13.914062 16.03125 13.917969 15.941406 13.917969 L 14.714844 13.917969 L 14.714844 14.320312 L 15.503906 14.320312 C 15.558594 14.320312 15.605469 14.324219 15.640625 14.332031 C 15.671875 14.332031 15.707031 14.34375 15.742188 14.367188 C 15.816406 14.402344 15.855469 14.507812 15.855469 14.679688 C 15.855469 14.867188 15.804688 14.976562 15.703125 15.007812 C 15.652344 15.023438 15.582031 15.03125 15.492188 15.03125 L 14.714844 15.03125 Z M 14.714844 15.429688 "/>
<path style=" stroke:none;fill-rule:nonzero;fill:rgb(100%,100%,100%);fill-opacity:1;" d="M 18.628906 14.570312 C 18.777344 14.753906 18.851562 14.960938 18.851562 15.195312 C 18.851562 15.460938 18.765625 15.6875 18.589844 15.867188 C 18.414062 16.042969 18.195312 16.132812 17.941406 16.132812 L 16.902344 16.132812 C 16.707031 16.132812 16.601562 16.082031 16.578125 15.980469 C 16.558594 15.929688 16.550781 15.863281 16.550781 15.769531 L 16.550781 13.570312 C 16.550781 13.503906 16.550781 13.457031 16.550781 13.429688 C 16.558594 13.398438 16.570312 13.363281 16.589844 13.320312 C 16.628906 13.253906 16.734375 13.21875 16.902344 13.21875 L 17.902344 13.21875 C 18.144531 13.21875 18.347656 13.304688 18.515625 13.46875 C 18.691406 13.644531 18.777344 13.851562 18.777344 14.09375 C 18.777344 14.269531 18.726562 14.429688 18.628906 14.570312 Z M 18.152344 15.15625 C 18.152344 15.089844 18.144531 15.039062 18.128906 15.007812 C 18.117188 14.964844 18.097656 14.9375 18.066406 14.917969 C 18.003906 14.902344 17.925781 14.894531 17.828125 14.894531 C 17.734375 14.894531 17.664062 14.878906 17.613281 14.84375 C 17.570312 14.804688 17.550781 14.726562 17.550781 14.605469 C 17.550781 14.492188 17.578125 14.414062 17.628906 14.382812 C 17.675781 14.339844 17.753906 14.320312 17.863281 14.320312 C 17.972656 14.320312 18.039062 14.292969 18.066406 14.242188 C 18.070312 14.210938 18.078125 14.164062 18.078125 14.09375 C 18.078125 14.027344 18.050781 13.980469 18.003906 13.957031 C 17.957031 13.929688 17.894531 13.917969 17.816406 13.917969 L 17.253906 13.917969 L 17.253906 15.417969 L 17.902344 15.417969 C 18.066406 15.417969 18.152344 15.332031 18.152344 15.15625 Z M 18.152344 15.15625 "/>
<path style=" stroke:none;fill-rule:nonzero;fill:rgb(100%,100%,100%);fill-opacity:1;" d="M 21.257812 13.804688 C 21.332031 13.949219 21.371094 14.105469 21.371094 14.28125 C 21.371094 14.449219 21.332031 14.601562 21.257812 14.742188 C 21.1875 14.886719 21.101562 14.992188 20.996094 15.070312 C 20.777344 15.242188 20.550781 15.332031 20.320312 15.332031 L 19.820312 15.332031 L 19.820312 15.78125 C 19.820312 15.839844 19.8125 15.886719 19.808594 15.917969 C 19.808594 15.945312 19.796875 15.976562 19.78125 16.019531 C 19.738281 16.09375 19.636719 16.132812 19.46875 16.132812 C 19.277344 16.132812 19.171875 16.082031 19.144531 15.980469 C 19.125 15.941406 19.121094 15.867188 19.121094 15.769531 L 19.121094 13.570312 C 19.121094 13.511719 19.121094 13.464844 19.121094 13.429688 C 19.125 13.398438 19.140625 13.363281 19.15625 13.320312 C 19.199219 13.253906 19.300781 13.21875 19.46875 13.21875 L 20.320312 13.21875 C 20.550781 13.21875 20.777344 13.304688 20.996094 13.46875 C 21.101562 13.554688 21.1875 13.664062 21.257812 13.804688 Z M 20.320312 14.617188 C 20.402344 14.617188 20.484375 14.589844 20.558594 14.53125 C 20.632812 14.476562 20.671875 14.390625 20.671875 14.28125 C 20.671875 14.164062 20.632812 14.078125 20.558594 14.019531 C 20.484375 13.953125 20.402344 13.917969 20.320312 13.917969 L 19.820312 13.917969 L 19.820312 14.617188 Z M 20.320312 14.617188 "/>
</g>
</svg>
