<svg width="24" height="24" viewBox="0 0 24 24" fill="none" xmlns="http://www.w3.org/2000/svg">
<path fill-rule="evenodd" clip-rule="evenodd" d="M17.25 22C18.4926 22 19.5 20.9926 19.5 19.75V19.0058V11.7383H18C18 11.7383 18 18.1774 18 19.0058V19.75C18 20.1642 17.6642 20.5 17.25 20.5H6.75C6.33579 20.5 6 20.1642 6 19.75V9.75H10.0009C11.2442 9.75 12.2518 8.74166 12.2509 7.4984L12.248 3.5H17.25C17.6642 3.5 18 3.83579 18 4.25V11.7383H19.5V4.25C19.5 3.00736 18.4926 2 17.25 2H12.1177C11.5207 2 10.9482 2.23725 10.5262 2.65951L5.15851 8.03055C4.73686 8.45247 4.5 9.02455 4.5 9.62105V19.75C4.5 20.9926 5.50736 22 6.75 22H17.25ZM10.7488 4.55876L7.05986 8.25H10.0009C10.4153 8.25 10.7512 7.91389 10.7509 7.49947L10.7488 4.55876Z" fill="#323544"/>
</svg>
