<?xml version="1.0" encoding="UTF-8"?>
<svg xmlns="http://www.w3.org/2000/svg" xmlns:xlink="http://www.w3.org/1999/xlink" width="24px" height="24px" viewBox="0 0 24 24" version="1.1">
<defs>
<clipPath id="clip1">
  <path d="M 10.257812 11.613281 L 21.097656 11.613281 L 21.097656 18 L 10.257812 18 Z M 10.257812 11.613281 "/>
</clipPath>
</defs>
<g id="surface1">
<path style=" stroke:none;fill-rule:nonzero;fill:rgb(19.607843%,20.784314%,26.666668%);fill-opacity:1;" d="M 17.882812 14.617188 C 18.027344 14.617188 18.144531 14.582031 18.226562 14.507812 C 18.320312 14.429688 18.363281 14.328125 18.363281 14.203125 C 18.363281 14.074219 18.320312 13.972656 18.226562 13.894531 C 18.144531 13.816406 18.027344 13.773438 17.882812 13.773438 L 17.390625 13.773438 C 17.371094 13.773438 17.363281 13.785156 17.363281 13.804688 L 17.363281 14.589844 C 17.363281 14.609375 17.371094 14.617188 17.390625 14.617188 Z M 17.882812 14.617188 "/>
<path style=" stroke:none;fill-rule:evenodd;fill:rgb(19.607843%,20.784314%,26.666668%);fill-opacity:1;" d="M 17.082031 21.289062 C 18.285156 21.289062 19.257812 20.316406 19.257812 19.113281 L 19.257812 18.394531 L 20.226562 18.394531 C 21.027344 18.394531 21.679688 17.742188 21.679688 16.941406 L 21.679688 12.820312 C 21.679688 12.023438 21.027344 11.371094 20.226562 11.371094 L 10.546875 11.371094 C 9.746094 11.371094 9.097656 12.023438 9.097656 12.820312 L 9.097656 16.941406 C 9.097656 17.742188 9.746094 18.394531 10.546875 18.394531 L 17.804688 18.394531 L 17.804688 19.113281 C 17.804688 19.511719 17.480469 19.835938 17.082031 19.835938 L 6.917969 19.835938 C 6.519531 19.835938 6.195312 19.511719 6.195312 19.113281 L 6.195312 9.433594 L 10.066406 9.433594 C 11.269531 9.433594 12.242188 8.460938 12.242188 7.257812 L 12.242188 3.386719 L 17.082031 3.386719 C 17.480469 3.386719 17.804688 3.710938 17.804688 4.113281 L 17.804688 11.359375 L 19.257812 11.359375 L 19.257812 4.113281 C 19.257812 2.910156 18.285156 1.933594 17.082031 1.933594 L 12.113281 1.933594 C 11.539062 1.933594 10.980469 2.164062 10.574219 2.574219 L 5.378906 7.773438 C 4.972656 8.179688 4.742188 8.734375 4.742188 9.308594 L 4.742188 19.113281 C 4.742188 20.316406 5.714844 21.289062 6.917969 21.289062 Z M 10.789062 4.414062 L 7.21875 7.984375 L 10.066406 7.984375 C 10.464844 7.984375 10.789062 7.660156 10.789062 7.257812 Z M 18.066406 12.835938 C 18.339844 12.835938 18.585938 12.890625 18.796875 13.003906 C 19.007812 13.113281 19.167969 13.273438 19.28125 13.476562 C 19.398438 13.679688 19.457031 13.914062 19.457031 14.179688 C 19.457031 14.441406 19.398438 14.671875 19.273438 14.867188 C 19.15625 15.070312 18.984375 15.222656 18.765625 15.332031 C 18.546875 15.441406 18.296875 15.496094 18.011719 15.496094 L 17.390625 15.496094 C 17.371094 15.496094 17.363281 15.507812 17.363281 15.523438 L 17.363281 16.84375 C 17.363281 16.867188 17.351562 16.890625 17.335938 16.90625 C 17.320312 16.921875 17.304688 16.929688 17.273438 16.929688 L 16.351562 16.929688 C 16.320312 16.929688 16.300781 16.921875 16.285156 16.90625 C 16.269531 16.890625 16.261719 16.867188 16.261719 16.84375 L 16.261719 12.921875 C 16.261719 12.894531 16.269531 12.871094 16.285156 12.855469 C 16.300781 12.839844 16.320312 12.835938 16.351562 12.835938 Z M 14.75 16.90625 C 14.765625 16.921875 14.785156 16.929688 14.8125 16.929688 L 15.738281 16.929688 C 15.765625 16.929688 15.789062 16.921875 15.804688 16.90625 C 15.820312 16.890625 15.824219 16.867188 15.824219 16.84375 L 15.824219 12.921875 C 15.824219 12.894531 15.820312 12.871094 15.804688 12.855469 C 15.789062 12.839844 15.765625 12.835938 15.738281 12.835938 L 14.8125 12.835938 C 14.785156 12.835938 14.765625 12.839844 14.75 12.855469 C 14.734375 12.871094 14.726562 12.894531 14.726562 12.921875 L 14.726562 16.84375 C 14.726562 16.867188 14.734375 16.890625 14.75 16.90625 Z M 11.441406 16.929688 C 11.414062 16.929688 11.390625 16.921875 11.375 16.90625 C 11.359375 16.890625 11.351562 16.867188 11.351562 16.84375 L 11.351562 15.992188 C 11.351562 15.953125 11.367188 15.917969 11.394531 15.886719 L 13.097656 13.8125 C 13.101562 13.804688 13.105469 13.796875 13.101562 13.789062 C 13.097656 13.78125 13.089844 13.773438 13.078125 13.773438 L 11.441406 13.773438 C 11.414062 13.773438 11.390625 13.769531 11.375 13.753906 C 11.359375 13.738281 11.351562 13.714844 11.351562 13.6875 L 11.351562 12.921875 C 11.351562 12.894531 11.359375 12.871094 11.375 12.855469 C 11.390625 12.839844 11.414062 12.835938 11.441406 12.835938 L 14.253906 12.835938 C 14.28125 12.835938 14.304688 12.839844 14.320312 12.855469 C 14.335938 12.871094 14.339844 12.894531 14.339844 12.921875 L 14.339844 13.765625 C 14.339844 13.8125 14.328125 13.847656 14.300781 13.875 L 12.585938 15.953125 C 12.578125 15.960938 12.578125 15.96875 12.582031 15.976562 C 12.585938 15.984375 12.589844 15.988281 12.601562 15.988281 L 14.253906 15.988281 C 14.28125 15.988281 14.304688 15.996094 14.320312 16.011719 C 14.335938 16.027344 14.339844 16.046875 14.339844 16.074219 L 14.339844 16.84375 C 14.339844 16.867188 14.335938 16.890625 14.320312 16.90625 C 14.304688 16.921875 14.28125 16.929688 14.253906 16.929688 Z M 11.441406 16.929688 "/>
<g clip-path="url(#clip1)" clip-rule="nonzero">
<path style=" stroke:none;fill-rule:nonzero;fill:rgb(19.607843%,20.784314%,26.666668%);fill-opacity:1;" d="M 10.257812 11.613281 L 21.085938 11.613281 L 21.085938 18 L 10.257812 18 Z M 10.257812 11.613281 "/>
</g>
<path style=" stroke:none;fill-rule:nonzero;fill:rgb(100%,100%,100%);fill-opacity:1;" d="M 14.460938 15.90625 C 14.59375 15.90625 14.6875 15.925781 14.75 15.957031 C 14.8125 15.992188 14.855469 16.042969 14.875 16.109375 C 14.898438 16.167969 14.910156 16.246094 14.910156 16.34375 C 14.910156 16.4375 14.902344 16.515625 14.886719 16.570312 C 14.867188 16.628906 14.847656 16.675781 14.824219 16.707031 C 14.796875 16.742188 14.765625 16.765625 14.722656 16.769531 C 14.664062 16.796875 14.574219 16.808594 14.449219 16.808594 L 12.3125 16.808594 C 12.226562 16.808594 12.148438 16.789062 12.074219 16.746094 C 11.921875 16.664062 11.847656 16.527344 11.847656 16.332031 C 11.847656 16.25 11.867188 16.179688 11.910156 16.121094 L 13.511719 13.90625 L 12.324219 13.90625 C 12.238281 13.90625 12.175781 13.90625 12.136719 13.894531 C 12.101562 13.890625 12.054688 13.875 12 13.859375 C 11.898438 13.808594 11.847656 13.679688 11.847656 13.46875 C 11.847656 13.246094 11.890625 13.109375 11.984375 13.058594 C 12.042969 13.03125 12.089844 13.019531 12.125 13.019531 C 12.164062 13.015625 12.226562 13.007812 12.3125 13.007812 L 14.386719 13.007812 C 14.46875 13.007812 14.542969 13.03125 14.609375 13.070312 C 14.6875 13.113281 14.738281 13.167969 14.773438 13.234375 C 14.8125 13.300781 14.835938 13.382812 14.835938 13.484375 C 14.835938 13.578125 14.8125 13.644531 14.773438 13.695312 L 13.171875 15.90625 Z M 14.460938 15.90625 "/>
<path style=" stroke:none;fill-rule:nonzero;fill:rgb(100%,100%,100%);fill-opacity:1;" d="M 15.253906 13.46875 C 15.253906 13.390625 15.253906 13.328125 15.253906 13.296875 C 15.261719 13.253906 15.28125 13.203125 15.304688 13.144531 C 15.355469 13.054688 15.484375 13.007812 15.703125 13.007812 C 15.945312 13.007812 16.09375 13.078125 16.140625 13.207031 C 16.15625 13.265625 16.167969 13.355469 16.167969 13.46875 L 16.167969 16.34375 C 16.167969 16.429688 16.160156 16.492188 16.15625 16.53125 C 16.144531 16.566406 16.128906 16.609375 16.105469 16.65625 C 16.054688 16.75 15.921875 16.796875 15.703125 16.796875 C 15.460938 16.796875 15.320312 16.730469 15.28125 16.59375 C 15.261719 16.546875 15.253906 16.457031 15.253906 16.332031 Z M 15.253906 13.46875 "/>
<path style=" stroke:none;fill-rule:nonzero;fill:rgb(100%,100%,100%);fill-opacity:1;" d="M 19.367188 13.78125 C 19.457031 13.957031 19.503906 14.15625 19.503906 14.382812 C 19.503906 14.609375 19.457031 14.8125 19.367188 14.996094 C 19.273438 15.171875 19.160156 15.3125 19.019531 15.421875 C 18.734375 15.644531 18.4375 15.757812 18.128906 15.757812 L 17.492188 15.757812 L 17.492188 16.332031 C 17.492188 16.417969 17.488281 16.480469 17.480469 16.519531 C 17.472656 16.554688 17.457031 16.59375 17.429688 16.644531 C 17.378906 16.746094 17.246094 16.796875 17.03125 16.796875 C 16.785156 16.796875 16.644531 16.730469 16.605469 16.59375 C 16.585938 16.539062 16.582031 16.453125 16.582031 16.332031 L 16.582031 13.46875 C 16.582031 13.390625 16.582031 13.328125 16.582031 13.296875 C 16.585938 13.253906 16.605469 13.203125 16.628906 13.144531 C 16.679688 13.054688 16.8125 13.007812 17.03125 13.007812 L 18.144531 13.007812 C 18.441406 13.007812 18.734375 13.121094 19.019531 13.34375 C 19.160156 13.453125 19.273438 13.601562 19.367188 13.78125 Z M 18.144531 14.832031 C 18.242188 14.832031 18.34375 14.796875 18.441406 14.71875 C 18.542969 14.644531 18.59375 14.53125 18.59375 14.382812 C 18.59375 14.234375 18.542969 14.121094 18.441406 14.046875 C 18.34375 13.964844 18.238281 13.921875 18.128906 13.921875 L 17.492188 13.921875 L 17.492188 14.832031 Z M 18.144531 14.832031 "/>
</g>
</svg>
