<svg width="24" height="24" viewBox="0 0 24 24" fill="none" xmlns="http://www.w3.org/2000/svg">
<path d="M17.8844 14.6188C18.0281 14.6188 18.1437 14.5813 18.2281 14.5063C18.3187 14.4281 18.3625 14.3281 18.3625 14.2031C18.3625 14.075 18.3187 13.9719 18.2281 13.8938C18.1437 13.8156 18.0281 13.775 17.8844 13.775H17.3906C17.3719 13.775 17.3625 13.7844 17.3625 13.8063V14.5906C17.3625 14.6094 17.3719 14.6188 17.3906 14.6188H17.8844Z" fill="#323544"/>
<path fill-rule="evenodd" clip-rule="evenodd" d="M17.0813 21.2906C18.2844 21.2906 19.2594 20.3156 19.2594 19.1125V18.3937H20.225C21.0281 18.3937 21.6781 17.7437 21.6781 16.9406V12.8219C21.6781 12.0219 21.0281 11.3719 20.225 11.3719H10.5469C9.74688 11.3719 9.09688 12.0219 9.09688 12.8219V16.9406C9.09688 17.7437 9.74688 18.3937 10.5469 18.3937H17.8063V19.1125C17.8063 19.5125 17.4813 19.8375 17.0813 19.8375H6.91876C6.51876 19.8375 6.19376 19.5125 6.19376 19.1125V9.43437H10.0656C11.2688 9.43437 12.2438 8.45937 12.2438 7.25625L12.2406 3.3875H17.0813C17.4813 3.3875 17.8063 3.7125 17.8063 4.1125V11.3594H19.2594V4.1125C19.2594 2.90937 18.2844 1.93437 17.0813 1.93437H12.1125C11.5375 1.93437 10.9813 2.16562 10.575 2.575L5.37813 7.77187C4.97188 8.18125 4.74063 8.73437 4.74063 9.30937V19.1125C4.74063 20.3156 5.71563 21.2906 6.91876 21.2906H17.0813ZM10.7906 4.4125L7.21876 7.98437H10.0656C10.4656 7.98437 10.7906 7.65937 10.7906 7.25625V4.4125ZM18.0656 12.8344C18.3406 12.8344 18.5844 12.8906 18.7969 13.0031C19.0063 13.1125 19.1688 13.2719 19.2813 13.4781C19.4 13.6812 19.4563 13.9156 19.4563 14.1812C19.4563 14.4406 19.3969 14.6719 19.275 14.8687C19.1563 15.0687 18.9844 15.2219 18.7656 15.3312C18.5469 15.4406 18.2969 15.4969 18.0125 15.4969H17.3906C17.3719 15.4969 17.3625 15.5062 17.3625 15.525V16.8437C17.3625 16.8687 17.3531 16.8906 17.3375 16.9062C17.3219 16.9219 17.3031 16.9312 17.275 16.9312H16.35C16.3219 16.9312 16.3 16.9219 16.2844 16.9062C16.2688 16.8906 16.2625 16.8687 16.2625 16.8437V12.9219C16.2625 12.8937 16.2688 12.8719 16.2844 12.8562C16.3 12.8406 16.3219 12.8344 16.35 12.8344H18.0656ZM14.75 16.9062C14.7656 16.9219 14.7844 16.9312 14.8125 16.9312H15.7375C15.7656 16.9312 15.7875 16.9219 15.8031 16.9062C15.8188 16.8906 15.825 16.8687 15.825 16.8437V12.9219C15.825 12.8937 15.8188 12.8719 15.8031 12.8562C15.7875 12.8406 15.7656 12.8344 15.7375 12.8344H14.8125C14.7844 12.8344 14.7656 12.8406 14.75 12.8562C14.7344 12.8719 14.725 12.8937 14.725 12.9219V16.8437C14.725 16.8687 14.7344 16.8906 14.75 16.9062ZM11.4406 16.9312C11.4125 16.9312 11.3906 16.9219 11.375 16.9062C11.3594 16.8906 11.3531 16.8687 11.3531 16.8437V15.9937C11.3531 15.9531 11.3656 15.9187 11.3938 15.8875L13.0969 13.8125C13.1031 13.8031 13.1063 13.7969 13.1 13.7875C13.0969 13.7812 13.0906 13.775 13.0781 13.775H11.4406C11.4125 13.775 11.3906 13.7687 11.375 13.7531C11.3594 13.7375 11.3531 13.7156 11.3531 13.6875V12.9219C11.3531 12.8937 11.3594 12.8719 11.375 12.8562C11.3906 12.8406 11.4125 12.8344 11.4406 12.8344H14.2531C14.2813 12.8344 14.3031 12.8406 14.3188 12.8562C14.3344 12.8719 14.3406 12.8937 14.3406 12.9219V13.7656C14.3406 13.8125 14.3281 13.8469 14.3 13.875L12.5875 15.9531C12.5781 15.9594 12.5781 15.9687 12.5813 15.975C12.5844 15.9844 12.5906 15.9875 12.6031 15.9875H14.2531C14.2813 15.9875 14.3031 15.9969 14.3188 16.0125C14.3344 16.0281 14.3406 16.0469 14.3406 16.075V16.8437C14.3406 16.8687 14.3344 16.8906 14.3188 16.9062C14.3031 16.9219 14.2813 16.9312 14.2531 16.9312H11.4406Z" fill="#323544"/>
<mask id="mask0_35_195" style="mask-type:luminance" maskUnits="userSpaceOnUse" x="10" y="11" width="12" height="7">
<path d="M10.2594 11.6125H21.0969V18H10.2594V11.6125Z" fill="white"/>
</mask>
<g mask="url(#mask0_35_195)">
<path d="M10.2594 11.6125H21.0875V18H10.2594V11.6125Z" fill="#323544"/>
</g>
<path d="M10.8237 13.0082H13.6987C13.8049 13.0082 13.8862 13.0207 13.9362 13.0457C13.9924 13.0707 14.0299 13.1144 14.0487 13.1707C14.0643 13.2207 14.0737 13.2926 14.0737 13.3832C14.0737 13.4769 14.0643 13.5519 14.0487 13.6082C14.0299 13.6582 14.0018 13.6926 13.9612 13.7082C13.8924 13.7426 13.8049 13.7582 13.6987 13.7582H12.7112V16.3457C12.7112 16.4301 12.7049 16.4926 12.6987 16.5332C12.6893 16.5676 12.6737 16.6082 12.6487 16.6582C12.6237 16.7082 12.5768 16.7457 12.5112 16.7707C12.4518 16.7894 12.3674 16.7957 12.2612 16.7957C12.1518 16.7957 12.0643 16.7894 11.9987 16.7707C11.9393 16.7457 11.8924 16.7082 11.8612 16.6582C11.8362 16.6082 11.8174 16.5676 11.8112 16.5332C11.8112 16.4926 11.8112 16.4301 11.8112 16.3457V13.7582H10.8237C10.7143 13.7582 10.6299 13.7457 10.5737 13.7207C10.5237 13.6957 10.4893 13.6551 10.4737 13.5957C10.4549 13.5394 10.4487 13.4676 10.4487 13.3832C10.4487 13.2926 10.4549 13.2207 10.4737 13.1707C10.4893 13.1144 10.5174 13.0769 10.5612 13.0582C10.6268 13.0269 10.7143 13.0082 10.8237 13.0082Z" fill="white"/>
<path d="M14.4091 16.2582C14.3153 16.152 14.2716 16.0551 14.2716 15.9707C14.2716 15.8801 14.3466 15.7645 14.4966 15.6207C14.5778 15.5395 14.6716 15.4957 14.7716 15.4957C14.8716 15.4957 15.0028 15.5832 15.1716 15.7582C15.2216 15.8176 15.2872 15.8707 15.3716 15.9207C15.4622 15.9707 15.5497 15.9957 15.6341 15.9957C15.9497 15.9957 16.1091 15.8676 16.1091 15.6082C16.1091 15.5332 16.0622 15.4707 15.9716 15.4207C15.8872 15.3645 15.7778 15.3207 15.6466 15.2957C15.5122 15.2707 15.3716 15.2332 15.2216 15.1832C15.0716 15.127 14.9278 15.0645 14.7966 14.9957C14.6716 14.9207 14.5622 14.8051 14.4716 14.6457C14.3872 14.4895 14.3466 14.302 14.3466 14.0832C14.3466 13.777 14.4591 13.5082 14.6841 13.2832C14.9091 13.0582 15.2122 12.9457 15.5966 12.9457C15.8028 12.9457 15.9903 12.977 16.1591 13.0332C16.3341 13.0832 16.4528 13.1395 16.5216 13.1957L16.6466 13.2957C16.7528 13.3957 16.8091 13.4801 16.8091 13.5457C16.8091 13.6145 16.7653 13.7082 16.6841 13.8332C16.5653 14.002 16.4466 14.0832 16.3216 14.0832C16.2528 14.0832 16.1653 14.052 16.0591 13.9832C16.0497 13.977 16.0278 13.9582 15.9966 13.9332C15.9716 13.902 15.9466 13.877 15.9216 13.8582C15.8466 13.8176 15.7497 13.7957 15.6341 13.7957C15.5247 13.7957 15.4341 13.827 15.3591 13.8832C15.2841 13.9332 15.2466 14.0082 15.2466 14.1082C15.2466 14.202 15.2872 14.277 15.3716 14.3332C15.4622 14.3926 15.5747 14.4332 15.7091 14.4582C15.8403 14.477 15.9841 14.5051 16.1341 14.5457C16.2903 14.5895 16.4341 14.6426 16.5591 14.7082C16.6903 14.7676 16.7997 14.877 16.8841 15.0332C16.9747 15.1832 17.0216 15.3707 17.0216 15.5957C17.0216 15.8145 16.9747 16.0082 16.8841 16.1832C16.7997 16.352 16.6872 16.4801 16.5466 16.5707C16.2622 16.7551 15.9622 16.8457 15.6466 16.8457C15.4872 16.8457 15.3341 16.827 15.1841 16.7957C15.0403 16.7551 14.9247 16.7051 14.8341 16.6457C14.6497 16.5301 14.5247 16.4207 14.4591 16.3207L14.4091 16.2582Z" fill="white"/>
<path d="M19.6932 14.8832L20.7307 16.0207C20.8463 16.1551 20.9057 16.2676 20.9057 16.3582C20.9057 16.4426 20.8369 16.5457 20.7057 16.6707C20.5713 16.7894 20.4588 16.8457 20.3682 16.8457C20.2744 16.8457 20.1713 16.7801 20.0557 16.6457L19.0682 15.5207L18.0932 16.6457C17.9682 16.7801 17.8588 16.8457 17.7682 16.8457C17.6838 16.8457 17.5713 16.7894 17.4307 16.6707C17.2963 16.5457 17.2307 16.4426 17.2307 16.3582C17.2307 16.2676 17.2932 16.1551 17.4182 16.0207L18.4557 14.8832L17.4182 13.7457C17.2932 13.6144 17.2307 13.5051 17.2307 13.4207C17.2307 13.3301 17.2963 13.2207 17.4307 13.0957C17.5619 12.9707 17.6744 12.9082 17.7682 12.9082C17.8588 12.9082 17.9682 12.9801 18.0932 13.1207L19.0682 14.2457L20.0557 13.1207C20.1807 12.9801 20.2838 12.9082 20.3682 12.9082C20.4588 12.9082 20.5713 12.9707 20.7057 13.0957C20.8369 13.2144 20.9057 13.3207 20.9057 13.4207C20.9057 13.5144 20.8463 13.6207 20.7307 13.7457L19.6932 14.8832Z" fill="white"/>
</svg>
