<svg width="24" height="24" viewBox="0 0 24 24" fill="none" xmlns="http://www.w3.org/2000/svg">
<path d="M17.8844 14.6187C18.0281 14.6187 18.1437 14.5812 18.2281 14.5062C18.3187 14.4281 18.3625 14.3281 18.3625 14.2031C18.3625 14.075 18.3187 13.9719 18.2281 13.8937C18.1437 13.8156 18.0281 13.775 17.8844 13.775H17.3906C17.3719 13.775 17.3625 13.7844 17.3625 13.8062V14.5906C17.3625 14.6094 17.3719 14.6187 17.3906 14.6187H17.8844Z" fill="#323544"/>
<path fill-rule="evenodd" clip-rule="evenodd" d="M17.0813 21.2906C18.2844 21.2906 19.2594 20.3156 19.2594 19.1125V18.3937H20.225C21.0281 18.3937 21.6781 17.7437 21.6781 16.9406V12.8219C21.6781 12.0219 21.0281 11.3719 20.225 11.3719H10.5469C9.74688 11.3719 9.09688 12.0219 9.09688 12.8219V16.9406C9.09688 17.7437 9.74688 18.3937 10.5469 18.3937H17.8063V19.1125C17.8063 19.5125 17.4813 19.8375 17.0813 19.8375H6.91876C6.51876 19.8375 6.19376 19.5125 6.19376 19.1125V9.43437H10.0656C11.2688 9.43437 12.2438 8.45937 12.2438 7.25625L12.2406 3.3875H17.0813C17.4813 3.3875 17.8063 3.7125 17.8063 4.1125V11.3594H19.2594V4.1125C19.2594 2.90937 18.2844 1.93437 17.0813 1.93437H12.1125C11.5375 1.93437 10.9813 2.16562 10.575 2.575L5.37813 7.77187C4.97188 8.18125 4.74063 8.73437 4.74063 9.30937V19.1125C4.74063 20.3156 5.71563 21.2906 6.91876 21.2906H17.0813ZM10.7906 4.4125L7.21876 7.98437H10.0656C10.4656 7.98437 10.7906 7.65937 10.7906 7.25625V4.4125ZM18.0656 12.8344C18.3406 12.8344 18.5844 12.8906 18.7969 13.0031C19.0063 13.1125 19.1688 13.2719 19.2813 13.4781C19.4 13.6812 19.4563 13.9156 19.4563 14.1812C19.4563 14.4406 19.3969 14.6719 19.275 14.8687C19.1563 15.0687 18.9844 15.2219 18.7656 15.3312C18.5469 15.4406 18.2969 15.4969 18.0125 15.4969H17.3906C17.3719 15.4969 17.3625 15.5062 17.3625 15.525V16.8437C17.3625 16.8687 17.3531 16.8906 17.3375 16.9062C17.3219 16.9219 17.3031 16.9312 17.275 16.9312H16.35C16.3219 16.9312 16.3 16.9219 16.2844 16.9062C16.2688 16.8906 16.2625 16.8687 16.2625 16.8437V12.9219C16.2625 12.8937 16.2688 12.8719 16.2844 12.8562C16.3 12.8406 16.3219 12.8344 16.35 12.8344H18.0656ZM14.75 16.9062C14.7656 16.9219 14.7844 16.9312 14.8125 16.9312H15.7375C15.7656 16.9312 15.7875 16.9219 15.8031 16.9062C15.8188 16.8906 15.825 16.8687 15.825 16.8437V12.9219C15.825 12.8937 15.8188 12.8719 15.8031 12.8562C15.7875 12.8406 15.7656 12.8344 15.7375 12.8344H14.8125C14.7844 12.8344 14.7656 12.8406 14.75 12.8562C14.7344 12.8719 14.725 12.8937 14.725 12.9219V16.8437C14.725 16.8687 14.7344 16.8906 14.75 16.9062ZM11.4406 16.9312C11.4125 16.9312 11.3906 16.9219 11.375 16.9062C11.3594 16.8906 11.3531 16.8687 11.3531 16.8437V15.9937C11.3531 15.9531 11.3656 15.9187 11.3938 15.8875L13.0969 13.8125C13.1031 13.8031 13.1063 13.7969 13.1 13.7875C13.0969 13.7812 13.0906 13.775 13.0781 13.775H11.4406C11.4125 13.775 11.3906 13.7687 11.375 13.7531C11.3594 13.7375 11.3531 13.7156 11.3531 13.6875V12.9219C11.3531 12.8937 11.3594 12.8719 11.375 12.8562C11.3906 12.8406 11.4125 12.8344 11.4406 12.8344H14.2531C14.2813 12.8344 14.3031 12.8406 14.3188 12.8562C14.3344 12.8719 14.3406 12.8937 14.3406 12.9219V13.7656C14.3406 13.8125 14.3281 13.8469 14.3 13.875L12.5875 15.9531C12.5781 15.9594 12.5781 15.9687 12.5813 15.975C12.5844 15.9844 12.5906 15.9875 12.6031 15.9875H14.2531C14.2813 15.9875 14.3031 15.9969 14.3188 16.0125C14.3344 16.0281 14.3406 16.0469 14.3406 16.075V16.8437C14.3406 16.8687 14.3344 16.8906 14.3188 16.9062C14.3031 16.9219 14.2813 16.9312 14.2531 16.9312H11.4406Z" fill="#323544"/>
<mask id="mask0_35_143" style="mask-type:luminance" maskUnits="userSpaceOnUse" x="10" y="11" width="12" height="7">
<path d="M10.2594 11.6125H21.0969V18H10.2594V11.6125Z" fill="white"/>
</mask>
<g mask="url(#mask0_35_143)">
<path d="M10.2594 11.6125H21.0875V18H10.2594V11.6125Z" fill="#323544"/>
</g>
<path d="M15.2742 13.7832C15.3648 13.9582 15.4117 14.1582 15.4117 14.3832C15.4117 14.6082 15.3648 14.8145 15.2742 14.9957C15.1804 15.1707 15.0648 15.3145 14.9242 15.4207C14.6398 15.6457 14.3429 15.7582 14.0367 15.7582H13.3992V16.3332C13.3992 16.4176 13.3929 16.4801 13.3867 16.5207C13.3773 16.5551 13.3617 16.5957 13.3367 16.6457C13.2867 16.7457 13.1523 16.7957 12.9367 16.7957C12.6929 16.7957 12.5523 16.7301 12.5117 16.5957C12.4929 16.5395 12.4867 16.452 12.4867 16.3332V13.4707C12.4867 13.3895 12.4867 13.3301 12.4867 13.2957C12.4929 13.2551 12.5117 13.2051 12.5367 13.1457C12.5867 13.0551 12.7179 13.0082 12.9367 13.0082H14.0492C14.3492 13.0082 14.6398 13.1207 14.9242 13.3457C15.0648 13.4551 15.1804 13.602 15.2742 13.7832ZM14.0492 14.8332C14.1492 14.8332 14.2492 14.7957 14.3492 14.7207C14.4492 14.6457 14.4992 14.5332 14.4992 14.3832C14.4992 14.2332 14.4492 14.1207 14.3492 14.0457C14.2492 13.9645 14.1429 13.9207 14.0367 13.9207H13.3992V14.8332H14.0492Z" fill="white"/>
<path d="M18.7486 13.0832C18.9143 13.202 18.9986 13.3145 18.9986 13.4207C18.9986 13.4895 18.9611 13.5801 18.8861 13.6957L17.7611 15.3707V16.3457C17.7611 16.4301 17.7549 16.4926 17.7486 16.5332C17.7486 16.5676 17.7361 16.6145 17.7111 16.6707C17.6861 16.7207 17.6393 16.7582 17.5736 16.7832C17.5049 16.7988 17.4143 16.8082 17.2986 16.8082C17.1893 16.8082 17.1018 16.7988 17.0361 16.7832C16.9768 16.7582 16.9299 16.7207 16.8986 16.6707C16.8736 16.6145 16.8549 16.5676 16.8486 16.5332C16.8486 16.4926 16.8486 16.4301 16.8486 16.3457V15.3707L15.7361 13.6957C15.6518 13.5801 15.6111 13.4895 15.6111 13.4207C15.6111 13.3145 15.6861 13.2082 15.8361 13.1082C15.9924 13.0082 16.1018 12.9582 16.1611 12.9582C16.2268 12.9582 16.2799 12.9707 16.3236 12.9957C16.3799 13.0395 16.4424 13.1082 16.5111 13.2082L17.3111 14.4832L18.1111 13.2082C18.1768 13.1082 18.2299 13.0426 18.2736 13.0082C18.3236 12.977 18.3768 12.9582 18.4361 12.9582C18.5018 12.9582 18.6049 13.002 18.7486 13.0832Z" fill="white"/>
</svg>
