<?xml version="1.0" encoding="UTF-8"?>
<svg xmlns="http://www.w3.org/2000/svg" xmlns:xlink="http://www.w3.org/1999/xlink" width="24px" height="24px" viewBox="0 0 24 24" version="1.1">
<defs>
<clipPath id="clip1">
  <path d="M 10.257812 11.613281 L 21.097656 11.613281 L 21.097656 18 L 10.257812 18 Z M 10.257812 11.613281 "/>
</clipPath>
</defs>
<g id="surface1">
<path style=" stroke:none;fill-rule:nonzero;fill:rgb(19.607843%,20.784314%,26.666668%);fill-opacity:1;" d="M 17.882812 14.617188 C 18.027344 14.617188 18.144531 14.582031 18.226562 14.507812 C 18.320312 14.429688 18.363281 14.328125 18.363281 14.203125 C 18.363281 14.074219 18.320312 13.972656 18.226562 13.894531 C 18.144531 13.816406 18.027344 13.773438 17.882812 13.773438 L 17.390625 13.773438 C 17.371094 13.773438 17.363281 13.785156 17.363281 13.804688 L 17.363281 14.589844 C 17.363281 14.609375 17.371094 14.617188 17.390625 14.617188 Z M 17.882812 14.617188 "/>
<path style=" stroke:none;fill-rule:evenodd;fill:rgb(19.607843%,20.784314%,26.666668%);fill-opacity:1;" d="M 17.082031 21.289062 C 18.285156 21.289062 19.257812 20.316406 19.257812 19.113281 L 19.257812 18.394531 L 20.226562 18.394531 C 21.027344 18.394531 21.679688 17.742188 21.679688 16.941406 L 21.679688 12.820312 C 21.679688 12.023438 21.027344 11.371094 20.226562 11.371094 L 10.546875 11.371094 C 9.746094 11.371094 9.097656 12.023438 9.097656 12.820312 L 9.097656 16.941406 C 9.097656 17.742188 9.746094 18.394531 10.546875 18.394531 L 17.804688 18.394531 L 17.804688 19.113281 C 17.804688 19.511719 17.480469 19.835938 17.082031 19.835938 L 6.917969 19.835938 C 6.519531 19.835938 6.195312 19.511719 6.195312 19.113281 L 6.195312 9.433594 L 10.066406 9.433594 C 11.269531 9.433594 12.242188 8.460938 12.242188 7.257812 L 12.242188 3.386719 L 17.082031 3.386719 C 17.480469 3.386719 17.804688 3.710938 17.804688 4.113281 L 17.804688 11.359375 L 19.257812 11.359375 L 19.257812 4.113281 C 19.257812 2.910156 18.285156 1.933594 17.082031 1.933594 L 12.113281 1.933594 C 11.539062 1.933594 10.980469 2.164062 10.574219 2.574219 L 5.378906 7.773438 C 4.972656 8.179688 4.742188 8.734375 4.742188 9.308594 L 4.742188 19.113281 C 4.742188 20.316406 5.714844 21.289062 6.917969 21.289062 Z M 10.789062 4.414062 L 7.21875 7.984375 L 10.066406 7.984375 C 10.464844 7.984375 10.789062 7.660156 10.789062 7.257812 Z M 18.066406 12.835938 C 18.339844 12.835938 18.585938 12.890625 18.796875 13.003906 C 19.007812 13.113281 19.167969 13.273438 19.28125 13.476562 C 19.398438 13.679688 19.457031 13.914062 19.457031 14.179688 C 19.457031 14.441406 19.398438 14.671875 19.273438 14.867188 C 19.15625 15.070312 18.984375 15.222656 18.765625 15.332031 C 18.546875 15.441406 18.296875 15.496094 18.011719 15.496094 L 17.390625 15.496094 C 17.371094 15.496094 17.363281 15.507812 17.363281 15.523438 L 17.363281 16.84375 C 17.363281 16.867188 17.351562 16.890625 17.335938 16.90625 C 17.320312 16.921875 17.304688 16.929688 17.273438 16.929688 L 16.351562 16.929688 C 16.320312 16.929688 16.300781 16.921875 16.285156 16.90625 C 16.269531 16.890625 16.261719 16.867188 16.261719 16.84375 L 16.261719 12.921875 C 16.261719 12.894531 16.269531 12.871094 16.285156 12.855469 C 16.300781 12.839844 16.320312 12.835938 16.351562 12.835938 Z M 14.75 16.90625 C 14.765625 16.921875 14.785156 16.929688 14.8125 16.929688 L 15.738281 16.929688 C 15.765625 16.929688 15.789062 16.921875 15.804688 16.90625 C 15.820312 16.890625 15.824219 16.867188 15.824219 16.84375 L 15.824219 12.921875 C 15.824219 12.894531 15.820312 12.871094 15.804688 12.855469 C 15.789062 12.839844 15.765625 12.835938 15.738281 12.835938 L 14.8125 12.835938 C 14.785156 12.835938 14.765625 12.839844 14.75 12.855469 C 14.734375 12.871094 14.726562 12.894531 14.726562 12.921875 L 14.726562 16.84375 C 14.726562 16.867188 14.734375 16.890625 14.75 16.90625 Z M 11.441406 16.929688 C 11.414062 16.929688 11.390625 16.921875 11.375 16.90625 C 11.359375 16.890625 11.351562 16.867188 11.351562 16.84375 L 11.351562 15.992188 C 11.351562 15.953125 11.367188 15.917969 11.394531 15.886719 L 13.097656 13.8125 C 13.101562 13.804688 13.105469 13.796875 13.101562 13.789062 C 13.097656 13.78125 13.089844 13.773438 13.078125 13.773438 L 11.441406 13.773438 C 11.414062 13.773438 11.390625 13.769531 11.375 13.753906 C 11.359375 13.738281 11.351562 13.714844 11.351562 13.6875 L 11.351562 12.921875 C 11.351562 12.894531 11.359375 12.871094 11.375 12.855469 C 11.390625 12.839844 11.414062 12.835938 11.441406 12.835938 L 14.253906 12.835938 C 14.28125 12.835938 14.304688 12.839844 14.320312 12.855469 C 14.335938 12.871094 14.339844 12.894531 14.339844 12.921875 L 14.339844 13.765625 C 14.339844 13.8125 14.328125 13.847656 14.300781 13.875 L 12.585938 15.953125 C 12.578125 15.960938 12.578125 15.96875 12.582031 15.976562 C 12.585938 15.984375 12.589844 15.988281 12.601562 15.988281 L 14.253906 15.988281 C 14.28125 15.988281 14.304688 15.996094 14.320312 16.011719 C 14.335938 16.027344 14.339844 16.046875 14.339844 16.074219 L 14.339844 16.84375 C 14.339844 16.867188 14.335938 16.890625 14.320312 16.90625 C 14.304688 16.921875 14.28125 16.929688 14.253906 16.929688 Z M 11.441406 16.929688 "/>
<g clip-path="url(#clip1)" clip-rule="nonzero">
<path style=" stroke:none;fill-rule:nonzero;fill:rgb(19.607843%,20.784314%,26.666668%);fill-opacity:1;" d="M 10.257812 11.613281 L 21.085938 11.613281 L 21.085938 18 L 10.257812 18 Z M 10.257812 11.613281 "/>
</g>
<path style=" stroke:none;fill-rule:nonzero;fill:rgb(100%,100%,100%);fill-opacity:1;" d="M 12.09375 13.21875 C 12.199219 13.21875 12.28125 13.226562 12.332031 13.242188 C 12.378906 13.261719 12.410156 13.289062 12.429688 13.332031 C 12.460938 13.390625 12.480469 13.476562 12.480469 13.582031 L 12.480469 15.117188 C 12.480469 15.394531 12.378906 15.640625 12.179688 15.855469 C 11.980469 16.066406 11.722656 16.167969 11.40625 16.167969 C 11.230469 16.167969 11.074219 16.132812 10.941406 16.054688 C 10.816406 15.992188 10.730469 15.929688 10.679688 15.882812 L 10.65625 15.84375 C 10.5625 15.742188 10.519531 15.664062 10.519531 15.59375 C 10.519531 15.519531 10.5625 15.4375 10.65625 15.34375 C 10.746094 15.253906 10.824219 15.207031 10.894531 15.207031 C 10.96875 15.207031 11.046875 15.253906 11.128906 15.34375 C 11.222656 15.429688 11.316406 15.46875 11.417969 15.46875 C 11.523438 15.46875 11.613281 15.4375 11.679688 15.367188 C 11.746094 15.292969 11.78125 15.199219 11.78125 15.082031 L 11.78125 13.59375 C 11.78125 13.4375 11.804688 13.335938 11.855469 13.292969 C 11.910156 13.242188 11.992188 13.21875 12.09375 13.21875 Z M 12.09375 13.21875 "/>
<path style=" stroke:none;fill-rule:nonzero;fill:rgb(100%,100%,100%);fill-opacity:1;" d="M 12.839844 15.71875 C 12.769531 15.636719 12.738281 15.5625 12.738281 15.492188 C 12.738281 15.429688 12.792969 15.335938 12.914062 15.21875 C 12.980469 15.164062 13.042969 15.132812 13.113281 15.132812 C 13.1875 15.132812 13.292969 15.199219 13.425781 15.332031 C 13.464844 15.375 13.519531 15.414062 13.589844 15.457031 C 13.652344 15.5 13.714844 15.519531 13.777344 15.519531 C 14.027344 15.519531 14.152344 15.417969 14.152344 15.21875 C 14.152344 15.164062 14.117188 15.113281 14.050781 15.070312 C 13.980469 15.027344 13.894531 15 13.789062 14.980469 C 13.6875 14.957031 13.578125 14.925781 13.464844 14.882812 C 13.34375 14.839844 13.238281 14.792969 13.136719 14.742188 C 13.039062 14.6875 12.953125 14.601562 12.886719 14.480469 C 12.820312 14.355469 12.789062 14.210938 12.789062 14.042969 C 12.789062 13.8125 12.875 13.605469 13.050781 13.429688 C 13.226562 13.257812 13.464844 13.167969 13.761719 13.167969 C 13.917969 13.167969 14.0625 13.191406 14.1875 13.230469 C 14.320312 13.273438 14.414062 13.316406 14.464844 13.355469 L 14.5625 13.429688 C 14.644531 13.507812 14.6875 13.574219 14.6875 13.632812 C 14.6875 13.679688 14.652344 13.753906 14.589844 13.84375 C 14.503906 13.976562 14.414062 14.042969 14.3125 14.042969 C 14.261719 14.042969 14.195312 14.019531 14.113281 13.96875 C 14.105469 13.960938 14.089844 13.949219 14.0625 13.929688 C 14.039062 13.90625 14.015625 13.886719 14 13.867188 C 13.941406 13.835938 13.871094 13.820312 13.789062 13.820312 C 13.703125 13.820312 13.632812 13.839844 13.574219 13.882812 C 13.515625 13.925781 13.488281 13.980469 13.488281 14.054688 C 13.488281 14.132812 13.519531 14.191406 13.589844 14.230469 C 13.652344 14.273438 13.738281 14.304688 13.839844 14.320312 C 13.9375 14.335938 14.042969 14.363281 14.164062 14.394531 C 14.289062 14.429688 14.402344 14.46875 14.5 14.519531 C 14.601562 14.570312 14.683594 14.652344 14.75 14.769531 C 14.816406 14.886719 14.851562 15.03125 14.851562 15.207031 C 14.851562 15.375 14.816406 15.523438 14.75 15.65625 C 14.683594 15.789062 14.59375 15.890625 14.488281 15.957031 C 14.269531 16.101562 14.042969 16.167969 13.800781 16.167969 C 13.675781 16.167969 13.554688 16.15625 13.4375 16.132812 C 13.328125 16.101562 13.242188 16.054688 13.175781 16.007812 C 13.03125 15.925781 12.933594 15.84375 12.875 15.769531 Z M 12.839844 15.71875 "/>
<path style=" stroke:none;fill-rule:nonzero;fill:rgb(100%,100%,100%);fill-opacity:1;" d="M 16.480469 13.179688 C 16.871094 13.179688 17.207031 13.324219 17.492188 13.605469 C 17.785156 13.890625 17.929688 14.242188 17.929688 14.667969 C 17.929688 15.085938 17.792969 15.445312 17.519531 15.742188 C 17.242188 16.039062 16.90625 16.179688 16.503906 16.179688 C 16.105469 16.179688 15.761719 16.039062 15.480469 15.742188 C 15.195312 15.453125 15.054688 15.105469 15.054688 14.707031 C 15.054688 14.480469 15.09375 14.273438 15.167969 14.082031 C 15.25 13.890625 15.359375 13.730469 15.492188 13.605469 C 15.625 13.476562 15.773438 13.367188 15.941406 13.292969 C 16.117188 13.21875 16.296875 13.179688 16.480469 13.179688 Z M 15.753906 14.679688 C 15.753906 14.914062 15.832031 15.105469 15.980469 15.257812 C 16.136719 15.40625 16.308594 15.480469 16.492188 15.480469 C 16.683594 15.480469 16.855469 15.414062 17.003906 15.269531 C 17.15625 15.117188 17.230469 14.925781 17.230469 14.679688 C 17.230469 14.441406 17.15625 14.25 17.003906 14.105469 C 16.855469 13.957031 16.683594 13.882812 16.492188 13.882812 C 16.300781 13.882812 16.128906 13.957031 15.980469 14.105469 C 15.832031 14.257812 15.753906 14.449219 15.753906 14.679688 Z M 15.753906 14.679688 "/>
<path style=" stroke:none;fill-rule:nonzero;fill:rgb(100%,100%,100%);fill-opacity:1;" d="M 20.074219 13.34375 C 20.097656 13.292969 20.136719 13.261719 20.1875 13.242188 C 20.238281 13.226562 20.300781 13.21875 20.375 13.21875 C 20.457031 13.21875 20.519531 13.226562 20.5625 13.242188 C 20.613281 13.253906 20.644531 13.269531 20.660156 13.292969 C 20.6875 13.3125 20.703125 13.335938 20.710938 13.367188 C 20.726562 13.414062 20.738281 13.480469 20.738281 13.582031 L 20.738281 15.78125 C 20.738281 15.851562 20.730469 15.898438 20.722656 15.929688 C 20.722656 15.957031 20.714844 15.988281 20.699219 16.019531 C 20.65625 16.09375 20.550781 16.132812 20.386719 16.132812 C 20.285156 16.132812 20.214844 16.125 20.175781 16.105469 C 20.128906 16.089844 20.097656 16.066406 20.074219 16.03125 C 19.472656 15.242188 19.082031 14.71875 18.898438 14.46875 L 18.898438 15.78125 C 18.898438 15.851562 18.894531 15.898438 18.886719 15.929688 C 18.886719 15.957031 18.875 15.988281 18.847656 16.019531 C 18.816406 16.09375 18.710938 16.132812 18.535156 16.132812 C 18.378906 16.132812 18.277344 16.09375 18.238281 16.019531 C 18.21875 15.988281 18.207031 15.953125 18.199219 15.917969 C 18.199219 15.886719 18.199219 15.839844 18.199219 15.78125 L 18.199219 13.554688 C 18.199219 13.457031 18.210938 13.386719 18.238281 13.34375 C 18.261719 13.292969 18.300781 13.261719 18.347656 13.242188 C 18.398438 13.226562 18.460938 13.21875 18.535156 13.21875 C 18.617188 13.21875 18.679688 13.226562 18.722656 13.242188 C 18.773438 13.261719 18.804688 13.277344 18.824219 13.292969 C 18.839844 13.304688 18.875 13.335938 18.925781 13.394531 C 19.480469 14.152344 19.851562 14.65625 20.035156 14.90625 L 20.035156 13.554688 C 20.035156 13.457031 20.050781 13.386719 20.074219 13.34375 Z M 20.074219 13.34375 "/>
</g>
</svg>
