<?xml version="1.0" encoding="UTF-8"?>
<svg xmlns="http://www.w3.org/2000/svg" xmlns:xlink="http://www.w3.org/1999/xlink" width="24px" height="24px" viewBox="0 0 24 24" version="1.1">
<defs>
<clipPath id="clip1">
  <path d="M 10.257812 11.613281 L 21.097656 11.613281 L 21.097656 18 L 10.257812 18 Z M 10.257812 11.613281 "/>
</clipPath>
</defs>
<g id="surface1">
<path style=" stroke:none;fill-rule:nonzero;fill:rgb(19.607843%,20.784314%,26.666668%);fill-opacity:1;" d="M 17.882812 14.617188 C 18.027344 14.617188 18.144531 14.582031 18.226562 14.507812 C 18.320312 14.429688 18.363281 14.328125 18.363281 14.203125 C 18.363281 14.074219 18.320312 13.972656 18.226562 13.894531 C 18.144531 13.816406 18.027344 13.773438 17.882812 13.773438 L 17.390625 13.773438 C 17.371094 13.773438 17.363281 13.785156 17.363281 13.804688 L 17.363281 14.589844 C 17.363281 14.609375 17.371094 14.617188 17.390625 14.617188 Z M 17.882812 14.617188 "/>
<path style=" stroke:none;fill-rule:evenodd;fill:rgb(19.607843%,20.784314%,26.666668%);fill-opacity:1;" d="M 17.082031 21.289062 C 18.285156 21.289062 19.257812 20.316406 19.257812 19.113281 L 19.257812 18.394531 L 20.226562 18.394531 C 21.027344 18.394531 21.679688 17.742188 21.679688 16.941406 L 21.679688 12.820312 C 21.679688 12.023438 21.027344 11.371094 20.226562 11.371094 L 10.546875 11.371094 C 9.746094 11.371094 9.097656 12.023438 9.097656 12.820312 L 9.097656 16.941406 C 9.097656 17.742188 9.746094 18.394531 10.546875 18.394531 L 17.804688 18.394531 L 17.804688 19.113281 C 17.804688 19.511719 17.480469 19.835938 17.082031 19.835938 L 6.917969 19.835938 C 6.519531 19.835938 6.195312 19.511719 6.195312 19.113281 L 6.195312 9.433594 L 10.066406 9.433594 C 11.269531 9.433594 12.242188 8.460938 12.242188 7.257812 L 12.242188 3.386719 L 17.082031 3.386719 C 17.480469 3.386719 17.804688 3.710938 17.804688 4.113281 L 17.804688 11.359375 L 19.257812 11.359375 L 19.257812 4.113281 C 19.257812 2.910156 18.285156 1.933594 17.082031 1.933594 L 12.113281 1.933594 C 11.539062 1.933594 10.980469 2.164062 10.574219 2.574219 L 5.378906 7.773438 C 4.972656 8.179688 4.742188 8.734375 4.742188 9.308594 L 4.742188 19.113281 C 4.742188 20.316406 5.714844 21.289062 6.917969 21.289062 Z M 10.789062 4.414062 L 7.21875 7.984375 L 10.066406 7.984375 C 10.464844 7.984375 10.789062 7.660156 10.789062 7.257812 Z M 18.066406 12.835938 C 18.339844 12.835938 18.585938 12.890625 18.796875 13.003906 C 19.007812 13.113281 19.167969 13.273438 19.28125 13.476562 C 19.398438 13.679688 19.457031 13.914062 19.457031 14.179688 C 19.457031 14.441406 19.398438 14.671875 19.273438 14.867188 C 19.15625 15.070312 18.984375 15.222656 18.765625 15.332031 C 18.546875 15.441406 18.296875 15.496094 18.011719 15.496094 L 17.390625 15.496094 C 17.371094 15.496094 17.363281 15.507812 17.363281 15.523438 L 17.363281 16.84375 C 17.363281 16.867188 17.351562 16.890625 17.335938 16.90625 C 17.320312 16.921875 17.304688 16.929688 17.273438 16.929688 L 16.351562 16.929688 C 16.320312 16.929688 16.300781 16.921875 16.285156 16.90625 C 16.269531 16.890625 16.261719 16.867188 16.261719 16.84375 L 16.261719 12.921875 C 16.261719 12.894531 16.269531 12.871094 16.285156 12.855469 C 16.300781 12.839844 16.320312 12.835938 16.351562 12.835938 Z M 14.75 16.90625 C 14.765625 16.921875 14.785156 16.929688 14.8125 16.929688 L 15.738281 16.929688 C 15.765625 16.929688 15.789062 16.921875 15.804688 16.90625 C 15.820312 16.890625 15.824219 16.867188 15.824219 16.84375 L 15.824219 12.921875 C 15.824219 12.894531 15.820312 12.871094 15.804688 12.855469 C 15.789062 12.839844 15.765625 12.835938 15.738281 12.835938 L 14.8125 12.835938 C 14.785156 12.835938 14.765625 12.839844 14.75 12.855469 C 14.734375 12.871094 14.726562 12.894531 14.726562 12.921875 L 14.726562 16.84375 C 14.726562 16.867188 14.734375 16.890625 14.75 16.90625 Z M 11.441406 16.929688 C 11.414062 16.929688 11.390625 16.921875 11.375 16.90625 C 11.359375 16.890625 11.351562 16.867188 11.351562 16.84375 L 11.351562 15.992188 C 11.351562 15.953125 11.367188 15.917969 11.394531 15.886719 L 13.097656 13.8125 C 13.101562 13.804688 13.105469 13.796875 13.101562 13.789062 C 13.097656 13.78125 13.089844 13.773438 13.078125 13.773438 L 11.441406 13.773438 C 11.414062 13.773438 11.390625 13.769531 11.375 13.753906 C 11.359375 13.738281 11.351562 13.714844 11.351562 13.6875 L 11.351562 12.921875 C 11.351562 12.894531 11.359375 12.871094 11.375 12.855469 C 11.390625 12.839844 11.414062 12.835938 11.441406 12.835938 L 14.253906 12.835938 C 14.28125 12.835938 14.304688 12.839844 14.320312 12.855469 C 14.335938 12.871094 14.339844 12.894531 14.339844 12.921875 L 14.339844 13.765625 C 14.339844 13.8125 14.328125 13.847656 14.300781 13.875 L 12.585938 15.953125 C 12.578125 15.960938 12.578125 15.96875 12.582031 15.976562 C 12.585938 15.984375 12.589844 15.988281 12.601562 15.988281 L 14.253906 15.988281 C 14.28125 15.988281 14.304688 15.996094 14.320312 16.011719 C 14.335938 16.027344 14.339844 16.046875 14.339844 16.074219 L 14.339844 16.84375 C 14.339844 16.867188 14.335938 16.890625 14.320312 16.90625 C 14.304688 16.921875 14.28125 16.929688 14.253906 16.929688 Z M 11.441406 16.929688 "/>
<g clip-path="url(#clip1)" clip-rule="nonzero">
<path style=" stroke:none;fill-rule:nonzero;fill:rgb(19.607843%,20.784314%,26.666668%);fill-opacity:1;" d="M 10.257812 11.613281 L 21.085938 11.613281 L 21.085938 18 L 10.257812 18 Z M 10.257812 11.613281 "/>
</g>
<path style=" stroke:none;fill-rule:nonzero;fill:rgb(100%,100%,100%);fill-opacity:1;" d="M 12.921875 13.007812 C 13.054688 13.007812 13.152344 13.019531 13.210938 13.046875 C 13.277344 13.070312 13.324219 13.109375 13.359375 13.160156 C 13.390625 13.234375 13.410156 13.339844 13.410156 13.472656 L 13.410156 15.472656 C 13.410156 15.839844 13.277344 16.160156 13.011719 16.433594 C 12.75 16.707031 12.421875 16.847656 12.023438 16.847656 C 11.789062 16.847656 11.585938 16.796875 11.410156 16.695312 C 11.25 16.613281 11.140625 16.539062 11.085938 16.472656 L 11.046875 16.421875 C 10.921875 16.296875 10.859375 16.191406 10.859375 16.097656 C 10.859375 16.003906 10.917969 15.894531 11.035156 15.769531 C 11.160156 15.644531 11.265625 15.582031 11.359375 15.582031 C 11.449219 15.582031 11.554688 15.644531 11.671875 15.757812 C 11.789062 15.878906 11.910156 15.933594 12.035156 15.933594 C 12.167969 15.933594 12.277344 15.890625 12.359375 15.796875 C 12.449219 15.707031 12.496094 15.582031 12.496094 15.433594 L 12.496094 13.507812 C 12.496094 13.300781 12.527344 13.167969 12.597656 13.109375 C 12.679688 13.042969 12.789062 13.007812 12.921875 13.007812 Z M 12.921875 13.007812 "/>
<path style=" stroke:none;fill-rule:nonzero;fill:rgb(100%,100%,100%);fill-opacity:1;" d="M 16.617188 13.785156 C 16.710938 13.957031 16.757812 14.160156 16.757812 14.382812 C 16.757812 14.609375 16.710938 14.816406 16.617188 14.996094 C 16.523438 15.171875 16.410156 15.316406 16.269531 15.421875 C 15.984375 15.644531 15.6875 15.757812 15.382812 15.757812 L 14.742188 15.757812 L 14.742188 16.332031 C 14.742188 16.417969 14.738281 16.480469 14.730469 16.519531 C 14.722656 16.554688 14.707031 16.597656 14.679688 16.644531 C 14.632812 16.746094 14.496094 16.796875 14.28125 16.796875 C 14.039062 16.796875 13.898438 16.730469 13.855469 16.597656 C 13.835938 16.539062 13.832031 16.453125 13.832031 16.332031 L 13.832031 13.472656 C 13.832031 13.390625 13.832031 13.332031 13.832031 13.296875 C 13.835938 13.253906 13.855469 13.207031 13.882812 13.144531 C 13.929688 13.054688 14.0625 13.007812 14.28125 13.007812 L 15.394531 13.007812 C 15.695312 13.007812 15.984375 13.121094 16.269531 13.347656 C 16.410156 13.457031 16.523438 13.601562 16.617188 13.785156 Z M 15.394531 14.832031 C 15.492188 14.832031 15.59375 14.796875 15.695312 14.722656 C 15.792969 14.644531 15.84375 14.535156 15.84375 14.382812 C 15.84375 14.234375 15.792969 14.121094 15.695312 14.046875 C 15.59375 13.964844 15.488281 13.921875 15.382812 13.921875 L 14.742188 13.921875 L 14.742188 14.832031 Z M 15.394531 14.832031 "/>
<path style=" stroke:none;fill-rule:nonzero;fill:rgb(100%,100%,100%);fill-opacity:1;" d="M 19.054688 14.507812 L 19.96875 14.507812 C 20.148438 14.519531 20.261719 14.566406 20.304688 14.660156 C 20.335938 14.726562 20.355469 14.820312 20.355469 14.945312 L 20.355469 16.082031 C 20.355469 16.191406 20.308594 16.296875 20.21875 16.394531 C 19.925781 16.695312 19.492188 16.847656 18.917969 16.847656 C 18.398438 16.847656 17.949219 16.65625 17.566406 16.269531 C 17.191406 15.878906 17.003906 15.414062 17.003906 14.871094 C 17.003906 14.320312 17.195312 13.863281 17.582031 13.496094 C 17.972656 13.128906 18.429688 12.945312 18.957031 12.945312 C 19.355469 12.945312 19.738281 13.082031 20.105469 13.347656 C 20.195312 13.414062 20.242188 13.492188 20.242188 13.582031 C 20.242188 13.667969 20.199219 13.765625 20.117188 13.871094 C 19.984375 14.054688 19.863281 14.144531 19.753906 14.144531 C 19.6875 14.144531 19.582031 14.101562 19.429688 14.007812 C 19.285156 13.910156 19.121094 13.859375 18.929688 13.859375 C 18.660156 13.859375 18.425781 13.953125 18.21875 14.132812 C 18.019531 14.316406 17.917969 14.558594 17.917969 14.859375 C 17.917969 15.160156 18.019531 15.414062 18.230469 15.621094 C 18.4375 15.832031 18.671875 15.933594 18.929688 15.933594 C 19.121094 15.933594 19.292969 15.902344 19.441406 15.832031 L 19.441406 15.269531 L 19.042969 15.269531 C 18.933594 15.269531 18.855469 15.257812 18.804688 15.234375 C 18.761719 15.207031 18.734375 15.171875 18.71875 15.121094 C 18.707031 15.066406 18.707031 14.988281 18.707031 14.894531 C 18.707031 14.804688 18.710938 14.734375 18.730469 14.683594 C 18.746094 14.628906 18.769531 14.582031 18.804688 14.558594 C 18.871094 14.527344 18.957031 14.507812 19.054688 14.507812 Z M 19.054688 14.507812 "/>
</g>
</svg>
