<?xml version="1.0" encoding="UTF-8"?>
<svg xmlns="http://www.w3.org/2000/svg" xmlns:xlink="http://www.w3.org/1999/xlink" width="24px" height="24px" viewBox="0 0 24 24" version="1.1">
<defs>
<clipPath id="clip1">
  <path d="M 10.257812 11.613281 L 21.097656 11.613281 L 21.097656 18 L 10.257812 18 Z M 10.257812 11.613281 "/>
</clipPath>
</defs>
<g id="surface1">
<path style=" stroke:none;fill-rule:nonzero;fill:rgb(19.607843%,20.784314%,26.666668%);fill-opacity:1;" d="M 17.882812 14.617188 C 18.027344 14.617188 18.144531 14.582031 18.226562 14.507812 C 18.320312 14.429688 18.363281 14.328125 18.363281 14.203125 C 18.363281 14.074219 18.320312 13.972656 18.226562 13.894531 C 18.144531 13.816406 18.027344 13.773438 17.882812 13.773438 L 17.390625 13.773438 C 17.371094 13.773438 17.363281 13.785156 17.363281 13.804688 L 17.363281 14.589844 C 17.363281 14.609375 17.371094 14.617188 17.390625 14.617188 Z M 17.882812 14.617188 "/>
<path style=" stroke:none;fill-rule:evenodd;fill:rgb(19.607843%,20.784314%,26.666668%);fill-opacity:1;" d="M 17.082031 21.289062 C 18.285156 21.289062 19.257812 20.316406 19.257812 19.113281 L 19.257812 18.394531 L 20.226562 18.394531 C 21.027344 18.394531 21.679688 17.742188 21.679688 16.941406 L 21.679688 12.820312 C 21.679688 12.023438 21.027344 11.371094 20.226562 11.371094 L 10.546875 11.371094 C 9.746094 11.371094 9.097656 12.023438 9.097656 12.820312 L 9.097656 16.941406 C 9.097656 17.742188 9.746094 18.394531 10.546875 18.394531 L 17.804688 18.394531 L 17.804688 19.113281 C 17.804688 19.511719 17.480469 19.835938 17.082031 19.835938 L 6.917969 19.835938 C 6.519531 19.835938 6.195312 19.511719 6.195312 19.113281 L 6.195312 9.433594 L 10.066406 9.433594 C 11.269531 9.433594 12.242188 8.460938 12.242188 7.257812 L 12.242188 3.386719 L 17.082031 3.386719 C 17.480469 3.386719 17.804688 3.710938 17.804688 4.113281 L 17.804688 11.359375 L 19.257812 11.359375 L 19.257812 4.113281 C 19.257812 2.910156 18.285156 1.933594 17.082031 1.933594 L 12.113281 1.933594 C 11.539062 1.933594 10.980469 2.164062 10.574219 2.574219 L 5.378906 7.773438 C 4.972656 8.179688 4.742188 8.734375 4.742188 9.308594 L 4.742188 19.113281 C 4.742188 20.316406 5.714844 21.289062 6.917969 21.289062 Z M 10.789062 4.414062 L 7.21875 7.984375 L 10.066406 7.984375 C 10.464844 7.984375 10.789062 7.660156 10.789062 7.257812 Z M 18.066406 12.835938 C 18.339844 12.835938 18.585938 12.890625 18.796875 13.003906 C 19.007812 13.113281 19.167969 13.273438 19.28125 13.476562 C 19.398438 13.679688 19.457031 13.914062 19.457031 14.179688 C 19.457031 14.441406 19.398438 14.671875 19.273438 14.867188 C 19.15625 15.070312 18.984375 15.222656 18.765625 15.332031 C 18.546875 15.441406 18.296875 15.496094 18.011719 15.496094 L 17.390625 15.496094 C 17.371094 15.496094 17.363281 15.507812 17.363281 15.523438 L 17.363281 16.84375 C 17.363281 16.867188 17.351562 16.890625 17.335938 16.90625 C 17.320312 16.921875 17.304688 16.929688 17.273438 16.929688 L 16.351562 16.929688 C 16.320312 16.929688 16.300781 16.921875 16.285156 16.90625 C 16.269531 16.890625 16.261719 16.867188 16.261719 16.84375 L 16.261719 12.921875 C 16.261719 12.894531 16.269531 12.871094 16.285156 12.855469 C 16.300781 12.839844 16.320312 12.835938 16.351562 12.835938 Z M 14.75 16.90625 C 14.765625 16.921875 14.785156 16.929688 14.8125 16.929688 L 15.738281 16.929688 C 15.765625 16.929688 15.789062 16.921875 15.804688 16.90625 C 15.820312 16.890625 15.824219 16.867188 15.824219 16.84375 L 15.824219 12.921875 C 15.824219 12.894531 15.820312 12.871094 15.804688 12.855469 C 15.789062 12.839844 15.765625 12.835938 15.738281 12.835938 L 14.8125 12.835938 C 14.785156 12.835938 14.765625 12.839844 14.75 12.855469 C 14.734375 12.871094 14.726562 12.894531 14.726562 12.921875 L 14.726562 16.84375 C 14.726562 16.867188 14.734375 16.890625 14.75 16.90625 Z M 11.441406 16.929688 C 11.414062 16.929688 11.390625 16.921875 11.375 16.90625 C 11.359375 16.890625 11.351562 16.867188 11.351562 16.84375 L 11.351562 15.992188 C 11.351562 15.953125 11.367188 15.917969 11.394531 15.886719 L 13.097656 13.8125 C 13.101562 13.804688 13.105469 13.796875 13.101562 13.789062 C 13.097656 13.78125 13.089844 13.773438 13.078125 13.773438 L 11.441406 13.773438 C 11.414062 13.773438 11.390625 13.769531 11.375 13.753906 C 11.359375 13.738281 11.351562 13.714844 11.351562 13.6875 L 11.351562 12.921875 C 11.351562 12.894531 11.359375 12.871094 11.375 12.855469 C 11.390625 12.839844 11.414062 12.835938 11.441406 12.835938 L 14.253906 12.835938 C 14.28125 12.835938 14.304688 12.839844 14.320312 12.855469 C 14.335938 12.871094 14.339844 12.894531 14.339844 12.921875 L 14.339844 13.765625 C 14.339844 13.8125 14.328125 13.847656 14.300781 13.875 L 12.585938 15.953125 C 12.578125 15.960938 12.578125 15.96875 12.582031 15.976562 C 12.585938 15.984375 12.589844 15.988281 12.601562 15.988281 L 14.253906 15.988281 C 14.28125 15.988281 14.304688 15.996094 14.320312 16.011719 C 14.335938 16.027344 14.339844 16.046875 14.339844 16.074219 L 14.339844 16.84375 C 14.339844 16.867188 14.335938 16.890625 14.320312 16.90625 C 14.304688 16.921875 14.28125 16.929688 14.253906 16.929688 Z M 11.441406 16.929688 "/>
<g clip-path="url(#clip1)" clip-rule="nonzero">
<path style=" stroke:none;fill-rule:nonzero;fill:rgb(19.607843%,20.784314%,26.666668%);fill-opacity:1;" d="M 10.257812 11.613281 L 21.085938 11.613281 L 21.085938 18 L 10.257812 18 Z M 10.257812 11.613281 "/>
</g>
<path style=" stroke:none;fill-rule:nonzero;fill:rgb(100%,100%,100%);fill-opacity:1;" d="M 12.539062 14.882812 L 13.578125 16.019531 C 13.691406 16.15625 13.753906 16.265625 13.753906 16.359375 C 13.753906 16.441406 13.683594 16.546875 13.550781 16.671875 C 13.417969 16.789062 13.304688 16.84375 13.214844 16.84375 C 13.121094 16.84375 13.019531 16.78125 12.902344 16.644531 L 11.914062 15.519531 L 10.941406 16.644531 C 10.816406 16.78125 10.707031 16.84375 10.613281 16.84375 C 10.53125 16.84375 10.417969 16.789062 10.277344 16.671875 C 10.144531 16.546875 10.078125 16.441406 10.078125 16.359375 C 10.078125 16.265625 10.140625 16.15625 10.265625 16.019531 L 11.300781 14.882812 L 10.265625 13.746094 C 10.140625 13.613281 10.078125 13.503906 10.078125 13.421875 C 10.078125 13.328125 10.144531 13.21875 10.277344 13.09375 C 10.410156 12.96875 10.519531 12.90625 10.613281 12.90625 C 10.707031 12.90625 10.816406 12.980469 10.941406 13.121094 L 11.914062 14.246094 L 12.902344 13.121094 C 13.027344 12.980469 13.128906 12.90625 13.214844 12.90625 C 13.304688 12.90625 13.417969 12.96875 13.550781 13.09375 C 13.683594 13.214844 13.753906 13.320312 13.753906 13.421875 C 13.753906 13.515625 13.691406 13.621094 13.578125 13.746094 Z M 12.539062 14.882812 "/>
<path style=" stroke:none;fill-rule:nonzero;fill:rgb(100%,100%,100%);fill-opacity:1;" d="M 18.050781 13.15625 C 18.082031 13.207031 18.101562 13.253906 18.101562 13.296875 C 18.109375 13.339844 18.113281 13.394531 18.113281 13.46875 L 18.113281 16.34375 C 18.113281 16.578125 18.046875 16.71875 17.914062 16.757812 C 17.847656 16.78125 17.765625 16.796875 17.664062 16.796875 C 17.566406 16.796875 17.484375 16.789062 17.425781 16.769531 C 17.367188 16.746094 17.320312 16.726562 17.289062 16.707031 C 17.265625 16.683594 17.242188 16.644531 17.226562 16.59375 C 17.207031 16.539062 17.203125 16.453125 17.203125 16.332031 L 17.203125 14.59375 C 17.109375 14.703125 16.980469 14.875 16.816406 15.109375 C 16.65625 15.34375 16.550781 15.488281 16.503906 15.546875 C 16.457031 15.605469 16.429688 15.644531 16.414062 15.671875 C 16.394531 15.6875 16.355469 15.71875 16.289062 15.757812 C 16.222656 15.800781 16.144531 15.820312 16.066406 15.820312 C 15.988281 15.820312 15.917969 15.804688 15.851562 15.769531 C 15.792969 15.730469 15.753906 15.691406 15.726562 15.65625 L 15.675781 15.609375 C 15.609375 15.515625 15.472656 15.332031 15.265625 15.058594 C 15.066406 14.777344 14.957031 14.621094 14.941406 14.59375 L 14.941406 16.34375 C 14.941406 16.421875 14.933594 16.480469 14.925781 16.519531 C 14.925781 16.5625 14.914062 16.605469 14.890625 16.644531 C 14.832031 16.746094 14.691406 16.796875 14.476562 16.796875 C 14.269531 16.796875 14.140625 16.746094 14.089844 16.644531 C 14.066406 16.605469 14.046875 16.5625 14.039062 16.519531 C 14.039062 16.480469 14.039062 16.417969 14.039062 16.332031 L 14.039062 13.46875 C 14.039062 13.390625 14.039062 13.328125 14.039062 13.296875 C 14.046875 13.253906 14.066406 13.203125 14.089844 13.144531 C 14.140625 13.0625 14.269531 13.019531 14.488281 13.019531 C 14.582031 13.019531 14.660156 13.03125 14.726562 13.058594 C 14.800781 13.078125 14.847656 13.09375 14.863281 13.121094 L 14.890625 13.144531 L 16.066406 14.683594 C 16.644531 13.917969 17.039062 13.40625 17.238281 13.15625 C 17.296875 13.066406 17.433594 13.019531 17.652344 13.019531 C 17.867188 13.019531 18.003906 13.066406 18.050781 13.15625 Z M 18.050781 13.15625 "/>
<path style=" stroke:none;fill-rule:nonzero;fill:rgb(100%,100%,100%);fill-opacity:1;" d="M 19.441406 16.03125 L 20.84375 16.03125 C 20.957031 16.03125 21.042969 16.046875 21.09375 16.070312 C 21.144531 16.09375 21.175781 16.140625 21.191406 16.195312 C 21.207031 16.246094 21.21875 16.316406 21.21875 16.40625 C 21.21875 16.5 21.207031 16.578125 21.191406 16.632812 C 21.175781 16.683594 21.144531 16.71875 21.105469 16.746094 C 21.035156 16.78125 20.949219 16.796875 20.84375 16.796875 L 18.980469 16.796875 C 18.738281 16.796875 18.597656 16.730469 18.554688 16.59375 C 18.535156 16.546875 18.53125 16.457031 18.53125 16.332031 L 18.53125 13.46875 C 18.53125 13.390625 18.53125 13.328125 18.53125 13.296875 C 18.535156 13.253906 18.554688 13.203125 18.582031 13.144531 C 18.628906 13.054688 18.761719 13.007812 18.980469 13.007812 C 19.222656 13.007812 19.367188 13.078125 19.417969 13.207031 C 19.433594 13.265625 19.441406 13.355469 19.441406 13.46875 Z M 19.441406 16.03125 "/>
</g>
</svg>
