<svg width="24" height="24" viewBox="0 0 24 24" fill="none" xmlns="http://www.w3.org/2000/svg">
<path fill-rule="evenodd" clip-rule="evenodd" d="M17 10.75H5.25C4.0074 10.75 3 11.7574 3 13L2 18C2 19.2426 3.0074 20.25 4.25 20.25H16V18.75H4.25C3.8358 18.75 3.5 18.4142 3.5 18L4.5 13C4.5 12.5858 4.8358 12.25 5.25 12.25H17V10.75Z" fill="#323544"/>
<path fill-rule="evenodd" clip-rule="evenodd" d="M21.75 10.75H14.25V12.25H21.75C22.1642 12.25 22.5 12.5858 22.5 13L21.5 18C21.5 18.4142 21.1642 18.75 20.75 18.75H11V20.25H20.75C21.9926 20.25 23 19.2426 23 18L24 13C24 11.7574 22.9926 10.75 21.75 10.75Z" fill="#323544"/>
<path fill-rule="evenodd" clip-rule="evenodd" d="M4.25 3.75C3.00736 3.75 2 4.75736 2 6V18C2 19.2426 3.00736 20.25 4.25 20.25H19.75V18.75H4.25C3.83579 18.75 3.5 18.4142 3.5 18V6C3.5 5.58579 3.83579 5.25 4.25 5.25H8.5C8.73607 5.25 8.95836 5.36115 9.1 5.55L10.45 7.35C10.8749 7.91656 11.5418 8.25 12.25 8.25H19.75C20.1642 8.25 20.5 8.58579 20.5 9V11.5H22V9C22 7.75736 20.9926 6.75 19.75 6.75H12.25C12.0139 6.75 11.7916 6.63885 11.65 6.45L10.3 4.65C9.87508 4.08344 9.2082 3.75 8.5 3.75H4.25Z" fill="#323544"/>
</svg>
