<svg width="25" height="24" viewBox="0 0 25 24" fill="none" xmlns="http://www.w3.org/2000/svg">
<g clip-path="url(#clip0_28_2)">
<path d="M8.22447 18.4409L9.94628 16.7203C10.2393 16.4275 10.7141 16.4277 11.0069 16.7207C11.2997 17.0137 11.2995 17.4886 11.0066 17.7814L8.00446 20.7814C7.7116 21.0741 7.237 21.0741 6.94415 20.7814L3.94225 17.7814C3.64926 17.4886 3.64911 17.0137 3.94191 16.7207C4.23471 16.4278 4.70959 16.4275 5.00257 16.7203L6.72447 18.4411V4.75C6.72447 4.33578 7.06025 4 7.47447 4C7.88868 4 8.22447 4.33578 8.22447 4.75V18.4409Z" fill="#323544"/>
<path d="M13.2495 11.9995V6.49986C13.2495 6.08565 13.5853 5.74986 13.9995 5.74986C14.4137 5.74986 14.7495 6.08565 14.7495 6.49986V11.689L17.3581 14.2976C17.651 14.5905 17.651 15.0654 17.3581 15.3583C17.0652 15.6512 16.5904 15.6512 16.2975 15.3583L13.4691 12.53L13.2495 11.9995Z" fill="#323544"/>
<path d="M13.4676 12.5284L13.2495 11.9995C13.2495 12.2058 13.3328 12.3928 13.4676 12.5284Z" fill="#323544"/>
<path fill-rule="evenodd" clip-rule="evenodd" d="M13.9996 2C13.6987 2 13.4008 2.0133 13.1066 2.03934V3.54636C13.4001 3.51571 13.698 3.5 13.9996 3.5C18.6939 3.5 22.4993 7.30542 22.4993 11.9996C22.4993 16.6939 18.6939 20.4993 13.9996 20.4993C13.6614 20.4993 13.3279 20.4796 13 20.4412V21.95C13.3288 21.9826 13.6623 21.9993 13.9996 21.9993C19.5223 21.9993 23.9993 17.5223 23.9993 11.9996C23.9993 6.47699 19.5223 2 13.9996 2Z" fill="#323544"/>
</g>
<defs>
<clipPath id="clip0_28_2">
<rect width="25" height="24" fill="white"/>
</clipPath>
</defs>
</svg>
