<svg width="25" height="24" viewBox="0 0 25 24" fill="none" xmlns="http://www.w3.org/2000/svg">
<g clip-path="url(#clip0_28_2)">
<path d="M6.71744 5.55993L4.99563 7.28053C4.7026 7.57333 4.2278 7.57313 3.935 7.28013C3.6422 6.98713 3.6424 6.51233 3.9353 6.21953L6.93745 3.21953C7.23031 2.92683 7.70491 2.92683 7.99776 3.21953L10.9997 6.21953C11.2927 6.51233 11.2928 6.98723 11 7.28023C10.7072 7.57313 10.2323 7.57333 9.93934 7.28053L8.21744 5.55973V19.2509C8.21744 19.6651 7.88166 20.0009 7.46744 20.0009C7.05323 20.0009 6.71744 19.6651 6.71744 19.2509V5.55993Z" fill="#323544"/>
<path d="M13.2495 11.9995V6.49986C13.2495 6.08565 13.5853 5.74986 13.9995 5.74986C14.4137 5.74986 14.7495 6.08565 14.7495 6.49986V11.689L17.3581 14.2976C17.651 14.5905 17.651 15.0654 17.3581 15.3583C17.0652 15.6512 16.5904 15.6512 16.2975 15.3583L13.4691 12.53L13.2495 11.9995Z" fill="#323544"/>
<path d="M13.4676 12.5284L13.2495 11.9995C13.2495 12.2058 13.3328 12.3928 13.4676 12.5284Z" fill="#323544"/>
<path fill-rule="evenodd" clip-rule="evenodd" d="M13.9996 2C13.6987 2 13.4008 2.0133 13.1066 2.03934V3.54636C13.4001 3.51571 13.698 3.5 13.9996 3.5C18.6939 3.5 22.4993 7.30542 22.4993 11.9996C22.4993 16.6939 18.6939 20.4993 13.9996 20.4993C13.6614 20.4993 13.3279 20.4796 13 20.4412V21.95C13.3288 21.9826 13.6623 21.9993 13.9996 21.9993C19.5223 21.9993 23.9993 17.5223 23.9993 11.9996C23.9993 6.47699 19.5223 2 13.9996 2Z" fill="#323544"/>
</g>
<defs>
<clipPath id="clip0_28_2">
<rect width="25" height="24" fill="white"/>
</clipPath>
</defs>
</svg>
