<svg width="25" height="24" viewBox="0 0 25 24" fill="none" xmlns="http://www.w3.org/2000/svg">
<path fill-rule="evenodd" clip-rule="evenodd" d="M18.1323 3.51516C18.0562 3.42525 17.9578 3.35199 17.841 3.30481C17.457 3.14964 17.0199 3.33519 16.8647 3.71924L14.0835 10.603C13.9283 10.987 14.1139 11.4241 14.4979 11.5793C14.882 11.7345 15.3191 11.5489 15.4743 11.1649L15.9415 10.0083L19.1787 10.0084L19.646 11.165C19.8011 11.5491 20.2382 11.7346 20.6223 11.5795C21.0063 11.4243 21.1919 10.9872 21.0367 10.6031L18.2563 3.72141C18.2529 3.71285 18.2493 3.70437 18.2456 3.69595C18.2159 3.62903 18.1775 3.5685 18.1323 3.51516ZM18.5726 8.50843L16.5476 8.50837L17.5601 6.0023L18.5726 8.50843Z" fill="#323544"/>
<path d="M6.71744 5.55993L4.99563 7.28053C4.7026 7.57333 4.2278 7.57313 3.935 7.28013C3.6422 6.98713 3.6424 6.51233 3.9353 6.21953L6.93745 3.21953C7.23031 2.92683 7.70491 2.92683 7.99776 3.21953L10.9997 6.21953C11.2927 6.51233 11.2928 6.98723 11 7.28023C10.7072 7.57313 10.2323 7.57333 9.93934 7.28053L8.21744 5.55973V19.2509C8.21744 19.6651 7.88166 20.0009 7.46744 20.0009C7.05323 20.0009 6.71744 19.6651 6.71744 19.2509V5.55993Z" fill="#323544"/>
<path d="M14.6206 14.8718C14.2064 14.8718 13.8706 14.536 13.8706 14.1218C13.8706 13.7076 14.2064 13.3718 14.6206 13.3718H20.4997C20.803 13.3718 21.0765 13.5546 21.1926 13.8348C21.3087 14.1151 21.2445 14.4377 21.03 14.6522L16.4313 19.2509H20.4997C20.9139 19.2509 21.2497 19.5867 21.2497 20.0009C21.2497 20.4151 20.9139 20.7509 20.4997 20.7509H14.6206C14.3173 20.7509 14.0438 20.5682 13.9277 20.2879C13.8116 20.0077 13.8758 19.6851 14.0903 19.4706L18.689 14.8718H14.6206Z" fill="#323544"/>
</svg>
