<svg width="25" height="24" viewBox="0 0 25 24" fill="none" xmlns="http://www.w3.org/2000/svg">
<path fill-rule="evenodd" clip-rule="evenodd" d="M18.1036 13.2652C18.0275 13.1753 17.9291 13.102 17.8123 13.0548C17.4283 12.8996 16.9912 13.0852 16.836 13.4692L14.0548 20.353C13.8996 20.737 14.0852 21.1741 14.4692 21.3293C14.8533 21.4845 15.2904 21.2989 15.4456 20.9149L15.9128 19.7583L19.15 19.7584L19.6173 20.915C19.7724 21.2991 20.2095 21.4846 20.5936 21.3295C20.9776 21.1743 21.1632 20.7372 21.008 20.3531L18.2276 13.4714C18.2242 13.4629 18.2206 13.4544 18.2169 13.446C18.1872 13.379 18.1488 13.3185 18.1036 13.2652ZM18.5439 18.2584L16.5189 18.2584L17.5314 15.7523L18.5439 18.2584Z" fill="#323544"/>
<path d="M6.97206 3.4703C7.26492 3.17765 7.73952 3.17766 8.03237 3.47032L11.0343 6.47032C11.3273 6.76312 11.3274 7.23799 11.0346 7.53098C10.7418 7.82396 10.2669 7.82411 9.97395 7.53131L8.25206 5.81052V18.1909L9.97387 16.4703C10.2669 16.1775 10.7417 16.1777 11.0345 16.4707C11.3273 16.7637 11.3271 17.2385 11.0342 17.5313L8.03205 20.5313C7.73919 20.824 7.26459 20.824 6.97174 20.5313L3.96984 17.5313C3.67685 17.2385 3.6767 16.7636 3.9695 16.4707C4.2623 16.1777 4.73718 16.1775 5.03016 16.4703L6.75206 18.1911V5.81073L5.03025 7.53133C4.73725 7.82412 4.26238 7.82396 3.96959 7.53096C3.6768 7.23797 3.67696 6.76309 3.96996 6.4703L6.97206 3.4703Z" fill="#323544"/>
<path d="M14.75 5.5C14.3358 5.5 14 5.1642 14 4.75C14 4.3358 14.3358 4 14.75 4H20.6291C20.9324 4 21.2059 4.1828 21.322 4.463C21.4381 4.7433 21.3739 5.0659 21.1594 5.2804L16.5607 9.8791H20.6291C21.0433 9.8791 21.3791 10.2149 21.3791 10.6291C21.3791 11.0433 21.0433 11.3791 20.6291 11.3791H14.75C14.4467 11.3791 14.1732 11.1964 14.0571 10.9161C13.941 10.6359 14.0052 10.3133 14.2197 10.0988L18.8184 5.5H14.75Z" fill="#323544"/>
</svg>
