<svg width="25" height="24" viewBox="0 0 25 24" fill="none" xmlns="http://www.w3.org/2000/svg">
<path d="M13.504 3.25C13.0898 3.25 12.754 3.58579 12.754 4C12.754 4.41421 13.0898 4.75 13.504 4.75H20.5C20.9142 4.75 21.25 4.41421 21.25 4C21.25 3.58579 20.9142 3.25 20.5 3.25H13.504Z" fill="#323544"/>
<path d="M13.504 15.4167C13.0898 15.4167 12.754 15.0809 12.754 14.6667C12.754 14.2525 13.0898 13.9167 13.504 13.9167H17.5C17.9142 13.9167 18.25 14.2525 18.25 14.6667C18.25 15.0809 17.9142 15.4167 17.5 15.4167H13.504Z" fill="#323544"/>
<path d="M16 20.75H13.504C13.0898 20.75 12.754 20.4142 12.754 20C12.754 19.5858 13.0898 19.25 13.504 19.25H16C16.4142 19.25 16.75 19.5858 16.75 20C16.75 20.4142 16.4142 20.75 16 20.75Z" fill="#323544"/>
<path d="M13.504 10.0833H19C19.4142 10.0833 19.75 9.7475 19.75 9.33329C19.75 8.91908 19.4142 8.58329 19 8.58329H13.504C13.0898 8.58329 12.754 8.91908 12.754 9.33329C12.754 9.74751 13.0898 10.0833 13.504 10.0833Z" fill="#323544"/>
<path d="M6.7482 5.55993L5.02639 7.28053C4.73336 7.57333 4.25856 7.57313 3.96576 7.28013C3.67296 6.98713 3.67316 6.51233 3.96606 6.21953L6.96821 3.21953C7.26107 2.92683 7.73567 2.92683 8.02852 3.21953L11.0304 6.21953C11.3234 6.51233 11.3236 6.98723 11.0308 7.28023C10.738 7.57313 10.2631 7.57333 9.9701 7.28053L8.2482 5.55973V19.2509C8.2482 19.6651 7.91242 20.0009 7.4982 20.0009C7.08399 20.0009 6.7482 19.6651 6.7482 19.2509V5.55993Z" fill="#323544"/>
</svg>
